<?xml version="1.0" standalone="no"?>
<!DOCTYPE svg PUBLIC "-//W3C//DTD SVG 1.1//EN" "http://www.w3.org/Graphics/SVG/1.1/DTD/svg11.dtd" >
<svg xmlns="http://www.w3.org/2000/svg" xmlns:xlink="http://www.w3.org/1999/xlink" version="1.1">
<metadata>
Created by FontForge 20170731 at Mon Jul  8 14:53:43 2019
 By Aleksey,,,
Copyright (c) 2019 by mightype. All rights reserved.
</metadata>
<defs>
<font id="lovebeard" horiz-adv-x="833" >
  <font-face 
    font-family="love beard"
    font-weight="400"
    font-stretch="normal"
    units-per-em="1000"
    panose-1="2 0 5 3 0 0 0 2 0 2"
    ascent="800"
    descent="-200"
    x-height="353"
    cap-height="808"
    bbox="-474 -165.231 1248 927.296"
    underline-thickness="50"
    underline-position="-200"
    unicode-range="U+000D-FB02"
  />
<missing-glyph horiz-adv-x="300" 
 />
    <glyph glyph-name=".notdef" horiz-adv-x="300" 
 />
    <glyph glyph-name=".null" horiz-adv-x="0" 
 />
    <glyph glyph-name="nonmarkingreturn" horiz-adv-x="333" 
 />
    <glyph glyph-name="NULL" horiz-adv-x="0" 
 />
    <glyph glyph-name="NULL" horiz-adv-x="0" 
 />
    <glyph glyph-name="CR" unicode="&#xd;" horiz-adv-x="300" 
 />
    <glyph glyph-name="space" unicode=" " horiz-adv-x="300" 
 />
    <glyph glyph-name="exclam" unicode="!" horiz-adv-x="269" 
d="M164 654q11 -101 -1.5 -297.5t-30.5 -300.5q-3 -8 -8 -8q-7 0 -11 9q-2 4 -2 7q8 94 11 273.5t-5 306.5q-4 10 7.5 24.5t23.5 14.5q8 0 12 -10q4 -8 4 -19zM101 20q3 9 14 9q12 0 17 -12q3 -8 -1 -15t-13 -7q-12 0 -17 11v14z" />
    <glyph glyph-name="quotedbl" unicode="&#x22;" horiz-adv-x="324" 
d="M157 556q0 6 5 9.5t10 3.5q8 0 8 -6l-2 -17q-3 -16 -3 -22q0 -2 3 -6q-2 -8 -8.5 -14.5t-12.5 -6.5q-7 0 -7 13q0 9 3.5 24t3.5 22zM202 556q0 6 5 10t10 4q7 0 7 -5t-2.5 -21t-2.5 -20q0 -2 3 -6q-1 -7 -8 -14t-12 -7q-7 0 -7 13q0 9 3.5 24t3.5 22z" />
    <glyph glyph-name="numbersign" unicode="#" 
d="M354 735h4q16 0 26 -12q3 -5 -4 -10q-16 -7 -25 -74t-16 -193l95 16q7 89 30 261q-1 3 1.5 4.5t5.5 1.5q18 0 29 -17q-4 -39 -9 -96t-8.5 -95.5l-4.5 -49.5q139 27 196 49q10 0 16 -9q3 -5 -7 -11t-31 -12.5t-43 -12t-51.5 -11.5t-46 -9t-36.5 -7l-9 -93q150 39 243 39
q8 0 14 -8q4 -5 3 -9.5t-6 -4.5q-103 0 -254 -41q-14 -158 -9 -215q1 -4 -2 -6t-8 -2q-15 0 -24 12q-15 22 1 202q-25 -6 -91 -16q-2 -67 -11.5 -161t-20.5 -94q-15 0 -24 12q7 -11 17 166l2 73q-80 -18 -127 -20q-9 0 -15 8q-10 14 3 14q43 1 139 22q-1 20 4 89
q-13 -2 -40 -6.5t-51.5 -9t-46.5 -8.5q-12 0 -18 9q-3 5 4 9t23.5 7.5t32 6.5t38 6.5t32.5 5.5l26 5q13 281 54 295zM338 421l-4 -90q8 2 42 6.5t50 9.5q7 80 7 90z" />
    <glyph glyph-name="dollar" unicode="$" horiz-adv-x="639" 
d="M385 741q4 6 13 6q8 0 10 -5q1 -2 1 -3.5t-0.5 -3.5l-1 -4t-1 -7t-1.5 -11q41 -7 80 -31t52 -58q5 -14 1.5 -26.5t-9.5 -12.5q-5 0 -9 10q-1 5 -1.5 13t-2.5 12q-10 26 -45.5 46.5t-68.5 26.5q-27 -133 -66 -239q107 -113 138 -194t-6.5 -139.5t-109.5 -58.5t-143 55
q-21 -60 -24 -60q-9 0 -13 11t18 70q-35 41 -53 88q-33 84 -10 186q1 6 8 6q9 0 14 -9q2 -5 1 -7l-1 1q-21 -102 9 -180q16 -39 37 -64q20 60 98 281q-60 64 -82 121q-27 70 7.5 113.5t119.5 43.5q11 0 35 -2q0 3 2.5 11t3.5 14zM439 247q-29 75 -118 170
q-15 -45 -49.5 -137.5t-49.5 -141.5q59 -55 123 -55q61 0 91 47t3 117zM312 478h1q44 124 62 216q-84 0 -114.5 -34t-6.5 -96q17 -45 58 -86z" />
    <glyph glyph-name="percent" unicode="%" horiz-adv-x="588" 
d="M448 121q-19 -13 -43.5 -9t-38.5 27q-27 44 -10 95q-13 15 -21 28q-10 15 -14 26q-36 -272 -30 -316l-1 1q0 -9 -6 -12q-10 -6 -16 4q-20 32 40 463l-1 -1q-8 48 -38 97q-14 -24 -37 -38q-42 -26 -65 12q-22 31 -18 87.5t39 77.5q20 14 43 10t37 -27q27 -43 12 -95
q7 -7 19 -26q11 -18 18 -36q52 335 88 356q5 3 6 0q5 -9 -3 -26q-25 -82 -79 -472l1 2q8 -50 25 -77q3 -6 11 -14q19 29 38 41q42 28 65 -11q23 -34 18 -90t-39 -77zM447 273q-13 15 -27 7q-30 -19 -40.5 -57t6.5 -67q22 -33 48 -15q23 14 27.5 57t-14.5 75zM188 513
q20 -20 36 -10q21 13 30 60t-4 68q-20 31 -49 13q-23 -14 -27.5 -57t14.5 -74z" />
    <glyph glyph-name="ampersand" unicode="&#x26;" horiz-adv-x="747" 
d="M529 417q1 8 7 10q10 6 15 -7q-18 -159 -79 -263q46 -17 83 1q41 19 59 72.5t5 120.5q-3 10 7 14q9 5 15 -6q14 -77 -7 -138t-70 -83q-45 -22 -105 -2q-55 -84 -120 -115q-54 -23 -100.5 -6.5t-69.5 65.5q-16 42 -16.5 94t27.5 124t82 146q-6 109 22.5 221t95.5 143
q24 11 45.5 4.5t31.5 -28.5q16 -36 -5 -91t-46.5 -91.5t-77.5 -103.5q-3 -4 -5.5 -7t-4.5 -6l-19 -24q6 -94 39 -167q43 -93 116 -130q58 103 75 253zM338 47q54 26 102 95q-88 37 -137 145q-25 53 -37 124q-41 -70 -61 -134t-18 -107t15 -77q19 -41 56 -53.5t80 7.5z
M298 490l5 9v-1q18 22 29 36.5t28 36.5t27 38t22.5 36.5t19 36.5t11.5 33t4 31.5t-6 26.5q-14 29 -43 16q-46 -22 -72.5 -114.5t-24.5 -184.5z" />
    <glyph glyph-name="quotesingle" unicode="'" horiz-adv-x="308" 
d="M150 482q0 9 10 45.5t10 51.5q0 5 6 8.5t14 3.5q18 0 18 -20q0 -29 -18.5 -64t-32.5 -35q-7 0 -7 10z" />
    <glyph glyph-name="parenleft" unicode="(" horiz-adv-x="409" 
d="M300 759q-73 -28 -115 -247q-20 -105 -21 -215.5t25 -193.5q10 -26 26 -42.5t34 -9.5q8 3 19.5 12.5t12.5 10.5q5 2 5 -1q3 -6 -10.5 -24t-28.5 -24q-58 -24 -92 61q-30 95 -26.5 225t29.5 241q20 87 53.5 147t75.5 77q18 7 21 -1q4 -11 -8 -16z" />
    <glyph glyph-name="parenright" unicode=")" horiz-adv-x="432" 
d="M165 29q63 25 110 246q20 105 20.5 214.5t-26.5 193.5q-25 65 -61 50q-3 -1 -9 -4.5t-8 -4.5q-16 -6 -21 3q-2 7 5.5 15.5t22.5 14.5q72 29 105 -56q31 -95 28 -225.5t-29 -240.5q-46 -193 -130 -226q-17 -7 -21 1q-2 4 2.5 10t11.5 9z" />
    <glyph glyph-name="asterisk" unicode="*" horiz-adv-x="405" 
d="M284 706q13 2 16.5 -7.5t-7.5 -14.5l-34 -24q14 -2 30 -9.5t16 -16.5q0 -6 -4.5 -10t-9.5 -4q-15 0 -46 24q0 -14 2 -27.5t2 -28.5q0 -6 -5 -10t-11 -4q-12 0 -12 32q0 5 -0.5 12.5t-1.5 13t-1 6.5q0 2 -11 -4.5t-26 -14.5t-20 -8q-10 0 -10 11q0 13 59 38l-38 21
q-4 3 -4 8q0 13 13 13q8 0 21 -10.5t16 -11.5l-7 37q0 7 5.5 11.5t11.5 4.5q14 0 14 -57q0 6 17 17q10 6 25 13z" />
    <glyph glyph-name="plus" unicode="+" horiz-adv-x="563" 
d="M289 294q3 7 13 7q11 0 14 -8q0 -1 1 -2l-5 -101q34 0 91 -4t59 -9q2 -3 0 -7t-8 -4h-21t-45.5 0.5t-75.5 0.5q7 -115 -14 -115q-10 0 -14 11q-2 3 -1 4l-1 100q-63 -2 -113 -11q-11 0 -15 9q-7 17 106 24q13 1 24 1q0 34 5 104z" />
    <glyph glyph-name="comma" unicode="," horiz-adv-x="326" 
d="M165 142h-4q-11 0 -11 6q0 7 19.5 18t19.5 22v14q0 5 6.5 10.5t13.5 5.5q17 0 17 -27q0 -16 -19.5 -31.5t-41.5 -17.5z" />
    <glyph glyph-name="hyphen" unicode="-" horiz-adv-x="523" 
d="M158 404q-8 0 -8 7q0 5 3.5 9.5t8.5 4.5q2 0 30.5 2t69 4t71.5 2q90 0 90 -17q0 -4 -4.5 -8t-8.5 -4q-36 0 -94.5 -1.5t-82.5 -1.5q-39 0 -75 3z" />
    <glyph glyph-name="period" unicode="." horiz-adv-x="234" 
d="M122 203q4 0 8 -3.5t4 -9.5q0 -9 -7 -15.5t-16 -6.5q-11 0 -11 11q0 8 7 16t15 8z" />
    <glyph glyph-name="slash" unicode="/" horiz-adv-x="392" 
d="M286 717q-27 -74 -95 -429.5t-64 -410.5q0 -7 -6 -11q-11 -4 -17 5q-6 12 -2 42q11 136 68.5 429.5t90.5 373.5q6 14 22 25q6 3 8 0q3 -5 -5 -24z" />
    <glyph glyph-name="zero" unicode="0" horiz-adv-x="540" 
d="M242 569q-3 -5 -9 -5q-11 0 -14 10q-3 12 14 34h-1v1q-35 -26 -60.5 -119.5t-29 -188t12.5 -164.5q19 -60 58 -60q41 0 89 54q61 66 95.5 221.5t7.5 243.5q-10 35 -28 52t-36 17q-30 0 -59.5 -34t-39.5 -62zM243 624q38 61 92 61q26 0 52.5 -22.5t39.5 -66.5
q29 -94 -6.5 -254t-99.5 -227q-60 -64 -114 -63q-28 0 -53 22t-39 69q-30 95 -3.5 256t84.5 222q12 12 28 12q13 0 19 -9z" />
    <glyph glyph-name="one" unicode="1" horiz-adv-x="335" 
d="M101 608q11 34 27.5 55t34.5 21q27 0 48 -41q23 -45 23 -125t-14 -154.5t-28 -162.5t-13 -135q0 -14 -12 -14q-14 0 -22 16q-4 9 -3 20q4 49 18 134.5t25.5 150t11.5 139.5t-19 126q-11 17 -20 17q-7 0 -13.5 -8.5t-10 -18t-6.5 -19.5l-4 -10q-3 -4 -8 -4q-12 0 -15 7
q-1 3 0 6z" />
    <glyph glyph-name="two" unicode="2" horiz-adv-x="701" 
d="M267 648q-18 -15 -26 -42t-2 -54q1 -4 -1.5 -8t-7.5 -4q-6 0 -10 8q-14 22 -9.5 45.5t15 41.5t24.5 30q25 21 61 21q48 0 74 -45q20 -42 20 -97.5t-17.5 -123.5t-39.5 -125t-46 -103h26q53 0 156.5 -14.5t114.5 -32.5q3 -5 1 -8.5t-7 -3.5h-2q-164 40 -255 40
q-32 0 -46 -2q-39 -63 -77 -92.5t-66 -29.5q-29 0 -41 22q-10 13 -3.5 31.5t21.5 36t50 32t82 19.5q23 43 46 98.5t43.5 125t22 125t-17.5 97.5q-16 28 -42 28q-23 0 -41 -16zM134 72q25 0 54 28t51 65q-42 -8 -71 -25t-39 -34.5t-2 -30.5q1 -3 7 -3z" />
    <glyph glyph-name="three" unicode="3" horiz-adv-x="709" 
d="M122 460q-4 -4 -8 -4q-7 0 -12 9q-2 6 -2 10q155 204 400 204q91 0 106 -28q12 -24 -37.5 -68t-142.5 -106q-85 -56 -88 -66q6 0 42 6t80 6q65 0 83 -34q26 -50 -25 -133.5t-129.5 -146t-127.5 -62.5q-36 0 -52 29q-12 30 -8.5 68.5t18.5 76.5q6 4 10 4q8 0 11 -6
q1 -2 1 -8q-14 -34 -17 -71.5t7 -56.5q7 -13 18 -13q53 0 122 64t110.5 140.5t23.5 110.5q-8 16 -48 16q-35 0 -60 -6t-49 -6q-37 0 -44 16q-7 14 36 48.5t98 69.5t97.5 71.5t33.5 52.5q-6 12 -64 12q-241 0 -383 -199z" />
    <glyph glyph-name="four" unicode="4" horiz-adv-x="525" 
d="M297 410q54 256 112 256q9 0 14 -6q5 -11 -3 -19q-47 -65 -72.5 -164.5t-43.5 -217.5t-39 -181q-7 -20 -28 -20q-9 0 -13 7q-2 5 -1 17q18 42 29 91t21 113t16 92q-14 -12 -57 -29.5t-77 -17.5t-48 23q-17 30 10 95.5t61.5 117t73.5 102.5q21 16 31 16q11 0 15 -9
q2 -2 -46 -68t-90.5 -142t-27.5 -103q3 -6 16 -6q20 0 56.5 11t63.5 24t27 18z" />
    <glyph glyph-name="five" unicode="5" horiz-adv-x="706" 
d="M589 658q11 -2 14 -7q5 -9 -1.5 -12t-18.5 -3q-17 0 -63 2.5t-72 2.5q-87 0 -117 -23q-8 -7 -18 -45t-20.5 -88.5t-17.5 -71.5q59 31 137 31q107 0 145 -68q16 -34 17 -75.5t-19.5 -85t-50.5 -79t-76.5 -58.5t-96.5 -23q-65 0 -121 32.5t-83 80.5q-24 37 -14.5 78.5
t55.5 68.5q14 -1 20 -11q3 -6 -3 -9q-40 -23 -48.5 -57.5t11.5 -65.5q23 -40 70 -67t100 -27q42 0 82.5 21t68 54t47 73t20 77.5t-13.5 67.5q-28 50 -111 50q-84 0 -147 -46q6 -18 -6.5 -33t-26.5 -15q-10 0 -13 7q-4 7 0 27q2 8 12.5 56.5t20.5 89.5t23.5 81t23.5 48
q36 27 134 27q30 0 79 -3t62 -3q12 0 16 1z" />
    <glyph glyph-name="six" unicode="6" horiz-adv-x="647" 
d="M511 677q5 -5 6 -7q1 -4 -3.5 -7t-10.5 -3q-4 0 -12 3t-13 3q-49 0 -116 -89t-116 -197t-59 -175q164 204 272 204q58 0 80 -51q16 -39 -1 -92.5t-70.5 -108t-130.5 -83.5q-48 -18 -83 -18q-74 0 -104 69q-28 -36 -38 -36q-8 0 -11 8q-2 4 41 59q-1 81 51 208.5
t130.5 227t142.5 99.5q25 0 45 -14zM185 166q3 -23 9 -37q19 -45 69 -45q24 0 65 15q69 25 115.5 74.5t61 98.5t0.5 83q-13 30 -48 30q-99 0 -262 -207q-7 -8 -10 -12z" />
    <glyph glyph-name="seven" unicode="7" horiz-adv-x="555" 
d="M114 641q-8 0 -12 7q-3 4 -0.5 9.5t8.5 5.5q39 0 108.5 10.5t106.5 10.5q66 0 79 -30q2 -5 2.5 -10.5t-0.5 -14t-3.5 -16t-7 -20.5t-9 -23.5t-12.5 -28.5t-14 -32t-17 -37.5t-19 -41.5q43 10 83 10t47 -15q2 -4 -1.5 -8t-9.5 -4q-4 0 -18.5 4t-22.5 4q-14 0 -29.5 -3
t-34 -8t-25.5 -6q-94 -213 -108 -328q-1 -13 -11 -16q-12 0 -20 19q-5 11 -4 21q14 104 98 295q-50 -10 -86 -10q-51 0 -61 23q-10 20 12 52q3 3 7 3q10 0 13 -8q2 -3 0 -8q-15 -26 -12 -34q4 -8 31 -8q60 0 105 15q75 171 90 209q3 14 -1 21q-6 14 -49 14
q-38 0 -103.5 -11.5t-99.5 -11.5z" />
    <glyph glyph-name="eight" unicode="8" horiz-adv-x="470" 
d="M153 523q0 -8 -8 -8q-9 0 -13 9l-1 1q-1 1 -1 2q-4 63 48.5 111t109.5 48q51 0 72 -41q8 -23 10 -44t-8.5 -50t-21.5 -52.5t-28.5 -50.5t-30.5 -44.5t-27 -34.5q15 -34 23 -85.5t7 -103t-22.5 -88t-60.5 -36.5q-24 0 -47.5 15.5t-37.5 41.5q-13 24 -14 51t3 46.5t22 49.5
t27 43t35.5 45t31.5 38q-11 16 -43 51.5t-42 53.5q-3 10 8 10q10 0 13 -8q66 -70 77 -90q47 60 79.5 129t10.5 110q-11 21 -40 21q-45 0 -89.5 -43t-41.5 -97zM259 148q9 56 2 110t-23 93l-11 -16q-21 -25 -33 -41t-27.5 -42t-21 -46.5t-4.5 -46t14 -49.5q17 -31 43 -31
q43 0 61 69z" />
    <glyph glyph-name="nine" unicode="9" horiz-adv-x="589" 
d="M488 545q6 -87 -29.5 -207t-98 -212t-123.5 -92q-13 0 -31.5 6t-23.5 15q-2 4 2.5 7t11.5 3q4 0 12 -3t13 -3q49 0 104 89t88.5 197t34.5 175q-137 -204 -244 -204q-58 0 -87 51q-18 27 -14 67t21 79.5t58 77.5t97 60q28 10 65 10q95 0 129 -61q14 -23 15 -55zM444 559
q-7 24 -14 36q-26 46 -76 46q-24 0 -62 -15q-96 -38 -133.5 -120t-7.5 -136q16 -30 51 -30t71.5 22t67 57t53 66t42.5 61q5 9 8 13z" />
    <glyph glyph-name="colon" unicode=":" horiz-adv-x="302" 
d="M156 219q6 10 16 10q4 0 8 -3.5t4 -9.5q0 -9 -7 -15.5t-16 -6.5q-11 0 -11 11q0 6 6 14zM175 385q6 9 15 9q4 0 8 -3.5t4 -8.5q0 -9 -7 -15.5t-15 -6.5q-11 0 -11 11q0 6 6 14z" />
    <glyph glyph-name="semicolon" unicode=";" horiz-adv-x="324" 
d="M197 426q6 10 15 10q4 0 8 -3.5t4 -9.5q0 -9 -7 -15.5t-15 -6.5q-11 0 -11 11q0 6 6 14zM161 144q-11 0 -11 6q0 9 14.5 18.5t14.5 12.5q0 1 -0.5 6t-0.5 10t7.5 8.5t15.5 3.5q16 0 16 -19q0 -16 -17 -30t-39 -16z" />
    <glyph glyph-name="less" unicode="&#x3c;" horiz-adv-x="474" 
d="M370 521q-4 -4 -16 -13t-28 -19.5t-34.5 -23t-36 -24t-31.5 -21t-22 -15.5t-7 -7q8 -8 50 -29.5t77.5 -43t35.5 -32.5q0 -13 -16 -13q-192 89 -192 105q0 18 100.5 88t114.5 70q9 0 9 -10q0 -7 -4 -12z" />
    <glyph glyph-name="equal" unicode="=" horiz-adv-x="569" 
d="M126 367q-9 0 -9 8q0 5 4 9t9 4q2 0 39.5 2.5t92 5t96.5 2.5q111 0 111 -17q0 -5 -5 -9t-11 -4q-50 7 -106 7q-38 0 -111.5 -4t-109.5 -4zM109 239q-9 0 -9 8q0 13 13 13l89 5q88 5 143 5q107 0 107 -17q0 -5 -5 -9t-10 -4q-39 7 -84 7q-33 0 -98.5 -5t-97.5 -5t-48 2z
" />
    <glyph glyph-name="greater" unicode="&#x3e;" horiz-adv-x="523" 
d="M290 519q-2 3 -2 8q0 10 15 10q16 0 68 -58t52 -87q0 -11 -24 -25.5t-61.5 -29.5t-71.5 -27t-66.5 -22t-34.5 -11q-15 0 -15 10q0 5 9 10q156 74 221 99q-11 25 -45 64.5t-45 58.5z" />
    <glyph glyph-name="question" unicode="?" horiz-adv-x="515" 
d="M162 392q-2 -5 -8 -5q-13 0 -15 8q-1 3 0 6q-2 119 52 200.5t118 81.5q62 0 92 -78q16 -42 13 -81.5t-20.5 -71t-43 -63.5t-54.5 -58.5t-55 -56.5t-45 -57.5t-23.5 -61.5t8.5 -69q4 -10 5 -18t0 -11.5t-4 -3.5q-12 0 -24 31q-14 37 -10 72.5t22 64.5t43 60t53 58.5
t52.5 59.5t41 64t19 71.5t-13.5 81.5q-16 41 -52 41q-53 0 -102.5 -77t-48.5 -188zM177 18q3 9 14 9q12 0 17 -12q3 -9 -2 -15.5t-13 -6.5q-13 0 -16 10q-2 6 0 15z" />
    <glyph glyph-name="at" unicode="@" horiz-adv-x="864" 
d="M437 340q0 3 10 68l5 34q-19 15 -38 15q-64 0 -103.5 -76t-23.5 -121q6 -18 25 -18q24 0 62.5 30.5t62.5 67.5zM399 482q30 0 57 -18q5 12 20 22t23 10t11 -9q2 -6 -1 -27q-8 -35 -11.5 -52t-9 -50t-4.5 -58t8 -44q15 -43 55 -43q62 0 103 37.5t54.5 91t13.5 106.5
t-13 90q-28 79 -94 131.5t-151 52.5q-62 0 -118.5 -23.5t-96 -63t-71 -90t-44 -105t-15 -108t15.5 -98.5q25 -70 86.5 -111.5t156.5 -41.5q102 0 248 55q11 -2 14 -10q2 -10 -3 -11q-145 -55 -255 -55q-105 0 -172 46t-96 125q-17 47 -17 104t15 114t46.5 111.5t74 96
t102 67t126.5 25.5q101 0 184.5 -59t108.5 -149q13 -45 13.5 -94.5t-13 -97.5t-39 -86t-70 -61.5t-100.5 -23.5q-65 0 -92 74q-8 22 -10 47q-30 -35 -65.5 -57.5t-60.5 -22.5q-43 0 -60 45q-17 48 1 99.5t59 85t86 33.5z" />
    <glyph glyph-name="A" unicode="A" 
d="M-48 -26q-6 -5 -12 3q-4 7 4 11q65 39 293 482q-142 -58 -265 -99q-5 -1 -8 2.5t-2 8t6 5.5q123 41 281 106l33.5 67t31.5 62q7 14 28.5 56.5t30.5 59.5q9 21 18.5 35.5t20 20.5t20.5 -2t19 -32q26 -67 41 -169q105 42 181 61q8 2 10 -6t-7 -11q-77 -21 -181 -62
q10 -68 13 -115q18 -202 13 -440q14 20 21 41q2 9 10 5q8 -2 6 -10q-25 -84 -50 -81q-26 4 -29 93v21q2 221 -17 407q-1 9 -3.5 30.5t-4.5 32.5q-1 0 -194 -78q-237 -463 -308 -505zM329 615q-26 -53 -56 -112q96 40 178 72q-18 124 -47 187q-8 -14 -75 -147z" />
    <glyph glyph-name="B" unicode="B" horiz-adv-x="947" 
d="M514 477q-41 -31 -63 -58t-26 -53t-1.5 -41.5t10.5 -42.5q8 -26 11 -40.5t1.5 -38t-13.5 -45.5q-5 -6 -11.5 -3.5t-4.5 10.5q9 34 -12 98q-9 28 -13 43.5t-3.5 42.5t11 46.5t36.5 45t68 50.5q8 4 12 -2.5t-2 -11.5zM321 639q-6 -5 -12 1q-5 7 2 12q84 65 181 104.5
t192.5 43.5t167.5 -45q35 -24 42 -63.5t-13 -74.5q-45 -87 -204 -182q-32 -18 -37 -21q143 38 199 0q28 -19 32.5 -54t-5 -64.5t-26.5 -56.5q-63 -109 -178 -174t-244 -81q-73 -9 -153 4t-143.5 48.5t-81 95t33.5 143.5q128 201 657 413q7 4 11 -5q3 -7 -5 -11
q-524 -209 -649 -406q-49 -79 -31.5 -134t79.5 -86.5t137.5 -42.5t142.5 -2q127 15 231 86t154 157q62 109 3 153q-7 5 -16 8t-18 5t-21.5 1.5t-21.5 -1.5t-23.5 -4t-22 -4.5t-23 -6.5t-21 -6.5t-21 -6.5t-17.5 -6q-65 -19 -71 -9q-4 6 20 23t94 58q191 112 210 210
q7 41 -20 70q-44 47 -116 54t-147 -17.5t-138.5 -57.5t-109.5 -68z" />
    <glyph glyph-name="C" unicode="C" horiz-adv-x="770" 
d="M82 545q-4 -8 -11 -3t-3 12q89 130 181 164.5t196 4.5q35 29 71 44q60 25 114.5 27t92.5 -12.5t67 -41.5q45 -42 55 -92q12 -53 -21 -76q-35 -24 -97 3q-35 16 -105 52q-104 54 -156 72q-66 -59 -121 -153q-46 -79 -75 -167.5t-33 -166.5q-11 -94 22 -156
q14 -28 35 -41.5t41 -15t47 7.5t45.5 18.5t44.5 25.5q66 40 152 114q49 42 146 135q4 4 8.5 2t5.5 -6t-3 -8q-87 -85 -146 -135q-90 -78 -155 -117q-147 -88 -223 -36q-37 25 -52 77q-17 53 -12 134q11 168 111 341q57 98 124 158q-95 23 -179.5 -11.5t-166.5 -153.5z
M481 711q39 -14 149 -69q75 -39 104 -51q53 -24 80 -5q23 17 15 59q-10 45 -50 82q-47 43 -112.5 47.5t-117.5 -21.5q-36 -15 -68 -42z" />
    <glyph glyph-name="D" unicode="D" horiz-adv-x="1008" 
d="M493 155q-4 -6 -11 -2q-7 3 -3 11q10 19 11.5 40.5t-1.5 34.5t-10 36q-8 24 -11 37.5t-2.5 37t10 42.5t31.5 44.5t58 52.5q7 5 11.5 -1.5t-0.5 -11.5q-34 -27 -52.5 -53t-22 -53t-2 -43.5t8.5 -44.5q10 -29 9 -63.5t-24 -63.5zM271 633q-7 -4 -12 3q-3 7 4 12
q234 129 393 134h2q119 9 189 -44q65 -49 82 -135q28 -138 -50 -286.5t-200 -232.5q-104 -74 -241.5 -93.5t-252.5 20.5q-57 22 -92.5 55t-47 79.5t17.5 102.5q46 97 210 209.5t460 230.5q7 4 11 -5q4 -7 -5 -11q-293 -117 -454 -227t-207 -204q-36 -74 0 -130.5t113 -83.5
q112 -36 237 -15t215 84q108 75 174.5 192t73.5 230q5 80 -27.5 143t-98.5 89q-169 63 -494 -117z" />
    <glyph glyph-name="E" unicode="E" horiz-adv-x="729" 
d="M682 714q55 -68 -11 -77q-41 -5 -101 13q-73 23 -129 35q-2 -25 10 -51q23 -56 92 -108q37 -30 43 -40q5 -8 3 -15t-12 -8q-10 0 -28 5t-32.5 11t-34.5 14l-25 10q-69 25 -137 -57q-54 -64 -80 -166q-16 -61 -16 -114q0 -82 39.5 -128.5t114.5 -21.5q125 42 351 284
q3 4 8 3t6.5 -5.5t-1.5 -8.5q-53 -57 -89.5 -93.5t-91.5 -86t-105.5 -80t-94.5 -41.5q-85 -21 -131.5 31.5t-48.5 138.5q-2 90 34 181q38 100 105 154.5t144 24.5q46 -18 73 -32q1 0 1 1q-4 3 -9 6.5t-12 9t-11 8.5q-119 91 -108 181v1q-58 9 -104 6q-174 -11 -261 -172
q-3 -7 -11 -3t-3 12q90 167 274 180q47 3 109 -6q8 28 28 48q28 27 68 34q103 20 184 -78zM477 755q-26 -21 -33 -50l-1 -3q51 -10 132 -36q112 -33 112 0q0 13 -18 37q-24 30 -55 49.5t-68 24t-69 -21.5z" />
    <glyph glyph-name="F" unicode="F" horiz-adv-x="578" 
d="M160 758q8 2 10 -6t-6 -10h-1q26 1 87 5q38 2 197 13q11 36 41 47q10 4 22 1q18 -9 18 -43q265 17 318 17q6 0 8 -4t-0.5 -8.5t-7.5 -4.5q-53 0 -102.5 -2.5t-127 -8.5t-92.5 -7q-12 -42 -55 -105q-2 -12 -4.5 -27.5t-5 -34.5t-4.5 -31q-2 -20 -8 -62q90 24 198 24
q9 0 9 -8q0 -9 -9 -9q-113 0 -201 -25q-25 -180 -53 -286q-26 -99 -69 -154q-22 -28 -48 -40q-39 -19 -70.5 6t-44.5 67q-15 40 -10.5 100t29.5 116q63 135 223 195q2 12 5.5 38t5.5 39l4 27q-54 -58 -117 -94q-109 -59 -212 -25q-9 2 -5 10q2 8 10 6q95 -33 198 24
q68 37 130 109q15 103 23 135h-3q-311 -25 -316 -4q-2 5 7 10.5t29 9.5zM492 763l19 1q1 9 0 15q0 15 -15 -9zM506 746l-19 -1q-10 -42 -15 -74q3 9 17 35.5t17 39.5zM348 185q24 89 50 269q-146 -57 -204 -183q-24 -53 -28.5 -110t9.5 -94q12 -38 33.5 -55t45.5 -3
q54 28 94 176z" />
    <glyph glyph-name="G" unicode="G" 
d="M323 584q38 19 62 52.5t27.5 65t-21.5 55t-77 23.5q-74 -13 -131.5 -76.5t-72.5 -136.5q-4 -24 0.5 -38t13.5 -19t24 -4t27.5 4.5t29.5 10.5q46 19 118 63zM404 634q25 15 49 31q46 29 67 41t67 27t74 5q24 -8 36 -33.5t11.5 -59.5t-3.5 -59t-9 -50q87 -27 109 -123
q1 -5 -2 -8t-8 -2t-6 6q-23 88 -97 111q-35 -130 -105 -254t-162 -197q-111 -87 -227 -81q-93 4 -129 66q-45 77 34 191q15 21 33 42q43 49 118 103t158 94q154 74 242 59q19 86 4 143q-4 17 -14 25.5t-25 8t-29.5 -4t-34.5 -13t-34 -17.5t-33 -19t-26 -15q-33 -24 -131 -83
q-24 -15 -120 -63q-36 -14 -66 -16t-51.5 8.5t-27.5 36t6 66.5q24 80 94.5 138t150.5 60q78 -3 105 -52t-18 -112zM650 527q-92 8 -230 -58q-81 -39 -154.5 -92t-116.5 -101q-107 -122 -70 -200q26 -56 110 -62q98 -8 187 57q6 5 12 9q86 68 161 200t101 247z" />
    <glyph glyph-name="H" unicode="H" horiz-adv-x="803" 
d="M617 359q-63 -18 -180 -44q-54 -12 -114 -29q-2 -6 -5 -18q-13 -48 -21.5 -73.5t-25 -63t-39 -63.5t-53.5 -47q-75 -47 -139.5 -28t-63.5 73.5t73 116.5q81 59 231 107q34 136 101 475l-12 -12l-17 -17l-17 -17q-42 -44 -109.5 -114.5t-129 -135.5t-74.5 -78q-3 -4 -8 -3
t-6 5.5t2 8.5q105 113 313 329q25 25 34 35q25 27 41 34q6 3 13 3.5t12.5 -3t5.5 -10.5q0 -1 -2 -11.5t-4 -19.5q-53 -279 -96 -455q52 16 107 27q140 32 187 47q9 35 30.5 122.5t32.5 133.5q-4 72 10 140q7 26 24 32.5t29.5 -9t7.5 -42.5q-10 -55 -43 -188q1 -5 17 -59
q9 -25 12 -36.5t3.5 -28t-8 -26.5t-26 -21t-46.5 -22q-77 -317 -61 -332v0v2q0 2 1 3q7 5 12 0q7 -6 1 -12q-49 -51 -47 45q4 104 47 279zM704 717q13 44 10 56q-8 -27 -10 -56zM714 503q-2 5 -6 16.5t-5 14.5q-5 -20 -17 -69t-17 -71q49 21 55.5 46.5t-10.5 62.5zM275 271
q-151 -48 -229 -111q-73 -59 -53 -110q15 -37 66 -42q63 -7 115 44q12 11 22 24t17.5 24t15 28t11.5 26.5t10.5 29.5t8.5 28t8 30.5t8 28.5z" />
    <glyph glyph-name="I" unicode="I" horiz-adv-x="589" 
d="M465 757q-7 -27 -15 -75q2 4 4 7q18 31 26 54q9 23 4.5 37.5t-15.5 -13.5zM491 726q-15 -32 -23 -46q-13 -23 -25 -38q-1 -8 -5.5 -41t-7.5 -52q-4 -31 -14 -97q43 -8 70 -44q28 -35 38 -103q1 -3 -1.5 -6t-5.5 -3q-8 -2 -10 7q-9 62 -34 95q-25 31 -59 37
q-27 -174 -48 -252q-41 -150 -114 -189q-42 -21 -74 3t-45 66q-10 39 -10.5 83t17 97.5t51.5 98.5q45 59 120 93q32 14 62 18q2 14 6.5 47t7.5 50l3 27q-53 -57 -117 -94q-108 -59 -211 -25q-9 2 -5 10q2 8 10 6q95 -33 198 24q68 37 130 109q15 112 27 153q10 41 40 48
q26 6 37 -19q9 -24 -8 -63zM322 185q25 92 48 250q-24 -3 -52 -16q-71 -31 -113 -87q-48 -63 -61.5 -140t5.5 -124q10 -34 31.5 -54.5t48.5 -4.5q54 30 93 176z" />
    <glyph glyph-name="J" unicode="J" horiz-adv-x="895" 
d="M834 694q-3 -4 -7.5 -2.5t-6.5 5t1 7.5q7 14 -4 20q-28 15 -136 17q-10 -105 -53 -245q96 2 155 -49t74 -145q-1 -10 -11 -9q-6 0 -6 7q-19 95 -74.5 140t-142.5 38q-60 -198 -95 -276q-47 -103 -103 -153q-40 -36 -78.5 -45.5t-66.5 18.5t-30 97q-2 80 43.5 165.5
t140.5 145.5q72 45 149 60q48 177 55 251q-175 -3 -483 -35q-74 -8 -75 1q-2 10 43 16q349 64 541 75q18 -4 18 -36q117 -2 148 -24q24 -17 4 -44zM394 748q149 13 245 14q0 14 -1 16q-143 -15 -244 -30zM578 471q-74 -16 -135 -56q-91 -57 -134.5 -138.5t-41.5 -157.5
q2 -64 27 -84t56.5 -3.5t63.5 54.5q37 46 72 124.5t49.5 123t42.5 137.5z" />
    <glyph glyph-name="K" unicode="K" horiz-adv-x="919" 
d="M179 249q-7 -4 -11 4q-4 7 4 11q55 28 104 43q15 70 53 255q-49 -49 -102 -79q-108 -59 -211 -25q-8 2 -6 10q3 8 11 6q95 -33 198 24q62 35 117 95q3 14 10 50t12 59.5t15 50.5t23 41q34 36 51 8q16 -28 0 -70q-17 -47 -59 -102q-30 -129 -66 -311q14 3 38 5
q63 111 141 192q143 146 308 169l18 3q9 2 9 -7q2 -8 -7 -10q-165 -22 -308 -167q-75 -74 -140 -180q33 2 57 -5t39 -25t24.5 -35t13.5 -48t5.5 -49.5t2.5 -52.5q2 -76 11 -96q14 -30 54 -12q86 39 331 299q4 4 9 2.5t6 -5.5t-2 -8q-253 -268 -345 -304q-32 -15 -56.5 -6.5
t-34.5 47.5q-6 23 -10 86q-4 100 -24 141q-26 54 -92 54q-50 -86 -85 -184q-11 -61 -19 -125q-4 -15 -15 -16t-19.5 9t-6.5 22q13 100 48 275q-41 -13 -94 -39zM350 306q-20 -2 -31 -5q-12 -62 -18 -91q26 56 49 96zM419 757q-6 -18 -21 -83q22 29 36 71q11 31 0 36
q-5 2 -11 -10z" />
    <glyph glyph-name="L" unicode="L" horiz-adv-x="997" 
d="M650 749q-29 -24 -48 -67q-7 -14 -12 -32q124 45 241 78q-13 20 -30 31q-39 26 -78.5 23t-72.5 -33zM586 631q-15 -74 10 -268q12 -98 14 -142q2 -35 -1 -60q37 -13 102 -46q20 -10 52.5 -29t51 -28.5t48 -20.5t56 -10.5t62.5 5.5t80 24t97 49q7 4 12 -3q4 -7 -3 -12
q-64 -36 -117 -55t-87.5 -25t-75 4t-59.5 18.5t-62 33t-63 34.5q-53 28 -96 44q-6 -48 -27 -89q-38 -70 -121 -84q-66 -11 -105 21q-44 36 0 94q15 21 41 42q79 64 172 46q1 21 0 45q-2 52 -15 140q-22 178 -12 254q-257 -98 -490 -227q-6 -5 -12 3q-4 7 4 11
q242 135 501 232q4 28 17 55q35 77 108.5 104.5t141.5 -18.5q24 -16 38 -40q54 14 82 20q61 15 116 21q49 5 54 -12q11 -22 -82 -91t-184 -122q-43 -24 -59 -31q-35 -16 -31 -1q1 5 6 13q4 7 33 32q79 64 63 134q-4 12 -6 17q-108 -29 -254 -82zM539 60q21 39 27 96
q-86 19 -161 -41q-73 -59 -49 -100q17 -30 71 -27q66 4 103 58q5 6 9 14zM934 737q-12 -3 -78 -19l6 -18q19 -79 -68 -151q-2 -2 -5 -4.5t-4 -3.5q37 20 40 22q84 49 168 110t91 85q-6 2 -36 -1q-39 -3 -114 -20z" />
    <glyph glyph-name="M" unicode="M" horiz-adv-x="991" 
d="M57 465q-3 -4 -7.5 -3t-5.5 5.5t1 8.5q18 25 118 139.5t121 160.5q16 34 35 34t13 -38q-16 -124 -60 -376q-21 -114 -42 -249q6 20 20 60q48 133 106 240q30 54 49 76q8 9 17 14.5t18 4.5t15 -13q6 -16 7.5 -37.5t0.5 -35.5t-4.5 -42t-4.5 -35q-8 -66 -6 -77q22 28 65 99
q132 215 216 301q142 146 180 73q7 -14 9 -35t-1.5 -52.5t-7.5 -58.5t-14 -73t-17 -73.5t-20 -81.5q-57 -237 -62 -314q-5 -102 19 -83l12.5 12.5t13 15.5t11.5 15.5t12 19t10 18t10.5 20t9.5 17.5t10 18l7 16q2 4 7 4t7 -3.5t0 -8.5q-52 -112 -97 -155q-25 -18 -40 -14.5
t-23.5 26t-11 43.5t-1.5 38q6 92 68 335q20 79 30.5 123t21.5 100t10 87t-12 42q-26 26 -129 -83q-86 -87 -213 -298q-49 -80 -72 -103q-44 -37 -47 18q-1 19 4 82q1 7 3 28.5t3 34.5t1 30t-3 28l-1 1q-19 -22 -45 -72q-54 -100 -105 -237q-48 -134 -59 -210q-14 -2 -28.5 1
t-12.5 15q21 155 62 389q42 236 58 351q-33 -49 -69 -94.5t-89.5 -106.5t-70.5 -82z" />
    <glyph glyph-name="N" unicode="N" 
d="M123 386q42 236 52 310q-48 -75 -128 -178q-4 -6 -12.5 -17t-11.5 -16q-5 -5 -11.5 -1t-2.5 11q7 8 25 33q171 226 176 270l16 -2q-13 -123 -65 -416q-34 -198 -36 -208q110 229 281 444q118 147 182 175q33 18 61.5 4.5t29.5 -63.5q1 -72 -47 -293t-54 -260
q-25 -155 -6 -172q7 -2 13.5 -1t19.5 14t22.5 23.5t23 28.5t20.5 28.5t16 23.5l9 12q3 4 8 3.5t7 -4.5t-1 -9q-1 -1 -12 -17t-21 -29t-25.5 -32.5t-29.5 -31.5t-29 -22t-27.5 -8.5t-21.5 13.5q-30 35 -6 181q11 73 51 246t48 268q4 40 -1 61.5t-17 24t-30 -6.5
q-63 -34 -170 -168q-87 -110 -172.5 -248t-131.5 -246q-15 -83 -19 -119q0 -6 -9.5 -7.5t-18.5 2t-8 11.5q16 134 63 388z" />
    <glyph glyph-name="O" unicode="O" horiz-adv-x="748" 
d="M417 769q-27 11 -53.5 5t-48 -17.5t-42 -35t-36 -46t-29.5 -51t-23.5 -51t-16.5 -44.5q-17 -52 -29 -108t-19.5 -119.5t-0.5 -118.5t25.5 -99t60.5 -67t103 -17q112 8 191.5 92.5t119.5 201.5q52 151 45 283q-4 78 -39 139.5t-101 66.5q-42 3 -87 -21q-106 -61 -161 -228
q-1 -4 4 -7q14 -4 51 -2q65 2 77 -14q28 -37 -178 -192q-6 -6 -11 1q-5 6 1 12q72 54 113.5 90.5t54 54t7.5 24.5q-7 9 -63 7q-47 0 -57 3q-22 8 -15 28q54 164 157 230zM435 780q46 23 90 20q52 -3 88.5 -42t50.5 -85t17 -95q7 -134 -46 -289q-43 -124 -127 -211.5
t-198 -94.5q-89 -7 -146 35.5t-76 114.5t-17.5 158t23 167t53.5 141q120 239 288 181z" />
    <glyph glyph-name="P" unicode="P" horiz-adv-x="795" 
d="M804 731q43 -84 -14 -206q-62 -134 -191.5 -200.5t-264.5 -30.5q-2 -10 -8 -44t-8.5 -47.5t-10 -42t-14.5 -45t-18.5 -37.5t-25.5 -38q-43 -48 -77 -38t-55.5 48t-23.5 80q-6 126 91 239q-23 16 -51 41q-6 6 0 12t12 0q19 -17 52 -42q61 54 119 66q5 36 15 104l3 27
q-56 -59 -117 -94q-108 -59 -211 -25q-5 1 -6 5.5t2.5 8t8.5 2.5q95 -33 198 24q71 39 129 109q17 116 28 153q10 37 34.5 46.5t39 -12t-0.5 -58.5q-12 -37 -52 -94q-4 -30 -7 -47q42 76 101 128q43 39 105 62.5t126 13.5t92 -68zM763 719q-26 51 -80 59t-104 -13t-87 -54
q-83 -72 -120 -174q-8 -56 -12 -85q58 -4 90.5 -44t41.5 -101q84 19 149.5 76.5t103.5 134.5q58 121 18 201zM293 308q-48 18 -95 51q-94 -104 -88 -230q1 -24 8 -46.5t18.5 -37.5t25.5 -20t31 6.5t33 39.5q11 19 19.5 40t14 36.5t11 41t8 37t7.5 42.5t7 40zM211 371
q42 -29 85 -46q12 68 17 103q-54 -19 -102 -57zM337 311q82 -20 139 -8q-25 132 -118 132q-19 -114 -21 -124zM393 682q25 42 32 63q9 30 1 37q-6 6 -13 -12l-4 -13q-6 -21 -16 -75z" />
    <glyph glyph-name="Q" unicode="Q" 
d="M29 191q-8 -3 -10.5 4.5t4.5 11.5q7 1 19.5 6.5t18.5 6.5q-3 46 -1.5 101t15 113.5t32 114.5t50 103.5t69 80.5t89.5 46.5t110 0.5q47 23 90 20q48 -3 85 -37q64 -61 71 -185q9 -134 -46 -289q-50 -144 -128 -213q-40 -37 -88 -61q95 -34 305 102q7 4 10 6q5 3 8.5 0.5
t3.5 -7t-3 -7.5q-252 -164 -360 -109q-115 -38 -206 20.5t-104 181.5q-6 -2 -34 -11zM284 102q-25 41 -40.5 61t-51 37.5t-82.5 11.5q14 -109 81 -170.5t164 -29.5q-28 21 -71 90zM108 231q41 6 73 -0.5t57.5 -28t38.5 -38t36 -50.5q43 -67 77 -89q50 21 96 63
q75 68 123 206q53 153 46 283q-7 118 -66 173q-33 30 -75 33t-87 -21q-104 -60 -161 -228q-1 -4 5 -7q13 -4 51 -2q65 2 76 -14q29 -36 -177 -192q-6 -5 -12 1q-5 7 2 12q72 54 113.5 90.5t54 54t6.5 24.5q-6 9 -63 7q-46 0 -57 3q-22 8 -15 28q56 165 158 230
q-68 1 -122 -37t-87 -96t-54.5 -132.5t-29.5 -142.5t-7 -130z" />
    <glyph glyph-name="R" unicode="R" horiz-adv-x="911" 
d="M911 300q3 4 8 3t6 -5.5t-2 -8.5q-156 -172 -214 -225q-86 -80 -120 -75q-55 1 -59 69q-3 51 19 133q22 132 -62 177q-46 -16 -85 -26q-25 -92 -51 -160q-41 -109 -95 -159q-35 -32 -76.5 -42.5t-81.5 11.5q-30 17 -48 59q-20 41 -11.5 105t49.5 120q5 7 12 2q5 -5 2 -12
q-38 -53 -46.5 -112t10.5 -97q13 -34 41 -51q29 -17 58 -7q80 23 144 187q23 60 46 145q-109 -28 -146 -16q-18 6 -14.5 17.5t12.5 21t19 14.5q67 39 150 42q2 11 13.5 57.5t18.5 76.5q-36 -31 -75 -53q-129 -76 -198 -53q-30 10 -39 37.5t-3 55t19 50.5q39 71 131.5 133
t225.5 86q152 30 234 -47q64 -61 52 -151q-12 -99 -107 -165q-53 -36 -123 -54q51 -31 68 -85.5t-1 -108.5q-25 -95 -25.5 -137.5t22.5 -45.5q14 -4 40.5 13t64 53.5t70 70t78.5 83.5t69 74zM500 395q127 24 185 121q49 82 22 163q-26 80 -110 103q-55 16 -125 2
q-129 -24 -218.5 -83.5t-126.5 -127.5q-48 -98 14 -119q60 -21 184 51q50 30 89 69q2 10 10.5 48t13.5 57t17 43t27 35q16 13 35.5 8t19.5 -27q0 -51 -72 -135q-15 -67 -45 -191q51 -3 80 -17zM461 380q-7 3 -23 6t-23 6q-2 -5 -4.5 -15t-3.5 -15q29 9 54 18zM372 393
q-75 -3 -137 -39q-4 -2 -7 -4t-9.5 -7t-6.5 -7t2 -5q13 -6 35.5 -4t37.5 5.5t37.5 9.5t35.5 8q2 7 6 21.5t6 21.5zM497 715q-8 -21 -22 -71q45 64 45 94q0 20 -20 -17q-3 -5 -3 -6z" />
    <glyph glyph-name="S" unicode="S" horiz-adv-x="639" 
d="M307 458q-8 -2 -10 7q0 9 7 9q141 26 261 56q110 27 182 56q95 37 108 78q10 30 -33 59q-43 28 -127 44q-190 34 -351 -38q-83 -38 -132 -96q-21 -25 -30.5 -51t-4 -52.5t13.5 -48t30.5 -50.5t37 -46t43.5 -48q20 -22 29 -32q8 3 23.5 8.5t22.5 7.5q149 53 201 84
q5 3 9 0.5t4 -7t-4 -7.5q-57 -34 -204 -86q-18 -6 -40 -14q29 -33 45.5 -59t26.5 -57.5t-3 -62t-48 -59.5q-85 -69 -196 -64q-87 4 -124 51q-42 55 28 126q15 15 34 30q60 45 190 96q-10 10 -30 32q-36 39 -54.5 60.5t-43 59.5t-30 65.5t2 63.5t35.5 69q83 100 233.5 133
t289.5 8q86 -16 133 -46q53 -36 39 -79q-14 -46 -118 -88q-73 -28 -184 -57q-101 -26 -262 -55zM308 278q-131 -48 -192 -96q-88 -68 -62 -124q20 -43 92 -51q93 -10 174 50q6 4 11 8q31 25 41.5 52.5t1 56.5t-24.5 51.5t-41 52.5z" />
    <glyph glyph-name="T" unicode="T" horiz-adv-x="593" 
d="M295 24q30 54 51.5 98t43.5 102.5t31 109t7 108.5t-21 110q-38 -163 -57 -254q-45 -209 -55 -274zM293 -13q-11 -23 -29.5 -17t-15.5 31q11 76 61 311q39 177 68 299q-50 71 -148 99q-173 -29 -229 -32q-46 -1 -57 14q-9 12 21 28q34 18 83.5 23.5t95.5 0.5t87 -17
q49 9 182 31l6 23q7 28 30 37q19 8 19 -11q0 -4 -1 -10l-8 -32q142 22 242 31t189.5 1t112.5 -43q5 -5 -2 -11q-7 -5 -12 2q-52 78 -534 2q-8 -30 -41 -167q31 -67 32.5 -147.5t-22 -160.5t-56 -149.5t-74.5 -135.5zM382 632q2 10 11.5 49t14.5 59l-144 -24q74 -29 118 -84z
M187 720q-137 27 -215 -15q-21 -11 9 -11q4 1 12 1h6q48 2 188 25z" />
    <glyph glyph-name="U" unicode="U" horiz-adv-x="765" 
d="M334 785q-83 -94 -144 -293q-60 -194 -47 -326q10 -87 55 -135t123 -12q135 56 241 249q19 142 74 396q22 95 50 129q9 11 17.5 15.5t16 -1.5t8.5 -26q0 -32 -7 -86q-27 -186 -107 -362q-8 -49 -14 -97t-9.5 -119.5t13.5 -107t54 -18.5q5 2 8.5 -1t3 -8t-4.5 -7
q-20 -8 -36 -8t-27.5 7t-20.5 19t-14 29t-8.5 35t-4.5 39t-1.5 39t1 37t2.5 31t2 23q-111 -172 -230 -223q-99 -38 -160 11t-68 148q-13 138 45 326q59 197 144 300q7 7 35 9q14 1 15 -4zM627 407q55 143 77 291q7 43 7 73l-2 -6q-2 -6 -5.5 -17t-8 -24t-9 -30t-7.5 -32
q-37 -172 -52 -255z" />
    <glyph glyph-name="V" unicode="V" horiz-adv-x="647" 
d="M259 793q9 7 31 1q18 -4 6 -13q-59 -45 -100.5 -133.5t-60.5 -193.5q-23 -131 -12 -249q2 -28 8 -56t18 -58.5t28 -48t42.5 -16t57.5 29.5q63 59 137 173t140.5 227.5t99.5 153.5q124 150 245 195q8 2 10.5 -5.5t-5.5 -10.5q-115 -42 -237 -189q-31 -37 -100 -158
t-146 -239t-142 -171q-37 -30 -69.5 -30.5t-54 20t-38.5 54t-25.5 65t-11.5 59.5q-16 161 32 338.5t147 254.5z" />
    <glyph glyph-name="W" unicode="W" horiz-adv-x="736" 
d="M187 789q-25 -35 -57.5 -181t-47.5 -299t3 -257q7 -30 24 -33t45 30q37 46 116 227q-3 121 31.5 278.5t91.5 229.5q11 11 29 10q12 0 9 -12q-13 -47 -34.5 -149.5t-42.5 -180t-46 -123.5q-8 -165 32 -264q23 -56 60.5 -57t75.5 42q64 67 116 188t76.5 227t30.5 185
q12 127 -50 136q-45 7 -131 -73q-4 -3 -7.5 -1t-4 5.5t2.5 6.5q93 85 148 76q22 -3 36.5 -21t19 -41t7 -48t-0.5 -41q-9 -134 -73 -326t-159 -291q-47 -49 -100.5 -43.5t-79.5 68.5q-29 70 -34 187q-73 -166 -114 -212q-37 -38 -65 -29t-41 54q-36 153 -0.5 393.5
t95.5 341.5q11 8 34 7q14 0 5 -10zM309 372q15 38 48 186.5t52 201.5q-38 -51 -65.5 -174.5t-34.5 -213.5z" />
    <glyph glyph-name="X" unicode="X" horiz-adv-x="733" 
d="M65 788q226 -120 356 -265q119 167 394 277q5 2 8.5 -1t3 -8t-5.5 -6q-273 -108 -387 -277q115 -140 139 -293q46 69 92 132q3 5 7.5 4t6.5 -5t0 -9q-62 -83 -104 -149q5 -61 -10 -119q-14 -57 -51 -77q-20 -10 -30 -0.5t-8.5 26.5t5.5 31q16 43 57 111q0 34 -10 84
q-26 116 -115 230q-33 -58 -68 -152q-57 -151 -131 -220t-220 -118q-8 -1 -10.5 6.5t5.5 10.5q48 15 87.5 34t68 37t53.5 45t40 46t32.5 52.5t25.5 52t24 57.5q40 102 79 165q-129 154 -370 282q-14 9 3 17t33 -1zM515 41q16 31 22 84q-32 -56 -42 -89q-5 -17 -2 -18t12 8
q7 10 10 15z" />
    <glyph glyph-name="Y" unicode="Y" horiz-adv-x="918" 
d="M417 787q-239 -268 -273 -361q-15 -44 29 -35q23 4 83 34q112 59 254 171t198 188q19 22 26 -13q5 -29 -3 -65q-20 -116 -79 -249q102 -24 213 -85q5 -3 5 -7t-4 -7t-9 -1q-113 62 -211 84q-155 -349 -321 -425q-73 -33 -113.5 5t-37.5 115t43 154q52 95 152 147t243 28
q73 177 80 272q-73 -79 -201 -176.5t-227 -150.5q-70 -41 -122 -40q-63 1 -31 82q46 108 257 334q25 25 48 22q17 -2 4 -18zM605 449q-135 21 -229.5 -28t-143.5 -139q-52 -99 -35 -184q14 -65 62 -73q34 -5 76 24q134 92 270 400z" />
    <glyph glyph-name="Z" unicode="Z" horiz-adv-x="886" 
d="M275 674q-8 -4 -11 3q-5 7 2 12q260 163 374 110q27 -12 34 -37t-1 -49.5t-24 -44.5q81 -58 38 -200q-7 -24 -18 -48q88 -17 178 -58q5 -2 5 -7t-3.5 -8t-8.5 -1q-84 40 -177 58q-53 -112 -178.5 -238t-257.5 -169q-43 -14 -88 -15.5t-82.5 11.5t-50.5 47t7 91
q27 71 108.5 142t208.5 118q156 58 297 35q15 33 25 73q20 111 -23 146q-39 -52 -117 -100q-42 -25 -84 -28q-47 -3 -34 40q1 4 3 9q9 25 35 50.5t63 40.5q61 26 116 22q44 64 10 94q-23 21 -62.5 20.5t-73.5 -10.5t-84.5 -36t-70.5 -38t-55 -35zM595 659q-45 3 -94 -17
q-33 -14 -56.5 -37t-31.5 -45q-14 -35 15 -26q45 13 132 91q21 19 35 34zM620 410q-152 14 -284 -34q-124 -46 -203 -114t-104 -136q-19 -55 -4 -84t53 -37.5t79.5 -3t76.5 19.5q115 48 224 168.5t162 220.5z" />
    <glyph glyph-name="bracketleft" unicode="[" horiz-adv-x="478" 
d="M365 551q-49 0 -89.5 -34t-65 -89t-41.5 -123t-18.5 -135.5t4.5 -128.5q4 -20 7 -30q15 -49 52 -49q18 0 42 12q13 -7 16 -15q3 -10 -11 -16.5t-36 -6.5q-31 0 -59 15.5t-38 49.5q-14 45 -15 117.5t13 151t39.5 148.5t69.5 115t98 45q37 0 44 -18q1 -4 -2 -6.5t-10 -2.5z
" />
    <glyph glyph-name="backslash" unicode="\" horiz-adv-x="419" 
d="M107 722q-8 14 -6 19q3 5 11 5q11 0 24 -13q37 -56 103 -285t78 -341q4 -26 -3 -38t-17 -12q-9 0 -9 7v-1q4 49 -73 328t-108 331z" />
    <glyph glyph-name="bracketright" unicode="]" horiz-adv-x="465" 
d="M113 -37q49 0 89.5 34t65 89t41.5 123t18.5 135.5t-4.5 128.5q-4 20 -7 30q-15 49 -52 49q-18 0 -42 -12q-13 7 -16 15q-3 10 11 16.5t36 6.5q31 0 59 -15.5t38 -49.5q14 -45 15 -117.5t-13 -151t-39.5 -148.5t-69.5 -115t-98 -45q-37 0 -44 18q-1 4 2 6.5t10 2.5z" />
    <glyph glyph-name="asciicircum" unicode="^" horiz-adv-x="290" 
d="M173 666q-10 22 -17 39q-8 -6 -41 -40q-5 -3 -7 -3q-8 0 -8 10v3q45 56 56 61q4 2 7 2q9 0 18 -26.5t9 -39.5q0 -4 -4 -7.5t-8 -3.5q-5 0 -5 5z" />
    <glyph glyph-name="underscore" unicode="_" horiz-adv-x="548" 
d="M108 -127q-8 0 -8 7q0 11 18 13.5t86 1.5h64q180 0 180 -11q0 -10 -8 -10q-279 0 -332 -1z" />
    <glyph glyph-name="grave" unicode="`" horiz-adv-x="303" 
d="M179 613q24 -30 24 -36q0 -5 -5 -5q-11 0 -19 5.5t-12.5 12.5t-7 14.5t-4.5 11.5t-3 3q-2 4 -2 5q0 3 3 3q12 0 26 -14z" />
    <glyph glyph-name="a" unicode="a" horiz-adv-x="539" 
d="M132 302q-2 15 -10.5 21.5t-20 4.5t-22 -6.5t-20.5 -11.5q-26 -19 -46.5 -54t-22.5 -57q-2 -21 14.5 -22t30.5 8q45 23 97 117zM142 323q6 14 13 36q-1 8 14 15q26 12 33 -21q4 -21 -1 -56q-15 -93 1 -117q11 -18 38 -19q48 4 108.5 30.5t94.5 47t96 61.5q4 3 8 0.5
t4.5 -7t-3.5 -7.5q-220 -144 -323 -143q-18 0 -31.5 6t-22 14t-13 22.5t-6 25t-1 30t2 29t4 30t3.5 25.5q-20 -49 -55 -94.5t-73 -63.5q-38 -19 -60.5 -2t-12.5 61q7 34 34 68.5t68 47.5q18 8 43.5 4t36.5 -23z" />
    <glyph glyph-name="b" unicode="b" horiz-adv-x="538" 
d="M44 302q-1 0 -1 -1q-10 -79 4 -80q11 -1 33 31q37 48 64 71q31 26 69 38t70 1q25 -9 35 -31q9 -20 5 -48q-5 -32 -25 -58q114 11 240 75q5 2 9 -0.5t4 -7.5t-5 -7q-134 -67 -263 -79l-10 -10q-44 -41 -108 -63q-67 -23 -104 -6q-16 6 -17.5 20.5t9.5 24.5q29 30 126 43
q24 4 67 6h3q27 31 31 63v2q5 33 -8.5 47.5t-35 12t-44 -12t-36.5 -22.5q-30 -26 -63 -69q-4 -5 -12.5 -15t-13 -15t-12 -11t-15.5 -9q-45 -15 -45 59q5 119 50 236q46 118 117 195q42 44 88.5 57t73 -15.5t11.5 -94.5q-16 -78 -88.5 -166t-202.5 -161zM46 322
q122 71 190 154.5t83 155.5q12 57 -6 77.5t-50 8t-62 -45.5q-69 -76 -114 -189q-31 -83 -41 -161zM133 147q60 21 98 56q-32 -2 -49 -4q-93 -13 -118 -39q-18 -18 19 -19q30 0 50 6z" />
    <glyph glyph-name="c" unicode="c" horiz-adv-x="473" 
d="M217 321q-2 -5 -7 -4.5t-7 4t0 8.5q10 17 -3 26q-34 24 -95 -5q-44 -22 -73 -69t-14.5 -86.5t81.5 -39.5q42 0 112 24q72 23 146.5 58.5t115.5 62.5q4 3 8 0.5t4.5 -7t-3.5 -7.5q-42 -28 -117.5 -64.5t-148.5 -59.5q-81 -25 -130 -26q-91 -3 -111 59q-16 52 27 111
q39 52 102 69q72 18 105 -6q27 -19 8 -48z" />
    <glyph glyph-name="d" unicode="d" horiz-adv-x="773" 
d="M98 325q-36 -19 -80 -75q-54 -71 -26 -90q10 -7 33 -4q21 2 70 27.5t57 41.5q21 41 23 74q0 21 -6 31.5t-18.5 10.5t-24.5 -4t-28 -12zM92 360q41 11 71 -4.5t29 -57.5q-2 -29 -15 -59q3 2 9.5 7t9.5 7q34 125 107 253.5t158 200.5q26 21 56.5 32t53 -2t16.5 -58
q-7 -49 -47.5 -116.5t-112.5 -137.5q-67 -65 -183 -156q-18 -66 -19 -112q-3 -70 25 -105t88 -30q149 17 435 278q4 4 8.5 2.5t5 -6t-2.5 -8.5q-290 -265 -444 -282q-52 -5 -86 10q-54 25 -66 92q-10 50 2 120q-113 -83 -171 -90q-71 -9 -75 44q-4 50 47 110q46 52 101 68z
M253 297q102 82 162 140q70 67 109.5 133t45.5 111q4 42 -25 38q-29 -5 -69 -44q-71 -66 -130.5 -171.5t-92.5 -206.5z" />
    <glyph glyph-name="e" unicode="e" horiz-adv-x="471" 
d="M61 313q77 8 105 23q19 12 2 17q-19 5 -45 -5q-35 -12 -62 -35zM43 294q-37 -43 -22.5 -82.5t71.5 -46.5q40 -5 157 34q134 46 222 101q7 4 11 -3t-2 -12q-101 -60 -225 -102q-112 -38 -176 -36q-87 3 -101 64q-12 52 32 105q41 50 101 57t77 -14q13 -16 -20 -35
q-41 -24 -125 -30z" />
    <glyph glyph-name="f" unicode="f" horiz-adv-x="322" 
d="M200 488q-16 -87 -159 -196q-5 -33 -6 -63q17 -7 30 -20q49 10 83 20q98 29 174 71q4 3 8 0t4 -7.5t-4 -6.5q-72 -41 -178 -73q-30 -9 -75 -19q18 -28 22 -70.5t-5 -74.5q-9 -35 -31 -45.5t-44 17.5q-30 43 -30 165q-25 2 -36 12q-6 8 -6 11q0 8 5 13q6 8 26 11
q2 0 6.5 0.5t6.5 0.5q1 28 6 57q26 160 102 228q36 34 72.5 25.5t28.5 -56.5zM115 489q-50 -74 -69 -173q125 100 137 174q7 38 -18 36q-26 -3 -50 -37zM-11 203q1 4 1 14q-7 0 -10 -1q-10 -1 -16 -5h1q7 -7 24 -8zM77 53q10 30 5.5 71.5t-24.5 66.5q-7 -2 -24 -4
q0 -96 17 -150q11 -35 23 4q2 6 3 12zM34 210v-6q2 0 4.5 0.5t3.5 0.5q-1 1 -4 2.5t-4 2.5z" />
    <glyph glyph-name="g" unicode="g" horiz-adv-x="434" 
d="M183 349q12 30 28.5 25t16.5 -34q-3 -82 -19 -146q165 54 225 106q4 3 8.5 1t5 -6t-2.5 -8q-41 -35 -97.5 -59.5t-143.5 -52.5q-37 -126 -116.5 -216.5t-192.5 -107.5q-66 -10 -92 20t-12.5 74.5t51.5 80.5q39 35 98 66t101.5 46.5t120.5 40.5q18 68 22 141
q-22 -31 -63 -65t-71 -42q-48 -14 -58 29q-9 41 21 87q37 55 95 45q21 -4 36.5 -18.5t17.5 -36.5q12 15 21 30zM156 159q-71 -23 -113.5 -38.5t-97.5 -44.5t-91 -63q-38 -36 -48.5 -76t17 -60t88.5 0q89 29 152.5 106.5t92.5 175.5zM145 299q6 29 -7 43t-35 11
q-38 -5 -66 -55q-25 -45 -11 -63q8 -10 29 -2q40 16 90 66z" />
    <glyph glyph-name="h" unicode="h" horiz-adv-x="569" 
d="M201 672q-71 -80 -113 -189q-31 -81 -42 -161q122 71 190 154.5t83 155.5q12 57 -6 77.5t-50 8t-62 -45.5zM336 629q-16 -78 -89 -166t-203 -161q-1 0 -1 -1q-2 -15 -4 -49q-3 -63 48 1q53 58 84 79q72 48 110 27q29 -20 16 -77q-8 -29 -28 -77q-39 -104 -30 -120
q10 -15 107 50q83 56 223 165q8 4 12.5 -2t-2.5 -11q-135 -108 -233 -173q-1 -1 -15.5 -10t-21.5 -13.5t-22 -12.5t-24.5 -10.5t-21.5 -4.5t-20 2.5t-13 13.5q-15 26 26 146q7 22 11.5 37t8.5 33.5t1.5 28.5t-9.5 16t-23.5 0t-41.5 -22q-30 -20 -82 -77q-18 -21 -35 -35
t-33.5 -18.5t-26 11t-8.5 52.5q1 109 49 236q44 113 117 195q29 31 64 47t63 13t42.5 -32t4.5 -81z" />
    <glyph glyph-name="i" unicode="i" horiz-adv-x="376" 
d="M-1 320q-7 4 -4 12q3 5 15.5 8t23 -4t8.5 -26q0 -4 -10 -43q-21 -69 -12 -92q8 -16 27 -20q45 -1 119 31t210 114q5 2 9 -0.5t4 -6.5t-4 -7q-241 -144 -329 -146q-28 -1 -45 7t-24 19t-7 31.5t2.5 34.5t8.5 38q13 48 8 50zM10 382q-5 12 1 24q6 13 24 14.5t23 -12.5
q5 -12 -3 -28q-6 -11 -23 -11t-22 13z" />
    <glyph glyph-name="j" unicode="j" horiz-adv-x="250" 
d="M15 381q-6 13 0 24q6 13 24 14.5t24 -12.5q5 -12 -3 -28q-7 -11 -24 -11t-21 13zM-27 159q-102 -33 -171.5 -63t-121.5 -75q-38 -33 -52.5 -74.5t9.5 -65.5t85 -6q92 27 156 106t95 178zM-21 179q17 70 21 138q1 20 16 19q17 0 24 -21q3 -8 2 -17q-5 -59 -16 -104
q81 27 133.5 50.5t90.5 55.5q7 7 12 -2q3 -7 -2 -11q-64 -56 -239 -112q-38 -127 -118 -218t-194 -106q-54 -6 -81 12t-25.5 48t19.5 64t47 59q38 33 95.5 62t99.5 44t115 39z" />
    <glyph glyph-name="k" unicode="k" horiz-adv-x="470" 
d="M138 274q-4 -4 -26.5 -25.5t-35.5 -31.5q-38 -28 -59.5 -18.5t-21.5 52.5q6 119 53 239t114 192q33 36 63.5 53t51.5 16t36.5 -15.5t20.5 -39t1 -57.5t-19 -68q-69 -156 -272 -269q-1 0 -1 -1q-8 -61 -4 -72q6 -16 30 4q19 15 56.5 50t61.5 54.5t62.5 35t77.5 10.5
q7 0 7 -9q-2 -9 -10 -7q-71 10 -164 -72q64 7 71 -26q5 -23 -19.5 -66t-26.5 -50q-6 -15 -4 -24.5t15 -5.5q24 7 50 20t45.5 24t49 32.5t43 32t46 36t40.5 32.5q4 3 8.5 1t4.5 -6.5t-3 -7.5q-159 -133 -263 -174q-73 -25 -73 30q2 23 22 58.5t22 54.5q1 12 -10 17t-21 4
t-19 -3zM46 322q196 113 258 263q20 46 17.5 78t-16 48t-42.5 6.5t-62 -45.5q-130 -147 -155 -350z" />
    <glyph glyph-name="l" unicode="l" horiz-adv-x="476" 
d="M45 319q120 70 188 154t84 158q12 56 -5.5 77.5t-49 9t-60.5 -45.5q-130 -142 -157 -353zM333 628q-16 -78 -88.5 -167t-202.5 -163q0 -8 -1 -23t-2 -23q-3 -150 85 -152q16 0 35 4t36 9.5t39.5 17.5t38.5 20.5t40.5 25.5t37 25.5t37.5 27.5t32.5 25t30.5 25t25 20
q4 3 8.5 1t4.5 -6.5t-3 -7.5q-51 -41 -70 -55.5t-71 -51t-83 -52.5t-73 -31.5t-75 -14.5q-64 2 -93.5 54t-24.5 115q5 121 47.5 233.5t118.5 197.5q44 44 90 57t71 -15.5t10 -95.5z" />
    <glyph glyph-name="m" unicode="m" horiz-adv-x="684" 
d="M22 233q35 47 63 63q20 16 44 14.5t36 -23.5q14 -22 6 -53q88 72 138 103q103 60 119 0q14 -48 -8 -106q-32 -87 24 -81q46 6 134 66q31 22 106 84q5 4 8.5 2.5t4 -6.5t-1.5 -9q-58 -49 -107 -84q-92 -66 -154 -72q-60 -6 -59 57q0 14 3 31q1 7 7 28.5t9 35t4.5 34
t-4.5 25.5q-11 18 -76 -19q-43 -26 -130 -97q-35 -31 -45.5 -28t-8.5 53q2 27 -7.5 34t-32.5 -3q-47 -29 -119 -148q-4 -9 -12 -3q-4 4 -3 9l32 128q0 2 3 15.5t7 27.5v1q15 30 26 23.5t11 -34.5l-9 -35q-1 -4 -3.5 -15.5t-4.5 -17.5z" />
    <glyph glyph-name="n" unicode="n" horiz-adv-x="506" 
d="M2 312q6 22 25 14q17 -8 13 -24q0 -2 -1 -4q-3 -13 -13 -42.5t-13 -42.5q87 87 143 122q60 38 94 21t10 -85q-5 -17 -7.5 -28.5t-2.5 -25.5t6 -19.5t17.5 -9t32.5 4.5q93 27 200 107q7 4 11.5 -2.5t-1.5 -11.5q-40 -30 -99 -62t-107 -47q-59 -19 -84.5 10t-4.5 87
q15 54 -2 64t-54 -17q-53 -35 -103.5 -82t-66.5 -75l-10 -22q-4 -10 -20 -8q-8 2 -8 6q19 70 45 172z" />
    <glyph glyph-name="o" unicode="o" horiz-adv-x="337" 
d="M152 324q12 2 24 -15q14 -14 24 -21.5t31 -15.5t48 -1t58 29q7 5 12 -2t-2 -12q-59 -40 -100.5 -35.5t-88.5 53.5q-8 -67 -42 -97q-26 -21 -56.5 -22.5t-51.5 23.5q-19 26 -13 67.5t34 65.5q30 26 66.5 20t56.5 -37zM114 230q23 28 27 74q-14 39 -50 39.5t-54 -33.5
q-11 -21 -13 -46.5t8 -43.5q17 -21 42 -15t40 25z" />
    <glyph glyph-name="p" unicode="p" horiz-adv-x="391" 
d="M5 351q-1 18 18.5 15.5t24.5 -17.5q1 -2 1 -5q-1 -19 -13 -64q68 78 129 84q52 6 73 -29.5t-18 -81.5q109 15 171 47q5 2 9 -0.5t3.5 -7t-4.5 -7.5q-72 -36 -200 -52q-25 -17 -34 -23q-67 -37 -106 -37q-32 0 -30 20q1 21 33 34l5 2q22 7 95 17q41 37 38 73q-4 32 -41 28
q-21 -3 -42 -16.5t-30 -21.5t-33.5 -36.5t-26.5 -30.5q-37 -131 -65 -189q-4 -12 -27 -23t-23 6q0 6 4 15q22 47 57 157.5t32 142.5zM64 193q41 11 72 33q-56 -9 -73 -17q-17 -7 -18 -14q-2 -7 19 -2z" />
    <glyph glyph-name="q" unicode="q" horiz-adv-x="457" 
d="M177 329q2 -6 2 -10q13 15 24 36q10 12 27.5 8.5t12.5 -24.5q-9 -33 -22 -119q17 -12 25 -37q31 8 71 27q64 31 140 90q7 5 11.5 -1.5t-0.5 -11.5q-76 -58 -144 -92q-33 -17 -73 -28q8 -36 -2.5 -100t-26.5 -98q-3 -8 -8.5 -16.5t-12.5 -15.5t-14.5 -6t-13.5 12
q-22 49 -4 219q-17 4 -25 14q-17 18 3 40q11 13 31 16q7 48 13 74q-49 -57 -108 -78q-70 -24 -88 16q-15 33 15 74t81 48q70 10 86 -37zM83 246q45 19 79 53q3 12 -1 25q-15 44 -72 18q-39 -18 -56 -57q-15 -37 8 -45q15 -5 42 6zM218 199q0 -6 -2 -22q2 1 7 1.5t7 0.5
q-7 13 -12 20zM214 160q-1 -13 -5 -47.5t-5.5 -49t-2.5 -48.5t3 -45l3 6q15 32 25 93t3 94q-12 -1 -21 -3zM171 179q1 6 2.5 18t1.5 17q-10 -4 -17 -12t-2 -15q4 -5 15 -8z" />
    <glyph glyph-name="r" unicode="r" horiz-adv-x="350" 
d="M19 358q6 13 17 14t18 -8t3 -20q-17 -37 -36 -138q-8 -50 -12 -73q2 5 5.5 14t4.5 13q53 130 119 191q49 44 63 -20q23 -98 149 -31q5 2 9 -0.5t4 -7.5t-5 -7q-42 -22 -75 -30t-52 -3t-34.5 15.5t-21.5 25t-13 25t-9.5 16t-11.5 -2.5q-60 -65 -106 -178q-30 -72 -37 -114
q0 -8 -5 -13t-11 -6t-12.5 0t-11 5.5t-4.5 11.5q3 60 28 190q21 100 37 131z" />
    <glyph glyph-name="s" unicode="s" horiz-adv-x="260" 
d="M49 347q-21 -27 4 -57q29 -39 35 -64q120 41 172 74q4 3 8 0t4.5 -7t-3.5 -7q-56 -37 -179 -77q-8 -48 -74 -60q-57 -8 -77 7q-19 14 28 32l22 7q50 15 57 17q-3 29 -32 65q-30 30 -14 67q11 22 40 32q12 3 15.5 -2.5t1 -13.5t-7.5 -13zM13 170q22 9 30 24
q-46 -14 -49 -15q-34 -10 -32 -14q3 -7 37 1q8 2 14 4z" />
    <glyph glyph-name="t" unicode="t" horiz-adv-x="463" 
d="M48 327q58 52 106 117q20 30 28 44q-26 -4 -80 -12q-4 -8 -5 -12q-30 -66 -49 -137zM167 434q-55 -76 -126 -136q-2 -8 -7 -32q-13 -72 -0.5 -113.5t54 -51t115.5 25.5q84 39 239 157q3 2 9.5 7t11.5 9q4 3 8.5 1t4.5 -6.5t-3 -7.5q-1 -1 -8.5 -7l-12.5 -10
q-155 -118 -242 -158q-57 -25 -99 -31t-66.5 6t-39 34.5t-16.5 56.5t1.5 70.5t14.5 77t23 75.5t26 67q-276 -41 -307 -28q-7 3 -5 11q3 7 11 5q29 -12 309 31q41 84 90 115q31 22 57.5 12t22.5 -50q-3 -21 -19 -55q180 25 187 4q3 -7 -11.5 -17t-47 -24.5t-87.5 -34.5
q-5 -2 -8 1t-2.5 8t4.5 7q130 49 130 54q-2 8 -175 -16q-10 -20 -36 -57zM193 506q19 38 22 60q2 19 -5.5 25.5t-26.5 -3.5q-37 -23 -73 -94q29 4 83 12z" />
    <glyph glyph-name="u" unicode="u" horiz-adv-x="479" 
d="M46 352l30 -3q17 -3 5 -10q-26 -15 -45 -61q-12 -28 -13 -50q0 -17 4.5 -26.5t13.5 -10.5t16.5 0t21 8.5t19 11t17.5 11.5q39 27 75 63q35 34 61 69q8 23 29 16q18 -5 14 -19q-28 -68 -28 -128q0 -57 46 -44q56 17 167 121q4 4 8.5 2t5.5 -6t-2 -8q-117 -109 -175 -125
q-34 -11 -58 0t-31 42q-7 37 10 105q-10 -12 -35 -37q-40 -38 -78 -65q-120 -79 -141 -5q-10 36 11 86q19 44 52 63z" />
    <glyph glyph-name="v" unicode="v" horiz-adv-x="395" 
d="M39 353l33 -4q12 -3 2 -9q-28 -17 -38 -67q-11 -52 3 -95q18 -52 62 2l9 13q50 70 68 134q3 9 10 8q2 0 12 -12q79 -119 195 -23q4 3 8.5 1t5 -6.5t-2.5 -7.5q-45 -37 -83.5 -44.5t-69.5 9.5t-64 56q-17 -55 -65 -125q-24 -35 -48.5 -47.5t-41.5 -4t-30 28.5t-15.5 51
t3.5 64q14 59 47 78z" />
    <glyph glyph-name="w" unicode="w" horiz-adv-x="578" 
d="M219 263q-4 -30 -3 -45q1 -55 22 -64t55 39q20 28 41 68t27 66q1 6 4 7.5t7 -1t6.5 -5.5t4.5 -5q12 -18 15 -22q73 -88 180 -1q7 7 12 -2q4 -6 -2 -11q-121 -98 -203 4q-6 8 -12 17q-24 -67 -66 -125q-26 -38 -57 -49.5t-53.5 9t-23.5 67.5q-40 -45 -71 -67
q-46 -30 -75.5 -14t-41 57.5t-0.5 81.5q17 55 62 79l31 -3q16 -3 4 -10q-38 -21 -54 -69q-13 -46 5.5 -93t65.5 -11q35 29 75 75q10 76 37 110q20 27 44 27t11 -35q-11 -29 -47 -75zM256 349q-15 -10 -26 -45q24 32 26 45z" />
    <glyph glyph-name="x" unicode="x" horiz-adv-x="414" 
d="M11 289q-6 -6 -12 -1q-5 7 0 12q30 36 61 54q33 20 56 15t35.5 -23.5t17.5 -50.5q62 32 102 67q5 6 12 -1q5 -6 -1 -12q-40 -34 -110 -72q6 -46 23 -61t46 -9q57 13 173 93q4 3 8 0t4 -7.5t-4 -7.5q-3 -2 -24 -15.5t-27 -17.5t-24.5 -15.5t-28.5 -16t-26 -12.5t-30 -12.5
t-29 -8.5q-83 -20 -99 70q-72 -39 -93 -72q-3 -7 -11 -3q-7 5 -3 12q22 37 104 81q-10 55 -24 66q-14 12 -38 -2q-25 -13 -58 -50z" />
    <glyph glyph-name="y" unicode="y" horiz-adv-x="486" 
d="M239 358q8 13 25 10.5t17 -18.5q-6 -86 -27 -160q56 19 89 31.5t74.5 34t68.5 44.5q7 5 11.5 -1.5t-0.5 -11.5q-30 -25 -74 -47.5t-79.5 -35.5t-95.5 -33q-28 -98 -87 -179.5t-142 -116.5q-43 -18 -83 -20.5t-64.5 10.5t-35.5 35t2 54.5t50 67.5q36 35 95.5 65.5
t98.5 44.5t122 42h1q22 68 31 154q-127 -151 -210 -200q-19 -12 -40 -16.5t-37.5 5t-16.5 35.5q2 63 82 169q14 15 32 5q14 -9 3 -20q-57 -76 -73 -142q-3 -19 -0.5 -27.5t13.5 -6t20.5 7t19.5 11.5q87 58 210 209zM199 154q-76 -24 -120.5 -40.5t-100.5 -48t-90 -68.5
q-26 -29 -34 -54t2 -39.5t29.5 -22.5t48.5 -5t59 16q74 35 125.5 105.5t80.5 156.5z" />
    <glyph glyph-name="z" unicode="z" horiz-adv-x="575" 
d="M0 281q-8 -5 -12 5q-3 7 3 9q15 11 58.5 31.5t81.5 31.5q48 17 85 11q15 -2 23.5 -12t5.5 -23q-2 -15 -20 -41q-4 -6 -14 -18q83 35 116 2q23 -24 15 -78q176 61 233 101q4 3 8.5 0.5t4.5 -7t-3 -7.5q-63 -43 -247 -106q-22 -92 -84.5 -173.5t-142.5 -123.5
q-44 -23 -86.5 -27.5t-69.5 9t-38 37.5t7 61t66 77q81 66 304 142q10 40 6 61q-11 63 -159 -24q-22 -13 -25 -3q-1 6 7 15q76 76 79 104q0 29 -67 7q-36 -11 -77.5 -30.5t-57.5 -30.5zM287 162q-209 -72 -286 -135q-75 -62 -70.5 -108t60.5 -45t115 36q60 39 106.5 107
t74.5 145z" />
    <glyph glyph-name="braceleft" unicode="{" horiz-adv-x="577" 
d="M464 674q8 0 12 -8q4 -13 -7 -13q-31 0 -55 -12.5t-37 -27.5t-24.5 -45.5t-15 -46.5t-10.5 -51q-19 -89 -35 -118q-14 -23 -32 -37q11 -26 18 -111q11 -112 28 -152q18 -45 62 -45q10 0 26 3t19 3q5 0 7 -3q6 -14 -7 -23t-36 -9q-31 0 -61.5 16.5t-44.5 49.5
q-17 41 -25 89t-11 97t-6 66q-20 -8 -38 -8q-25 0 -34 19q-6 16 8.5 37t36.5 21q24 0 43 -24q19 25 37 108q23 105 40 140q43 84 142 85zM219 325q-7 14 -16 14q-10 0 -19.5 -10.5t-6.5 -16.5q1 -1 3 -1q16 0 39 14z" />
    <glyph glyph-name="bar" unicode="|" horiz-adv-x="416" 
d="M220 45v-1q39 540 65 701q2 12 15 12t16 -15q-10 -79 -31 -320.5t-30 -380.5q-1 -11 -12 -11q-7 0 -14 4.5t-8 8.5q0 1 -1 2z" />
    <glyph glyph-name="braceright" unicode="}" horiz-adv-x="572" 
d="M163 -22q-8 0 -12 8q-4 13 7 13q31 0 55 12.5t37 27.5t24.5 45.5t15 46.5t10.5 51q19 89 35 118q14 23 32 37q-11 26 -18 111q-11 112 -28 152q-18 45 -62 45q-10 0 -26 -3t-19 -3q-6 0 -7 3q-6 14 7 23t36 9q31 0 61.5 -16.5t44.5 -49.5q17 -41 25 -89t11 -97t6 -66
q20 8 38 8q25 0 34 -19q6 -16 -8.5 -37t-36.5 -21q-24 0 -43 24q-19 -25 -37 -108q-23 -105 -40 -140q-42 -85 -142 -85zM408 327q7 -14 16 -14q10 0 19.5 10.5t6.5 16.5q-1 1 -3 1q-16 0 -39 -14z" />
    <glyph glyph-name="asciitilde" unicode="~" horiz-adv-x="440" 
d="M160 396q-10 6 -10 13q0 9 10 9q4 0 14.5 -5.5t16.5 -5.5q10 0 38.5 9.5t48.5 9.5q13 0 37.5 -6t24.5 -18q0 -15 -9 -15q-3 0 -8 3q-20 14 -47 14q-17 0 -46 -8.5t-42 -8.5q-16 0 -28 9z" />
    <glyph glyph-name="exclamdown" unicode="&#xa1;" horiz-adv-x="269" 
d="M114 24q-11 101 1.5 297.5t30.5 300.5q3 8 8 8q7 0 11 -9q2 -4 2 -7q-8 -94 -11 -273.5t5 -306.5q4 -10 -7.5 -24.5t-23.5 -14.5q-8 0 -12 10q-4 8 -4 19zM177 658q-3 -9 -14 -9q-12 0 -17 12q-3 8 1 15t13 7q12 0 17 -11v-14z" />
    <glyph glyph-name="cent" unicode="&#xa2;" horiz-adv-x="473" 
d="M217 321q-2 -5 -7 -4.5t-7 4t0 8.5q10 17 -3 26q-17 10 -32 10l-17 -204q19 4 60 18q72 23 146.5 58.5t115.5 62.5q4 3 8 0.5t4.5 -7t-3.5 -7.5q-42 -28 -117.5 -64.5t-148.5 -59.5q-34 -10 -66 -18l-12 -167q-1 -11 -12 -11q-7 0 -14 4.5t-8 8.5q0 1 -1 2l12 157
q-20 -2 -29 -2q-91 -3 -111 59q-16 52 27 111q39 52 102 69q28 6 32 6q21 231 32 300q2 12 15 12t16 -15q-13 -102 -29 -297q22 -1 39 -12q27 -19 8 -48zM105 350q-44 -22 -73 -69t-14.5 -86.5t81.5 -39.5q11 0 17 1l18 205q-13 -4 -29 -11z" />
    <glyph glyph-name="sterling" unicode="&#xa3;" horiz-adv-x="1078" 
d="M459 296q-8 -4 -10 3q-5 14 6 17q65 32 96 47q-22 171 -11 250q-257 -98 -490 -227q-6 -5 -12 3q-4 7 4 11q242 135 501 232q4 28 17 55q35 77 108.5 104.5t141.5 -18.5q24 -16 38 -40q54 14 82 20q61 15 116 21q49 5 54 -12q11 -22 -82 -91t-184 -122q-43 -24 -59 -31
q-35 -16 -31 -1q1 5 6 13q4 7 33 32q79 64 63 134l-6 17q-108 -29 -254 -82q-15 -75 7 -248q99 42 106 26q2 -4 -1 -9.5t-7 -6.5q-31 -13 -94 -41q10 -77 13 -131q2 -35 -1 -60q37 -13 102 -46q20 -10 52.5 -29t51 -28.5t48 -20.5t56 -10.5t62.5 5.5t80 24t97 49q7 4 12 -3
q4 -7 -3 -12q-64 -36 -117 -55t-87.5 -25t-75 4t-59.5 18.5t-62 33t-63 34.5q-53 28 -96 44q-6 -48 -27 -89q-38 -70 -121 -84q-66 -11 -105 21q-44 36 0 94q15 21 41 42q79 64 172 46q1 21 0 45q-3 55 -12 114q-67 -28 -96 -37zM539 60q21 39 27 96q-86 19 -161 -41
q-73 -59 -49 -100q17 -30 71 -27q66 4 103 58q5 6 9 14zM934 737q-12 -3 -78 -19l6 -18q19 -79 -68 -151l-9 -8q37 20 40 22q84 49 168 110t91 85q-6 2 -36 -1q-39 -3 -114 -20zM650 749q-29 -24 -48 -67q-7 -14 -12 -32q124 45 241 78q-13 20 -30 31q-39 26 -78.5 23
t-72.5 -33z" />
    <glyph glyph-name="yen" unicode="&#xa5;" horiz-adv-x="836" 
d="M590 323h3q111 0 111 -17q0 -5 -5 -9t-11 -4q-50 7 -106 7h-5q-29 -53 -54 -91h30q107 0 107 -17q0 -5 -5 -9t-10 -4q-39 7 -84 7q-18 0 -54 -2q-88 -125 -182 -168q-73 -33 -113.5 5t-37.5 115t43 154q52 95 152 147t243 28q73 177 80 272q-73 -79 -201 -176.5
t-227 -150.5q-70 -41 -122 -40q-63 1 -31 82q46 108 257 334q25 25 48 22q17 -2 4 -18l-3 -3q-239 -268 -273 -361q-15 -44 29 -35q23 4 83 34q112 59 254 171t198 188q19 22 26 -13q5 -29 -3 -65q-32 -170 -141 -383zM317 178q-9 0 -9 8q0 13 13 13q6 0 28.5 1.5t59.5 3.5
t67 3q26 38 55 92q-15 -1 -76 -4t-94 -3q-9 0 -9 8q0 5 4 9t9 4q2 0 29 2t70 4t80 3q36 68 61 127q-135 21 -229.5 -28t-143.5 -139q-52 -99 -35 -184q14 -65 62 -73q34 -5 76 24q61 42 123 131q-62 -4 -93 -4q-32 0 -48 2z" />
    <glyph glyph-name="dieresis" unicode="&#xa8;" horiz-adv-x="385" 
d="M172 613q4 0 8 -3.5t4 -9.5q0 -9 -7 -15t-16 -6q-11 0 -11 11q0 8 7 15.5t15 7.5zM274 622q4 0 7.5 -4t3.5 -9q0 -9 -6.5 -15t-15.5 -6q-11 0 -11 10q0 8 7 16t15 8z" />
    <glyph glyph-name="acute" unicode="&#xb4;" horiz-adv-x="260" 
d="M146 610q1 1 4 1q10 0 10 -9q0 -3 -21 -26t-26 -23q-13 0 -13 9q0 5 19 24t27 24z" />
    <glyph glyph-name="periodcentered" unicode="&#xb7;" horiz-adv-x="233" 
d="M121 429q4 0 8 -3.5t4 -9.5q0 -9 -7 -15.5t-15 -6.5q-11 0 -11 11q0 8 7 16t14 8z" />
    <glyph glyph-name="cedilla" unicode="&#xb8;" horiz-adv-x="273" 
d="M173 -11q0 -20 -14 -39.5t-34 -19.5q-12 0 -18.5 7t-6.5 16q0 16 11 16q4 0 9 -7.5t9 -7.5q9 0 15.5 9t6.5 19q0 4 -2 10.5t-2 8.5q0 11 9 11q6 0 11.5 -6.5t5.5 -16.5z" />
    <glyph glyph-name="questiondown" unicode="&#xbf;" horiz-adv-x="477" 
d="M353 284q3 5 8 5q13 0 15 -8q2 -3 0 -6q2 -119 -52 -200.5t-118 -81.5q-62 0 -92 78q-16 42 -13 81.5t20.5 71t43 63.5t54.5 58.5t55 56.5t45 57.5t23.5 61.5t-8.5 69q-4 10 -5 18t0 11.5t4 3.5q12 0 24 -31q14 -37 10 -72.5t-22 -64.5t-43 -60t-53 -58.5t-52.5 -59.5
t-41 -64t-19 -71.5t13.5 -81.5q16 -41 52 -41q53 0 102.5 77t48.5 188zM338 658q-3 -9 -14 -9q-12 0 -17 12q-3 9 2 15.5t13 6.5q13 0 16 -10q2 -6 0 -15z" />
    <glyph glyph-name="Agrave" unicode="&#xc0;" 
d="M-48 -26q-6 -5 -12 3q-4 7 4 11q65 39 293 482q-142 -58 -265 -99q-5 -1 -8 2.5t-2 8t6 5.5q123 41 281 106l33.5 67t31.5 62q7 14 28.5 56.5t30.5 59.5q9 21 18.5 35.5t20 20.5t20.5 -2t19 -32q26 -67 41 -169q105 42 181 61q8 2 10 -6t-7 -11q-77 -21 -181 -62
q10 -68 13 -115q18 -202 13 -440q14 20 21 41q2 9 10 5q8 -2 6 -10q-25 -84 -50 -81q-26 4 -29 93v21q2 221 -17 407q-1 9 -3.5 30.5t-4.5 32.5q-1 0 -194 -78q-237 -463 -308 -505zM329 615q-26 -53 -56 -112q96 40 178 72q-18 124 -47 187q-8 -14 -75 -147zM420 853
q24 -30 24 -36q0 -5 -5 -5q-11 0 -19 5.5t-12.5 12.5t-7 14.5t-4.5 11.5t-3 3q-2 4 -2 5q0 3 3 3q12 0 26 -14z" />
    <glyph glyph-name="Aacute" unicode="&#xc1;" 
d="M-48 -26q-6 -5 -12 3q-4 7 4 11q65 39 293 482q-142 -58 -265 -99q-5 -1 -8 2.5t-2 8t6 5.5q123 41 281 106l33.5 67t31.5 62q7 14 28.5 56.5t30.5 59.5q9 21 18.5 35.5t20 20.5t20.5 -2t19 -32q26 -67 41 -169q105 42 181 61q8 2 10 -6t-7 -11q-77 -21 -181 -62
q10 -68 13 -115q18 -202 13 -440q14 20 21 41q2 9 10 5q8 -2 6 -10q-25 -84 -50 -81q-26 4 -29 93v21q2 221 -17 407q-1 9 -3.5 30.5t-4.5 32.5q-1 0 -194 -78q-237 -463 -308 -505zM329 615q-26 -53 -56 -112q96 40 178 72q-18 124 -47 187q-8 -14 -75 -147zM418 865
q1 1 4 1q10 0 10 -9q0 -3 -21 -26t-26 -23q-13 0 -13 9q0 5 19 24t27 24z" />
    <glyph glyph-name="Acircumflex" unicode="&#xc2;" 
d="M-48 -26q-6 -5 -12 3q-4 7 4 11q65 39 293 482q-142 -58 -265 -99q-5 -1 -8 2.5t-2 8t6 5.5q123 41 281 106l33.5 67t31.5 62q7 14 28.5 56.5t30.5 59.5q9 21 18.5 35.5t20 20.5t20.5 -2t19 -32q26 -67 41 -169q105 42 181 61q8 2 10 -6t-7 -11q-77 -21 -181 -62
q10 -68 13 -115q18 -202 13 -440q14 20 21 41q2 9 10 5q8 -2 6 -10q-25 -84 -50 -81q-26 4 -29 93v21q2 221 -17 407q-1 9 -3.5 30.5t-4.5 32.5q-1 0 -194 -78q-237 -463 -308 -505zM329 615q-26 -53 -56 -112q96 40 178 72q-18 124 -47 187q-8 -14 -75 -147zM461 788
q-2 6 -4.5 14l-5 16t-5.5 16t-5.5 14t-4.5 9.5t-3 3.5q-23 -19 -27.5 -23t-49.5 -41q-12 3 -12 12q0 5 2 8q74 78 92 78q6 0 10.5 -1.5t8 -4.5t6.5 -6t5 -9.5t3.5 -11t3.5 -13t3 -14.5t3 -16t3 -17v-3q0 -7 -5 -13t-10 -6q-7 0 -8 8z" />
    <glyph glyph-name="Atilde" unicode="&#xc3;" 
d="M-48 -26q-6 -5 -12 3q-4 7 4 11q65 39 293 482q-142 -58 -265 -99q-5 -1 -8 2.5t-2 8t6 5.5q123 41 281 106l33.5 67t31.5 62q7 14 28.5 56.5t30.5 59.5q9 21 18.5 35.5t20 20.5t20.5 -2t19 -32q26 -67 41 -169q105 42 181 61q8 2 10 -6t-7 -11q-77 -21 -181 -62
q10 -68 13 -115q18 -202 13 -440q14 20 21 41q2 9 10 5q8 -2 6 -10q-25 -84 -50 -81q-26 4 -29 93v21q2 221 -17 407q-1 9 -3.5 30.5t-4.5 32.5q-1 0 -194 -78q-237 -463 -308 -505zM329 615q-26 -53 -56 -112q96 40 178 72q-18 124 -47 187q-8 -14 -75 -147zM333 847v3
q0 13 11 13q6 0 14 -5.5t12 -5.5q12 0 29 8t32 8q28 0 69 -22q0 -6 -3 -12.5t-8 -6.5q-2 0 -5 3q-30 12 -51 12q-17 0 -36.5 -8t-31.5 -8q-17 0 -32 21z" />
    <glyph glyph-name="Adieresis" unicode="&#xc4;" 
d="M-48 -26q-6 -5 -12 3q-4 7 4 11q65 39 293 482q-142 -58 -265 -99q-5 -1 -8 2.5t-2 8t6 5.5q123 41 281 106l33.5 67t31.5 62q7 14 28.5 56.5t30.5 59.5q9 21 18.5 35.5t20 20.5t20.5 -2t19 -32q26 -67 41 -169q105 42 181 61q8 2 10 -6t-7 -11q-77 -21 -181 -62
q10 -68 13 -115q18 -202 13 -440q14 20 21 41q2 9 10 5q8 -2 6 -10q-25 -84 -50 -81q-26 4 -29 93v21q2 221 -17 407q-1 9 -3.5 30.5t-4.5 32.5q-1 0 -194 -78q-237 -463 -308 -505zM329 615q-26 -53 -56 -112q96 40 178 72q-18 124 -47 187q-8 -14 -75 -147zM386 848
q4 0 8 -3.5t4 -9.5q0 -9 -7 -15t-16 -6q-11 0 -11 11q0 8 7 15.5t15 7.5zM446 845q4 0 7.5 -3.5t3.5 -9.5q0 -9 -6.5 -15t-15.5 -6q-11 0 -11 10q0 8 7 16t15 8z" />
    <glyph glyph-name="Aring" unicode="&#xc5;" 
d="M-48 -26q-6 -5 -12 3q-4 7 4 11q65 39 293 482q-142 -58 -265 -99q-5 -1 -8 2.5t-2 8t6 5.5q123 41 281 106l33.5 67t31.5 62q7 14 28.5 56.5t30.5 59.5q9 21 18.5 35.5t20 20.5t20.5 -2t19 -32q26 -67 41 -169q105 42 181 61q8 2 10 -6t-7 -11q-77 -21 -181 -62
q10 -68 13 -115q18 -202 13 -440q14 20 21 41q2 9 10 5q8 -2 6 -10q-25 -84 -50 -81q-26 4 -29 93v21q2 221 -17 407q-1 9 -3.5 30.5t-4.5 32.5q-1 0 -194 -78q-237 -463 -308 -505zM329 615q-26 -53 -56 -112q96 40 178 72q-18 124 -47 187q-8 -14 -75 -147zM420 846
q-5 0 -10.5 -6t-5.5 -12q0 -9 8 -9q6 0 11.5 5.5t5.5 11.5q0 10 -9 10zM420 850q13 0 13 -12q0 -9 -7 -15.5t-14 -6.5q-11 0 -11 13q0 7 6.5 14t12.5 7z" />
    <glyph glyph-name="AE" unicode="&#xc6;" horiz-adv-x="1084" 
d="M615 15q15 4 14 -5q-2 -12 -26 -21q-1 0 -3 -1q-85 -21 -131.5 31.5t-48.5 138.5q-2 90 34 181q38 100 105 154.5t144 24.5q46 -18 73 -32q1 0 1 1l-32 24q-51 38 -77 78l-209 -110q-237 -463 -308 -505q-6 -5 -12 3q-4 7 4 11q65 39 293 482q-142 -58 -265 -99
q-5 -1 -8 2.5t-2 8t6 5.5q123 41 281 106l65 129l39 77h-19q-174 -11 -261 -172q-3 -7 -11 -3t-3 12q90 167 274 180h28l12 22q9 21 18.5 35.5t20 20.5t20.5 -2t19 -32l6 -17q8 10 13 15q28 27 68 34q103 20 184 -78q55 -68 -11 -77q-41 -5 -101 13q-73 23 -129 35
q-2 -25 10 -51q23 -56 92 -108q37 -30 43 -40q5 -8 3 -15t-12 -8q-10 0 -28 5t-32.5 11t-34.5 14l-25 10q-69 25 -137 -57q-54 -64 -80 -166q-16 -61 -16 -114q0 -82 39 -128.5t113 -22.5zM716 755q-26 -21 -33 -50l-1 -3q51 -10 132 -36q112 -33 112 0q0 13 -18 37
q-24 30 -55 49.5t-68 24t-69 -21.5zM626 694q-30 5 -56 5l-42 -84l-56 -112q11 5 174 95q-7 49 -20 96zM603 762l-24 -46q28 -2 42 -4q-4 15 -18 50z" />
    <glyph glyph-name="Ccedilla" unicode="&#xc7;" horiz-adv-x="770" 
d="M337 -30q0 -20 -14 -39.5t-34 -19.5q-12 0 -18.5 7t-6.5 16q0 16 11 16q4 0 9 -7.5t9 -7.5q9 0 15.5 9t6.5 19q0 4 -2 10t-2 8q-31 3 -54 19q-37 25 -52 77q-17 53 -12 134q11 168 111 341q57 98 124 158q-95 23 -179.5 -11.5t-166.5 -153.5q-4 -8 -11 -3t-3 12
q89 130 181 164.5t196 4.5q35 29 71 44q60 25 114.5 27t92.5 -12.5t67 -41.5q45 -42 55 -92q12 -53 -21 -76q-35 -24 -97 3q-35 16 -105 52q-104 54 -156 72q-66 -59 -121 -153q-46 -79 -75 -167.5t-33 -166.5q-11 -94 22 -156q14 -28 35 -41.5t41 -15t47 7.5t45.5 18.5
t44.5 25.5q66 40 152 114q49 42 146 135q4 4 8.5 2t5.5 -6t-3 -8q-87 -85 -146 -135q-90 -78 -155 -117q-81 -50 -145 -55q2 -6 2 -11zM481 711q39 -14 149 -69q75 -39 104 -51q53 -24 80 -5q23 17 15 59q-10 45 -50 82q-47 43 -112.5 47.5t-117.5 -21.5q-36 -15 -68 -42z
" />
    <glyph glyph-name="Egrave" unicode="&#xc8;" horiz-adv-x="729" 
d="M682 714q55 -68 -11 -77q-41 -5 -101 13q-73 23 -129 35q-2 -25 10 -51q23 -56 92 -108q37 -30 43 -40q5 -8 3 -15t-12 -8q-10 0 -28 5t-32.5 11t-34.5 14l-25 10q-69 25 -137 -57q-54 -64 -80 -166q-16 -61 -16 -114q0 -82 39.5 -128.5t114.5 -21.5q125 42 351 284
q3 4 8 3t6.5 -5.5t-1.5 -8.5q-53 -57 -89.5 -93.5t-91.5 -86t-105.5 -80t-94.5 -41.5q-85 -21 -131.5 31.5t-48.5 138.5q-2 90 34 181q38 100 105 154.5t144 24.5q46 -18 73 -32q1 0 1 1q-4 3 -9 6.5t-12 9t-11 8.5q-119 91 -108 181v1q-58 9 -104 6q-174 -11 -261 -172
q-3 -7 -11 -3t-3 12q90 167 274 180q47 3 109 -6q8 28 28 48q28 27 68 34q103 20 184 -78zM477 755q-26 -21 -33 -50l-1 -3q51 -10 132 -36q112 -33 112 0q0 13 -18 37q-24 30 -55 49.5t-68 24t-69 -21.5zM367 813q24 -30 24 -36q0 -5 -5 -5q-11 0 -19 5.5t-12.5 12.5
t-7 14.5t-4.5 11.5t-3 3q-2 4 -2 5q0 3 3 3q12 0 26 -14z" />
    <glyph glyph-name="Eacute" unicode="&#xc9;" horiz-adv-x="729" 
d="M682 714q55 -68 -11 -77q-41 -5 -101 13q-73 23 -129 35q-2 -25 10 -51q23 -56 92 -108q37 -30 43 -40q5 -8 3 -15t-12 -8q-10 0 -28 5t-32.5 11t-34.5 14l-25 10q-69 25 -137 -57q-54 -64 -80 -166q-16 -61 -16 -114q0 -82 39.5 -128.5t114.5 -21.5q125 42 351 284
q3 4 8 3t6.5 -5.5t-1.5 -8.5q-53 -57 -89.5 -93.5t-91.5 -86t-105.5 -80t-94.5 -41.5q-85 -21 -131.5 31.5t-48.5 138.5q-2 90 34 181q38 100 105 154.5t144 24.5q46 -18 73 -32q1 0 1 1q-4 3 -9 6.5t-12 9t-11 8.5q-119 91 -108 181v1q-58 9 -104 6q-174 -11 -261 -172
q-3 -7 -11 -3t-3 12q90 167 274 180q47 3 109 -6q8 28 28 48q28 27 68 34q103 20 184 -78zM477 755q-26 -21 -33 -50l-1 -3q51 -10 132 -36q112 -33 112 0q0 13 -18 37q-24 30 -55 49.5t-68 24t-69 -21.5zM380 810q1 1 4 1q10 0 10 -9q0 -3 -21 -26t-26 -23q-13 0 -13 9
q0 5 19 24t27 24z" />
    <glyph glyph-name="Ecircumflex" unicode="&#xca;" horiz-adv-x="729" 
d="M682 714q55 -68 -11 -77q-41 -5 -101 13q-73 23 -129 35q-2 -25 10 -51q23 -56 92 -108q37 -30 43 -40q5 -8 3 -15t-12 -8q-10 0 -28 5t-32.5 11t-34.5 14l-25 10q-69 25 -137 -57q-54 -64 -80 -166q-16 -61 -16 -114q0 -82 39.5 -128.5t114.5 -21.5q125 42 351 284
q3 4 8 3t6.5 -5.5t-1.5 -8.5q-53 -57 -89.5 -93.5t-91.5 -86t-105.5 -80t-94.5 -41.5q-85 -21 -131.5 31.5t-48.5 138.5q-2 90 34 181q38 100 105 154.5t144 24.5q46 -18 73 -32q1 0 1 1q-4 3 -9 6.5t-12 9t-11 8.5q-119 91 -108 181v1q-58 9 -104 6q-174 -11 -261 -172
q-3 -7 -11 -3t-3 12q90 167 274 180q47 3 109 -6q8 28 28 48q28 27 68 34q103 20 184 -78zM477 755q-26 -21 -33 -50l-1 -3q51 -10 132 -36q112 -33 112 0q0 13 -18 37q-24 30 -55 49.5t-68 24t-69 -21.5zM416 795q-7 12 -16 25.5t-16.5 23t-8.5 8.5q-17 -18 -20.5 -22.5
t-39.5 -41.5q-13 3 -15 12q-1 4 0 8q32 47 46.5 62.5t24.5 15.5q6 0 11.5 -1.5t9.5 -3t8 -6t6.5 -7.5t6.5 -11.5t6.5 -13t7.5 -16.5t8 -18q0 -2 1 -3q1 -7 -2 -13t-8 -6q-7 0 -10 8z" />
    <glyph glyph-name="Igrave" unicode="&#xcc;" horiz-adv-x="589" 
d="M465 757q-7 -27 -15 -75q2 4 4 7q18 31 26 54q9 23 4.5 37.5t-15.5 -13.5zM491 726q-15 -32 -23 -46q-13 -23 -25 -38q-1 -8 -5.5 -41t-7.5 -52q-4 -31 -14 -97q43 -8 70 -44q28 -35 38 -103q1 -3 -1.5 -6t-5.5 -3q-8 -2 -10 7q-9 62 -34 95q-25 31 -59 37
q-27 -174 -48 -252q-41 -150 -114 -189q-42 -21 -74 3t-45 66q-10 39 -10.5 83t17 97.5t51.5 98.5q45 59 120 93q32 14 62 18q2 14 6.5 47t7.5 50l3 27q-53 -57 -117 -94q-108 -59 -211 -25q-9 2 -5 10q2 8 10 6q95 -33 198 24q68 37 130 109q15 112 27 153q10 41 40 48
q26 6 37 -19q9 -24 -8 -63zM322 185q25 92 48 250q-24 -3 -52 -16q-71 -31 -113 -87q-48 -63 -61.5 -140t5.5 -124q10 -34 31.5 -54.5t48.5 -4.5q54 30 93 176zM490 853q24 -30 24 -36q0 -5 -5 -5q-11 0 -19 5.5t-12.5 12.5t-7 14.5t-4.5 11.5t-3 3q-2 4 -2 5q0 3 3 3
q12 0 26 -14z" />
    <glyph glyph-name="Iacute" unicode="&#xcd;" horiz-adv-x="589" 
d="M465 757q-7 -27 -15 -75q2 4 4 7q18 31 26 54q9 23 4.5 37.5t-15.5 -13.5zM491 726q-15 -32 -23 -46q-13 -23 -25 -38q-1 -8 -5.5 -41t-7.5 -52q-4 -31 -14 -97q43 -8 70 -44q28 -35 38 -103q1 -3 -1.5 -6t-5.5 -3q-8 -2 -10 7q-9 62 -34 95q-25 31 -59 37
q-27 -174 -48 -252q-41 -150 -114 -189q-42 -21 -74 3t-45 66q-10 39 -10.5 83t17 97.5t51.5 98.5q45 59 120 93q32 14 62 18q2 14 6.5 47t7.5 50l3 27q-53 -57 -117 -94q-108 -59 -211 -25q-9 2 -5 10q2 8 10 6q95 -33 198 24q68 37 130 109q15 112 27 153q10 41 40 48
q26 6 37 -19q9 -24 -8 -63zM322 185q25 92 48 250q-24 -3 -52 -16q-71 -31 -113 -87q-48 -63 -61.5 -140t5.5 -124q10 -34 31.5 -54.5t48.5 -4.5q54 30 93 176zM446 848q1 1 4 1q10 0 10 -9q0 -3 -21 -26t-26 -23q-13 0 -13 9q0 5 19 24t27 24z" />
    <glyph glyph-name="Icircumflex" unicode="&#xce;" horiz-adv-x="589" 
d="M465 757q-7 -27 -15 -75q2 4 4 7q18 31 26 54q9 23 4.5 37.5t-15.5 -13.5zM491 726q-15 -32 -23 -46q-13 -23 -25 -38q-1 -8 -5.5 -41t-7.5 -52q-4 -31 -14 -97q43 -8 70 -44q28 -35 38 -103q1 -3 -1.5 -6t-5.5 -3q-8 -2 -10 7q-9 62 -34 95q-25 31 -59 37
q-27 -174 -48 -252q-41 -150 -114 -189q-42 -21 -74 3t-45 66q-10 39 -10.5 83t17 97.5t51.5 98.5q45 59 120 93q32 14 62 18q2 14 6.5 47t7.5 50l3 27q-53 -57 -117 -94q-108 -59 -211 -25q-9 2 -5 10q2 8 10 6q95 -33 198 24q68 37 130 109q15 112 27 153q10 41 40 48
q26 6 37 -19q9 -24 -8 -63zM322 185q25 92 48 250q-24 -3 -52 -16q-71 -31 -113 -87q-48 -63 -61.5 -140t5.5 -124q10 -34 31.5 -54.5t48.5 -4.5q54 30 93 176zM503 835q-12 20 -19 28.5t-13 7t-9.5 -7t-12.5 -20t-18 -25.5q-11 -1 -15 7v9q39 77 54 80.5t46 -52.5
q3 -4 5 -7q1 -1 1 -3q2 -7 -1 -13.5t-8 -8.5q-5 -3 -10 5z" />
    <glyph glyph-name="Idieresis" unicode="&#xcf;" horiz-adv-x="589" 
d="M465 757q-7 -27 -15 -75q2 4 4 7q18 31 26 54q9 23 4.5 37.5t-15.5 -13.5zM491 726q-15 -32 -23 -46q-13 -23 -25 -38q-1 -8 -5.5 -41t-7.5 -52q-4 -31 -14 -97q43 -8 70 -44q28 -35 38 -103q1 -3 -1.5 -6t-5.5 -3q-8 -2 -10 7q-9 62 -34 95q-25 31 -59 37
q-27 -174 -48 -252q-41 -150 -114 -189q-42 -21 -74 3t-45 66q-10 39 -10.5 83t17 97.5t51.5 98.5q45 59 120 93q32 14 62 18q2 14 6.5 47t7.5 50l3 27q-53 -57 -117 -94q-108 -59 -211 -25q-9 2 -5 10q2 8 10 6q95 -33 198 24q68 37 130 109q15 112 27 153q10 41 40 48
q26 6 37 -19q9 -24 -8 -63zM322 185q25 92 48 250q-24 -3 -52 -16q-71 -31 -113 -87q-48 -63 -61.5 -140t5.5 -124q10 -34 31.5 -54.5t48.5 -4.5q54 30 93 176zM454 859q4 0 8 -3.5t4 -9.5q0 -9 -7 -15t-16 -6q-11 0 -11 11q0 8 7 15.5t15 7.5zM508 851q4 0 7.5 -3.5
t3.5 -9.5q0 -9 -6.5 -15t-15.5 -6q-11 0 -11 10q0 8 7 16t15 8z" />
    <glyph glyph-name="Eth" unicode="&#xd0;" horiz-adv-x="1008" 
d="M271 633q-7 -4 -12 3q-3 7 4 12q234 129 393 134h2q119 9 189 -44q65 -49 82 -135q28 -138 -50 -286.5t-200 -232.5q-104 -74 -241.5 -93.5t-252.5 20.5q-57 22 -92.5 55t-47 79.5t17.5 102.5q46 97 210 209.5t460 230.5q7 4 11 -5q4 -7 -5 -11q-293 -117 -454 -227
t-207 -204q-36 -74 0 -130.5t113 -83.5q112 -36 237 -15t215 84q108 75 174.5 192t73.5 230q5 80 -27.5 143t-98.5 89q-169 63 -494 -117zM362 312q-8 0 -8 7q0 5 3.5 9.5t8.5 4.5q1 0 99 6q-3 73 100 150q7 5 11.5 -1.5t-0.5 -11.5q-80 -65 -78 -136q13 1 39 1q90 0 90 -17
q0 -4 -4.5 -8t-8.5 -4q-44 0 -112 -2q0 -2 6 -28q10 -29 9 -63.5t-24 -63.5q-4 -6 -11 -2q-7 3 -3 11q10 19 11.5 40.5t-1.5 34.5t-10 36q-8 22 -10 34h-32q-39 0 -75 3z" />
    <glyph glyph-name="Ntilde" unicode="&#xd1;" 
d="M123 386q42 236 52 310q-48 -75 -128 -178q-4 -6 -12.5 -17t-11.5 -16q-5 -5 -11.5 -1t-2.5 11q7 8 25 33q171 226 176 270l16 -2q-13 -123 -65 -416q-34 -198 -36 -208q110 229 281 444q118 147 182 175q33 18 61.5 4.5t29.5 -63.5q1 -72 -47 -293t-54 -260
q-25 -155 -6 -172q7 -2 13.5 -1t19.5 14t22.5 23.5t23 28.5t20.5 28.5t16 23.5l9 12q3 4 8 3.5t7 -4.5t-1 -9q-1 -1 -12 -17t-21 -29t-25.5 -32.5t-29.5 -31.5t-29 -22t-27.5 -8.5t-21.5 13.5q-30 35 -6 181q11 73 51 246t48 268q4 40 -1 61.5t-17 24t-30 -6.5
q-63 -34 -170 -168q-87 -110 -172.5 -248t-131.5 -246q-15 -83 -19 -119q0 -6 -9.5 -7.5t-18.5 2t-8 11.5q16 134 63 388zM333 798v3q0 13 11 13q6 0 14 -5.5t12 -5.5q12 0 29 8t32 8q28 0 69 -22q0 -6 -3 -12.5t-8 -6.5q-2 0 -5 3q-30 12 -51 12q-17 0 -36.5 -8t-31.5 -8
q-17 0 -32 21z" />
    <glyph glyph-name="Ograve" unicode="&#xd2;" horiz-adv-x="748" 
d="M417 769q-27 11 -53.5 5t-48 -17.5t-42 -35t-36 -46t-29.5 -51t-23.5 -51t-16.5 -44.5q-17 -52 -29 -108t-19.5 -119.5t-0.5 -118.5t25.5 -99t60.5 -67t103 -17q112 8 191.5 92.5t119.5 201.5q52 151 45 283q-4 78 -39 139.5t-101 66.5q-42 3 -87 -21q-106 -61 -161 -228
q-1 -4 4 -7q14 -4 51 -2q65 2 77 -14q28 -37 -178 -192q-6 -6 -11 1q-5 6 1 12q72 54 113.5 90.5t54 54t7.5 24.5q-7 9 -63 7q-47 0 -57 3q-22 8 -15 28q54 164 157 230zM435 780q46 23 90 20q52 -3 88.5 -42t50.5 -85t17 -95q7 -134 -46 -289q-43 -124 -127 -211.5
t-198 -94.5q-89 -7 -146 35.5t-76 114.5t-17.5 158t23 167t53.5 141q120 239 288 181zM396 855q24 -30 24 -36q0 -5 -5 -5q-11 0 -19 5.5t-12.5 12.5t-7 14.5t-4.5 11.5t-3 3q-2 4 -2 5q0 3 3 3q12 0 26 -14z" />
    <glyph glyph-name="Oacute" unicode="&#xd3;" horiz-adv-x="748" 
d="M417 769q-27 11 -53.5 5t-48 -17.5t-42 -35t-36 -46t-29.5 -51t-23.5 -51t-16.5 -44.5q-17 -52 -29 -108t-19.5 -119.5t-0.5 -118.5t25.5 -99t60.5 -67t103 -17q112 8 191.5 92.5t119.5 201.5q52 151 45 283q-4 78 -39 139.5t-101 66.5q-42 3 -87 -21q-106 -61 -161 -228
q-1 -4 4 -7q14 -4 51 -2q65 2 77 -14q28 -37 -178 -192q-6 -6 -11 1q-5 6 1 12q72 54 113.5 90.5t54 54t7.5 24.5q-7 9 -63 7q-47 0 -57 3q-22 8 -15 28q54 164 157 230zM435 780q46 23 90 20q52 -3 88.5 -42t50.5 -85t17 -95q7 -134 -46 -289q-43 -124 -127 -211.5
t-198 -94.5q-89 -7 -146 35.5t-76 114.5t-17.5 158t23 167t53.5 141q120 239 288 181zM444 864q1 1 4 1q10 0 10 -9q0 -3 -21 -26t-26 -23q-13 0 -13 9q0 5 19 24t27 24z" />
    <glyph glyph-name="Ocircumflex" unicode="&#xd4;" horiz-adv-x="748" 
d="M417 769q-27 11 -53.5 5t-48 -17.5t-42 -35t-36 -46t-29.5 -51t-23.5 -51t-16.5 -44.5q-17 -52 -29 -108t-19.5 -119.5t-0.5 -118.5t25.5 -99t60.5 -67t103 -17q112 8 191.5 92.5t119.5 201.5q52 151 45 283q-4 78 -39 139.5t-101 66.5q-42 3 -87 -21q-106 -61 -161 -228
q-1 -4 4 -7q14 -4 51 -2q65 2 77 -14q28 -37 -178 -192q-6 -6 -11 1q-5 6 1 12q72 54 113.5 90.5t54 54t7.5 24.5q-7 9 -63 7q-47 0 -57 3q-22 8 -15 28q54 164 157 230zM435 780q46 23 90 20q52 -3 88.5 -42t50.5 -85t17 -95q7 -134 -46 -289q-43 -124 -127 -211.5
t-198 -94.5q-89 -7 -146 35.5t-76 114.5t-17.5 158t23 167t53.5 141q120 239 288 181zM469 842q-12 18 -20.5 27t-14 13.5t-12 -0.5t-9.5 -9.5t-11.5 -19t-14.5 -23.5q-11 -1 -15 8q-1 3 0 8q37 77 53 81t48 -46q8 -12 13 -18q1 -1 1 -3q3 -8 0 -14.5t-8 -8.5q-6 -2 -10 5z
" />
    <glyph glyph-name="Otilde" unicode="&#xd5;" horiz-adv-x="748" 
d="M417 769q-27 11 -53.5 5t-48 -17.5t-42 -35t-36 -46t-29.5 -51t-23.5 -51t-16.5 -44.5q-17 -52 -29 -108t-19.5 -119.5t-0.5 -118.5t25.5 -99t60.5 -67t103 -17q112 8 191.5 92.5t119.5 201.5q52 151 45 283q-4 78 -39 139.5t-101 66.5q-42 3 -87 -21q-106 -61 -161 -228
q-1 -4 4 -7q14 -4 51 -2q65 2 77 -14q28 -37 -178 -192q-6 -6 -11 1q-5 6 1 12q72 54 113.5 90.5t54 54t7.5 24.5q-7 9 -63 7q-47 0 -57 3q-22 8 -15 28q54 164 157 230zM435 780q46 23 90 20q52 -3 88.5 -42t50.5 -85t17 -95q7 -134 -46 -289q-43 -124 -127 -211.5
t-198 -94.5q-89 -7 -146 35.5t-76 114.5t-17.5 158t23 167t53.5 141q120 239 288 181zM356 835v3q0 13 11 13q6 0 14 -5.5t12 -5.5q12 0 29 8t32 8q28 0 69 -22q0 -6 -3 -12.5t-8 -6.5q-2 0 -5 3q-30 12 -51 12q-17 0 -36.5 -8t-31.5 -8q-17 0 -32 21z" />
    <glyph glyph-name="Odieresis" unicode="&#xd6;" horiz-adv-x="748" 
d="M417 769q-27 11 -53.5 5t-48 -17.5t-42 -35t-36 -46t-29.5 -51t-23.5 -51t-16.5 -44.5q-17 -52 -29 -108t-19.5 -119.5t-0.5 -118.5t25.5 -99t60.5 -67t103 -17q112 8 191.5 92.5t119.5 201.5q52 151 45 283q-4 78 -39 139.5t-101 66.5q-42 3 -87 -21q-106 -61 -161 -228
q-1 -4 4 -7q14 -4 51 -2q65 2 77 -14q28 -37 -178 -192q-6 -6 -11 1q-5 6 1 12q72 54 113.5 90.5t54 54t7.5 24.5q-7 9 -63 7q-47 0 -57 3q-22 8 -15 28q54 164 157 230zM435 780q46 23 90 20q52 -3 88.5 -42t50.5 -85t17 -95q7 -134 -46 -289q-43 -124 -127 -211.5
t-198 -94.5q-89 -7 -146 35.5t-76 114.5t-17.5 158t23 167t53.5 141q120 239 288 181zM419 848q4 0 8 -3.5t4 -9.5q0 -9 -7 -15t-16 -6q-11 0 -11 11q0 8 7 15.5t15 7.5zM485 846q3 0 7 -4t4 -9q0 -9 -6.5 -15t-15.5 -6q-11 0 -11 10q0 8 7 16t15 8z" />
    <glyph glyph-name="Oslash" unicode="&#xd8;" horiz-adv-x="748" 
d="M453 849q-8 -20 -20 -69h2q46 23 90 20q52 -3 88.5 -42t50.5 -85t17 -95q7 -134 -46 -289q-43 -124 -127 -211.5t-198 -94.5q-31 -2 -52 1q-4 -36 -3 -41q0 -7 -6 -11q-11 -4 -17 5q-6 12 -2 42q0 6 1 9q-64 15 -103 66.5t-50 120.5t-5.5 147.5t25.5 150.5t49 126
q110 219 260 188q13 43 21 61q6 14 22 25q6 3 8 0q3 -5 -5 -24zM308 0q112 8 191.5 92.5t119.5 201.5q52 151 45 283q-4 78 -39 139.5t-101 66.5q-42 3 -87 -21l-11 -7q-28 -106 -56 -230q28 -2 38 -14q19 -25 -64 -100q-64 -285 -84 -411q22 -1 48 0zM168 529
q-23 -71 -36.5 -148t-15 -157.5t28 -140.5t88.5 -77q16 133 70 370q-38 -31 -73 -57q-6 -6 -11 1q-5 6 1 12q77 59 88 69l25 107h-1q-47 0 -57 3q-22 8 -15 28q49 146 137 216l6 17q-35 7 -68.5 -7.5t-58.5 -41t-47.5 -64t-36 -68.5t-24.5 -62zM276 534q-1 -4 4 -7
q14 -4 51 -2h6q26 109 52 201q-71 -66 -113 -192zM395 501q-6 7 -29 7l-17 -72q56 50 46 65z" />
    <glyph glyph-name="Ugrave" unicode="&#xd9;" horiz-adv-x="765" 
d="M334 785q-83 -94 -144 -293q-60 -194 -47 -326q10 -87 55 -135t123 -12q135 56 241 249q19 142 74 396q22 95 50 129q9 11 17.5 15.5t16 -1.5t8.5 -26q0 -32 -7 -86q-27 -186 -107 -362q-8 -49 -14 -97t-9.5 -119.5t13.5 -107t54 -18.5q5 2 8.5 -1t3 -8t-4.5 -7
q-20 -8 -36 -8t-27.5 7t-20.5 19t-14 29t-8.5 35t-4.5 39t-1.5 39t1 37t2.5 31t2 23q-111 -172 -230 -223q-99 -38 -160 11t-68 148q-13 138 45 326q59 197 144 300q7 7 35 9q14 1 15 -4zM627 407q55 143 77 291q7 43 7 73l-2 -6q-2 -6 -5.5 -17t-8 -24t-9 -30t-7.5 -32
q-37 -172 -52 -255zM507 809q24 -30 24 -36q0 -5 -5 -5q-11 0 -19 5.5t-12.5 12.5t-7 14.5t-4.5 11.5t-3 3q-2 4 -2 5q0 3 3 3q12 0 26 -14z" />
    <glyph glyph-name="Uacute" unicode="&#xda;" horiz-adv-x="765" 
d="M334 785q-83 -94 -144 -293q-60 -194 -47 -326q10 -87 55 -135t123 -12q135 56 241 249q19 142 74 396q22 95 50 129q9 11 17.5 15.5t16 -1.5t8.5 -26q0 -32 -7 -86q-27 -186 -107 -362q-8 -49 -14 -97t-9.5 -119.5t13.5 -107t54 -18.5q5 2 8.5 -1t3 -8t-4.5 -7
q-20 -8 -36 -8t-27.5 7t-20.5 19t-14 29t-8.5 35t-4.5 39t-1.5 39t1 37t2.5 31t2 23q-111 -172 -230 -223q-99 -38 -160 11t-68 148q-13 138 45 326q59 197 144 300q7 7 35 9q14 1 15 -4zM627 407q55 143 77 291q7 43 7 73l-2 -6q-2 -6 -5.5 -17t-8 -24t-9 -30t-7.5 -32
q-37 -172 -52 -255zM519 806q1 1 4 1q10 0 10 -9q0 -3 -21 -26t-26 -23q-13 0 -13 9q0 5 19 24t27 24z" />
    <glyph glyph-name="Ucircumflex" unicode="&#xdb;" horiz-adv-x="765" 
d="M334 785q-83 -94 -144 -293q-60 -194 -47 -326q10 -87 55 -135t123 -12q135 56 241 249q19 142 74 396q22 95 50 129q9 11 17.5 15.5t16 -1.5t8.5 -26q0 -32 -7 -86q-27 -186 -107 -362q-8 -49 -14 -97t-9.5 -119.5t13.5 -107t54 -18.5q5 2 8.5 -1t3 -8t-4.5 -7
q-20 -8 -36 -8t-27.5 7t-20.5 19t-14 29t-8.5 35t-4.5 39t-1.5 39t1 37t2.5 31t2 23q-111 -172 -230 -223q-99 -38 -160 11t-68 148q-13 138 45 326q59 197 144 300q7 7 35 9q14 1 15 -4zM627 407q55 143 77 291q7 43 7 73l-2 -6q-2 -6 -5.5 -17t-8 -24t-9 -30t-7.5 -32
q-37 -172 -52 -255zM543 765q-7 10 -13.5 19.5t-14 20.5t-13 17t-6.5 5q-5 -8 -57 -82q-11 -1 -15 8q-1 4 0 8q51 96 67 100q7 -1 10.5 1.5t9 -1.5t8 -4.5t7.5 -7.5t7 -9.5t6.5 -11.5t7 -13.5t7 -14.5t7.5 -16q0 -2 1 -3q2 -7 -1.5 -13.5t-8.5 -8.5q-6 -3 -9 6z" />
    <glyph glyph-name="Udieresis" unicode="&#xdc;" horiz-adv-x="765" 
d="M334 785q-83 -94 -144 -293q-60 -194 -47 -326q10 -87 55 -135t123 -12q135 56 241 249q19 142 74 396q22 95 50 129q9 11 17.5 15.5t16 -1.5t8.5 -26q0 -32 -7 -86q-27 -186 -107 -362q-8 -49 -14 -97t-9.5 -119.5t13.5 -107t54 -18.5q5 2 8.5 -1t3 -8t-4.5 -7
q-20 -8 -36 -8t-27.5 7t-20.5 19t-14 29t-8.5 35t-4.5 39t-1.5 39t1 37t2.5 31t2 23q-111 -172 -230 -223q-99 -38 -160 11t-68 148q-13 138 45 326q59 197 144 300q7 7 35 9q14 1 15 -4zM627 407q55 143 77 291q7 43 7 73l-2 -6q-2 -6 -5.5 -17t-8 -24t-9 -30t-7.5 -32
q-37 -172 -52 -255zM463 803q4 0 8 -3.5t4 -9.5q0 -9 -7 -15t-16 -6q-11 0 -11 11q0 8 7 15.5t15 7.5zM528 804q4 0 7.5 -4t3.5 -9q0 -9 -6.5 -15t-15.5 -6q-11 0 -11 10q0 8 7 16t15 8z" />
    <glyph glyph-name="Yacute" unicode="&#xdd;" horiz-adv-x="918" 
d="M417 787q-239 -268 -273 -361q-15 -44 29 -35q23 4 83 34q112 59 254 171t198 188q19 22 26 -13q5 -29 -3 -65q-20 -116 -79 -249q102 -24 213 -85q5 -3 5 -7t-4 -7t-9 -1q-113 62 -211 84q-155 -349 -321 -425q-73 -33 -113.5 5t-37.5 115t43 154q52 95 152 147t243 28
q73 177 80 272q-73 -79 -201 -176.5t-227 -150.5q-70 -41 -122 -40q-63 1 -31 82q46 108 257 334q25 25 48 22q17 -2 4 -18zM605 449q-135 21 -229.5 -28t-143.5 -139q-52 -99 -35 -184q14 -65 62 -73q34 -5 76 24q134 92 270 400zM552 798q1 1 4 1q10 0 10 -9q0 -3 -21 -26
t-26 -23q-13 0 -13 9q0 5 19 24t27 24z" />
    <glyph glyph-name="agrave" unicode="&#xe0;" horiz-adv-x="539" 
d="M132 302q-2 15 -10.5 21.5t-20 4.5t-22 -6.5t-20.5 -11.5q-26 -19 -46.5 -54t-22.5 -57q-2 -21 14.5 -22t30.5 8q45 23 97 117zM142 323q6 14 13 36q-1 8 14 15q26 12 33 -21q4 -21 -1 -56q-15 -93 1 -117q11 -18 38 -19q48 4 108.5 30.5t94.5 47t96 61.5q4 3 8 0.5
t4.5 -7t-3.5 -7.5q-220 -144 -323 -143q-18 0 -31.5 6t-22 14t-13 22.5t-6 25t-1 30t2 29t4 30t3.5 25.5q-20 -49 -55 -94.5t-73 -63.5q-38 -19 -60.5 -2t-12.5 61q7 34 34 68.5t68 47.5q18 8 43.5 4t36.5 -23zM133 434q24 -30 24 -36q0 -5 -5 -5q-11 0 -19 5.5t-12.5 12.5
t-7 14.5t-4.5 11.5t-3 3q-2 4 -2 5q0 3 3 3q12 0 26 -14z" />
    <glyph glyph-name="aacute" unicode="&#xe1;" horiz-adv-x="539" 
d="M132 302q-2 15 -10.5 21.5t-20 4.5t-22 -6.5t-20.5 -11.5q-26 -19 -46.5 -54t-22.5 -57q-2 -21 14.5 -22t30.5 8q45 23 97 117zM142 323q6 14 13 36q-1 8 14 15q26 12 33 -21q4 -21 -1 -56q-15 -93 1 -117q11 -18 38 -19q48 4 108.5 30.5t94.5 47t96 61.5q4 3 8 0.5
t4.5 -7t-3.5 -7.5q-220 -144 -323 -143q-18 0 -31.5 6t-22 14t-13 22.5t-6 25t-1 30t2 29t4 30t3.5 25.5q-20 -49 -55 -94.5t-73 -63.5q-38 -19 -60.5 -2t-12.5 61q7 34 34 68.5t68 47.5q18 8 43.5 4t36.5 -23zM140 425q1 1 4 1q10 0 10 -9q0 -3 -21 -26t-26 -23
q-13 0 -13 9q0 5 19 24t27 24z" />
    <glyph glyph-name="acircumflex" unicode="&#xe2;" horiz-adv-x="539" 
d="M132 302q-2 15 -10.5 21.5t-20 4.5t-22 -6.5t-20.5 -11.5q-26 -19 -46.5 -54t-22.5 -57q-2 -21 14.5 -22t30.5 8q45 23 97 117zM142 323q6 14 13 36q-1 8 14 15q26 12 33 -21q4 -21 -1 -56q-15 -93 1 -117q11 -18 38 -19q48 4 108.5 30.5t94.5 47t96 61.5q4 3 8 0.5
t4.5 -7t-3.5 -7.5q-220 -144 -323 -143q-18 0 -31.5 6t-22 14t-13 22.5t-6 25t-1 30t2 29t4 30t3.5 25.5q-20 -49 -55 -94.5t-73 -63.5q-38 -19 -60.5 -2t-12.5 61q7 34 34 68.5t68 47.5q18 8 43.5 4t36.5 -23zM158 408q-6 11 -10.5 17.5t-6 7.5t-2.5 2t-2 3q-6 12 -41 -36
q-4 0 -10 -1q-3 -1 -3 2q0 1 1 3q34 60 54 60q4 0 6 -1.5t5 -6t5.5 -10t8.5 -16t12 -21.5q1 -6 -2 -10t-7.5 -2.5t-7.5 9.5z" />
    <glyph glyph-name="atilde" unicode="&#xe3;" horiz-adv-x="539" 
d="M132 302q-2 15 -10.5 21.5t-20 4.5t-22 -6.5t-20.5 -11.5q-26 -19 -46.5 -54t-22.5 -57q-2 -21 14.5 -22t30.5 8q45 23 97 117zM142 323q6 14 13 36q-1 8 14 15q26 12 33 -21q4 -21 -1 -56q-15 -93 1 -117q11 -18 38 -19q48 4 108.5 30.5t94.5 47t96 61.5q4 3 8 0.5
t4.5 -7t-3.5 -7.5q-220 -144 -323 -143q-18 0 -31.5 6t-22 14t-13 22.5t-6 25t-1 30t2 29t4 30t3.5 25.5q-20 -49 -55 -94.5t-73 -63.5q-38 -19 -60.5 -2t-12.5 61q7 34 34 68.5t68 47.5q18 8 43.5 4t36.5 -23zM14 415v3q0 13 11 13q6 0 14 -5.5t12 -5.5q12 0 29 8t32 8
q28 0 69 -22q0 -6 -3 -12.5t-8 -6.5q-2 0 -5 3q-30 12 -51 12q-17 0 -36.5 -8t-31.5 -8q-17 0 -32 21z" />
    <glyph glyph-name="adieresis" unicode="&#xe4;" horiz-adv-x="539" 
d="M132 302q-2 15 -10.5 21.5t-20 4.5t-22 -6.5t-20.5 -11.5q-26 -19 -46.5 -54t-22.5 -57q-2 -21 14.5 -22t30.5 8q45 23 97 117zM142 323q6 14 13 36q-1 8 14 15q26 12 33 -21q4 -21 -1 -56q-15 -93 1 -117q11 -18 38 -19q48 4 108.5 30.5t94.5 47t96 61.5q4 3 8 0.5
t4.5 -7t-3.5 -7.5q-220 -144 -323 -143q-18 0 -31.5 6t-22 14t-13 22.5t-6 25t-1 30t2 29t4 30t3.5 25.5q-20 -49 -55 -94.5t-73 -63.5q-38 -19 -60.5 -2t-12.5 61q7 34 34 68.5t68 47.5q18 8 43.5 4t36.5 -23zM66 415q4 0 8 -3.5t4 -9.5q0 -9 -7 -15t-16 -6q-11 0 -11 11
q0 8 7 15.5t15 7.5zM117 418q3 0 7 -4t4 -9q0 -9 -6.5 -15t-15.5 -6q-11 0 -11 10q0 8 7 16t15 8z" />
    <glyph glyph-name="aring" unicode="&#xe5;" horiz-adv-x="539" 
d="M132 302q-2 15 -10.5 21.5t-20 4.5t-22 -6.5t-20.5 -11.5q-26 -19 -46.5 -54t-22.5 -57q-2 -21 14.5 -22t30.5 8q45 23 97 117zM142 323q6 14 13 36q-1 8 14 15q26 12 33 -21q4 -21 -1 -56q-15 -93 1 -117q11 -18 38 -19q48 4 108.5 30.5t94.5 47t96 61.5q4 3 8 0.5
t4.5 -7t-3.5 -7.5q-220 -144 -323 -143q-18 0 -31.5 6t-22 14t-13 22.5t-6 25t-1 30t2 29t4 30t3.5 25.5q-20 -49 -55 -94.5t-73 -63.5q-38 -19 -60.5 -2t-12.5 61q7 34 34 68.5t68 47.5q18 8 43.5 4t36.5 -23zM111 416q-5 0 -10.5 -6t-5.5 -12q0 -9 8 -9q6 0 11.5 5.5
t5.5 11.5q0 10 -9 10zM111 420q13 0 13 -12q0 -9 -7 -15.5t-14 -6.5q-11 0 -11 13q0 7 6.5 14t12.5 7z" />
    <glyph glyph-name="ae" unicode="&#xe6;" horiz-adv-x="618" 
d="M439 165q6 1 6 -3q0 -9 -18 -14q-2 -1 -5 -1h-17q-57 1 -84.5 25.5t-27 63.5t10.5 89q-20 -49 -55 -94.5t-73 -63.5q-38 -19 -60.5 -2t-12.5 61q7 34 34 68.5t68 47.5q18 8 43.5 4t36.5 -23q6 14 13 36q-1 7 13 14q26 13 34 -18q2 -11 2 -27q39 39 90 45q60 7 77 -14
q13 -16 -20 -35q-41 -24 -125 -30q-37 -43 -22.5 -82.5t71.5 -46.5q9 -1 21 0zM275 302q-2 15 -10.5 21.5t-20 4.5t-22 -6.5t-20.5 -11.5q-26 -19 -46.5 -54t-22.5 -57q-2 -21 14.5 -22t30.5 8q45 23 97 117zM387 313q77 8 105 23q19 12 2 17q-19 4 -45 -5q-35 -12 -62 -35z
" />
    <glyph glyph-name="ccedilla" unicode="&#xe7;" horiz-adv-x="473" 
d="M98 129q0 -20 -14 -39.5t-34 -19.5q-12 0 -18.5 7t-6.5 16q0 16 11 16q4 0 9 -7.5t9 -7.5q9 0 15.5 9t6.5 19q0 2 -3 14q-83 3 -99 63q-13 55 33 112q38 48 97 64q72 18 105 -6q27 -19 8 -48q-2 -5 -7 -4.5t-7 4t0 8.5q10 17 -3 26q-34 24 -95 -5q-44 -22 -73 -69
t-14.5 -86.5t81.5 -39.5q42 0 112 24q72 23 146.5 58.5t115.5 62.5q4 3 8 0.5t4.5 -7t-3.5 -7.5q-42 -28 -117.5 -64.5t-148.5 -59.5q-71 -22 -119 -26q0 -1 0.5 -3t0.5 -4z" />
    <glyph glyph-name="egrave" unicode="&#xe8;" horiz-adv-x="471" 
d="M61 313q77 8 105 23q19 12 2 17q-19 5 -45 -5q-35 -12 -62 -35zM43 294q-37 -43 -22.5 -82.5t71.5 -46.5q40 -5 157 34q134 46 222 101q7 4 11 -3t-2 -12q-101 -60 -225 -102q-112 -38 -176 -36q-87 3 -101 64q-12 52 32 105q41 50 101 57t77 -14q13 -16 -20 -35
q-41 -24 -125 -30zM147 440q24 -30 24 -36q0 -5 -5 -5q-11 0 -19 5.5t-12.5 12.5t-7 14.5t-4.5 11.5t-3 3q-2 4 -2 5q0 3 3 3q12 0 26 -14z" />
    <glyph glyph-name="eacute" unicode="&#xe9;" horiz-adv-x="471" 
d="M61 313q77 8 105 23q19 12 2 17q-19 5 -45 -5q-35 -12 -62 -35zM43 294q-37 -43 -22.5 -82.5t71.5 -46.5q40 -5 157 34q134 46 222 101q7 4 11 -3t-2 -12q-101 -60 -225 -102q-112 -38 -176 -36q-87 3 -101 64q-12 52 32 105q41 50 101 57t77 -14q13 -16 -20 -35
q-41 -24 -125 -30zM113 451q1 1 4 1q10 0 10 -9q0 -3 -21 -26t-26 -23q-13 0 -13 9q0 5 19 24t27 24z" />
    <glyph glyph-name="ecircumflex" unicode="&#xea;" horiz-adv-x="471" 
d="M61 313q77 8 105 23q19 12 2 17q-19 5 -45 -5q-35 -12 -62 -35zM43 294q-37 -43 -22.5 -82.5t71.5 -46.5q40 -5 157 34q134 46 222 101q7 4 11 -3t-2 -12q-101 -60 -225 -102q-112 -38 -176 -36q-87 3 -101 64q-12 52 32 105q41 50 101 57t77 -14q13 -16 -20 -35
q-41 -24 -125 -30zM158 408q-6 11 -10.5 17.5t-6 7.5t-2.5 2t-2 3q-6 12 -41 -36q-4 0 -10 -1q-3 -1 -3 2q0 1 1 3q34 60 54 60q4 0 6 -1.5t5 -6t5.5 -10t8.5 -16t12 -21.5q1 -6 -2 -10t-7.5 -2.5t-7.5 9.5z" />
    <glyph glyph-name="edieresis" unicode="&#xeb;" horiz-adv-x="471" 
d="M61 313q77 8 105 23q19 12 2 17q-19 5 -45 -5q-35 -12 -62 -35zM43 294q-37 -43 -22.5 -82.5t71.5 -46.5q40 -5 157 34q134 46 222 101q7 4 11 -3t-2 -12q-101 -60 -225 -102q-112 -38 -176 -36q-87 3 -101 64q-12 52 32 105q41 50 101 57t77 -14q13 -16 -20 -35
q-41 -24 -125 -30zM89 441q4 0 8 -3.5t4 -9.5q0 -9 -7 -15t-16 -6q-11 0 -11 11q0 8 7 15.5t15 7.5zM136 441q4 0 7.5 -3.5t3.5 -9.5q0 -9 -6.5 -15t-15.5 -6q-11 0 -11 10q0 8 7 16t15 8z" />
    <glyph glyph-name="igrave" unicode="&#xec;" horiz-adv-x="376" 
d="M-1 320q-7 4 -4 12q3 5 15.5 8t23 -4t8.5 -26q0 -4 -10 -43q-21 -69 -12 -92q8 -16 27 -20q45 -1 119 31t210 114q5 2 9 -0.5t4 -6.5t-4 -7q-241 -144 -329 -146q-28 -1 -45 7t-24 19t-7 31.5t2.5 34.5t8.5 38q13 48 8 50zM30 413q24 -30 24 -36q0 -5 -5 -5
q-11 0 -19 5.5t-12.5 12.5t-7 14.5t-4.5 11.5t-3 3q-2 4 -2 5q0 3 3 3q12 0 26 -14z" />
    <glyph glyph-name="iacute" unicode="&#xed;" horiz-adv-x="376" 
d="M-1 320q-7 4 -4 12q3 5 15.5 8t23 -4t8.5 -26q0 -4 -10 -43q-21 -69 -12 -92q8 -16 27 -20q45 -1 119 31t210 114q5 2 9 -0.5t4 -6.5t-4 -7q-241 -144 -329 -146q-28 -1 -45 7t-24 19t-7 31.5t2.5 34.5t8.5 38q13 48 8 50zM44 437q1 1 4 1q10 0 10 -9q0 -3 -21 -26
t-26 -23q-13 0 -13 9q0 5 19 24t27 24z" />
    <glyph glyph-name="icircumflex" unicode="&#xee;" horiz-adv-x="376" 
d="M-1 320q-7 4 -4 12q3 5 15.5 8t23 -4t8.5 -26q0 -4 -10 -43q-21 -69 -12 -92q8 -16 27 -20q45 -1 119 31t210 114q5 2 9 -0.5t4 -6.5t-4 -7q-241 -144 -329 -146q-28 -1 -45 7t-24 19t-7 31.5t2.5 34.5t8.5 38q13 48 8 50zM44 379q-6 11 -10.5 17.5t-6 7.5t-2.5 2t-2 3
q-6 12 -41 -36q-4 0 -10 -1q-3 -1 -3 2q0 1 1 3q34 60 54 60q4 0 6 -1.5t5 -6t5.5 -10t8.5 -16t12 -21.5q1 -6 -2 -10t-7.5 -2.5t-7.5 9.5z" />
    <glyph glyph-name="idieresis" unicode="&#xef;" horiz-adv-x="376" 
d="M-1 320q-7 4 -4 12q3 5 15.5 8t23 -4t8.5 -26q0 -4 -10 -43q-21 -69 -12 -92q8 -16 27 -20q45 -1 119 31t210 114q5 2 9 -0.5t4 -6.5t-4 -7q-241 -144 -329 -146q-28 -1 -45 7t-24 19t-7 31.5t2.5 34.5t8.5 38q13 48 8 50zM-3 427q4 0 8 -3.5t4 -9.5q0 -9 -7 -15t-16 -6
q-11 0 -11 11q0 8 7 15.5t15 7.5zM52 426q4 0 7.5 -4t3.5 -9q0 -9 -6.5 -15t-15.5 -6q-11 0 -11 10q0 8 7 16t15 8z" />
    <glyph glyph-name="ntilde" unicode="&#xf1;" horiz-adv-x="506" 
d="M2 312q6 22 25 14q17 -8 13 -24q0 -2 -1 -4q-3 -13 -13 -42.5t-13 -42.5q87 87 143 122q60 38 94 21t10 -85q-5 -17 -7.5 -28.5t-2.5 -25.5t6 -19.5t17.5 -9t32.5 4.5q93 27 200 107q7 4 11.5 -2.5t-1.5 -11.5q-40 -30 -99 -62t-107 -47q-59 -19 -84.5 10t-4.5 87
q15 54 -2 64t-54 -17q-53 -35 -103.5 -82t-66.5 -75l-10 -22q-4 -10 -20 -8q-8 2 -8 6q19 70 45 172zM36 396v3q0 13 11 13q6 0 14 -5.5t12 -5.5q12 0 29 8t32 8q28 0 69 -22q0 -6 -3 -12.5t-8 -6.5q-2 0 -5 3q-30 12 -51 12q-17 0 -36.5 -8t-31.5 -8q-17 0 -32 21z" />
    <glyph glyph-name="ograve" unicode="&#xf2;" horiz-adv-x="337" 
d="M152 324q12 2 24 -15q14 -14 24 -21.5t31 -15.5t48 -1t58 29q7 5 12 -2t-2 -12q-59 -40 -100.5 -35.5t-88.5 53.5q-8 -67 -42 -97q-26 -21 -56.5 -22.5t-51.5 23.5q-19 26 -13 67.5t34 65.5q30 26 66.5 20t56.5 -37zM114 230q23 28 27 74q-14 39 -50 39.5t-54 -33.5
q-11 -21 -13 -46.5t8 -43.5q17 -21 42 -15t40 25zM95 426q24 -30 24 -36q0 -5 -5 -5q-11 0 -19 5.5t-12.5 12.5t-7 14.5t-4.5 11.5t-3 3q-2 4 -2 5q0 3 3 3q12 0 26 -14z" />
    <glyph glyph-name="oacute" unicode="&#xf3;" horiz-adv-x="337" 
d="M152 324q12 2 24 -15q14 -14 24 -21.5t31 -15.5t48 -1t58 29q7 5 12 -2t-2 -12q-59 -40 -100.5 -35.5t-88.5 53.5q-8 -67 -42 -97q-26 -21 -56.5 -22.5t-51.5 23.5q-19 26 -13 67.5t34 65.5q30 26 66.5 20t56.5 -37zM114 230q23 28 27 74q-14 39 -50 39.5t-54 -33.5
q-11 -21 -13 -46.5t8 -43.5q17 -21 42 -15t40 25zM123 457q1 1 4 1q10 0 10 -9q0 -3 -21 -26t-26 -23q-13 0 -13 9q0 5 19 24t27 24z" />
    <glyph glyph-name="ocircumflex" unicode="&#xf4;" horiz-adv-x="337" 
d="M152 324q12 2 24 -15q14 -14 24 -21.5t31 -15.5t48 -1t58 29q7 5 12 -2t-2 -12q-59 -40 -100.5 -35.5t-88.5 53.5q-8 -67 -42 -97q-26 -21 -56.5 -22.5t-51.5 23.5q-19 26 -13 67.5t34 65.5q30 26 66.5 20t56.5 -37zM114 230q23 28 27 74q-14 39 -50 39.5t-54 -33.5
q-11 -21 -13 -46.5t8 -43.5q17 -21 42 -15t40 25zM158 408q-6 11 -10.5 17.5t-6 7.5t-2.5 2t-2 3q-6 12 -41 -36q-4 0 -10 -1q-3 -1 -3 2q0 1 1 3q34 60 54 60q4 0 6 -1.5t5 -6t5.5 -10t8.5 -16t12 -21.5q1 -6 -2 -10t-7.5 -2.5t-7.5 9.5z" />
    <glyph glyph-name="otilde" unicode="&#xf5;" horiz-adv-x="337" 
d="M152 324q12 2 24 -15q14 -14 24 -21.5t31 -15.5t48 -1t58 29q7 5 12 -2t-2 -12q-59 -40 -100.5 -35.5t-88.5 53.5q-8 -67 -42 -97q-26 -21 -56.5 -22.5t-51.5 23.5q-19 26 -13 67.5t34 65.5q30 26 66.5 20t56.5 -37zM114 230q23 28 27 74q-14 39 -50 39.5t-54 -33.5
q-11 -21 -13 -46.5t8 -43.5q17 -21 42 -15t40 25zM17 410v3q0 13 11 13q6 0 14 -5.5t12 -5.5q12 0 29 8t32 8q28 0 69 -22q0 -6 -3 -12.5t-8 -6.5q-2 0 -5 3q-30 12 -51 12q-17 0 -36.5 -8t-31.5 -8q-17 0 -32 21z" />
    <glyph glyph-name="odieresis" unicode="&#xf6;" horiz-adv-x="337" 
d="M152 324q12 2 24 -15q14 -14 24 -21.5t31 -15.5t48 -1t58 29q7 5 12 -2t-2 -12q-59 -40 -100.5 -35.5t-88.5 53.5q-8 -67 -42 -97q-26 -21 -56.5 -22.5t-51.5 23.5q-19 26 -13 67.5t34 65.5q30 26 66.5 20t56.5 -37zM114 230q23 28 27 74q-14 39 -50 39.5t-54 -33.5
q-11 -21 -13 -46.5t8 -43.5q17 -21 42 -15t40 25zM62 423q4 0 8 -3.5t4 -9.5q0 -9 -7 -15t-16 -6q-11 0 -11 11q0 8 7 15.5t15 7.5zM118 425q4 0 7.5 -3.5t3.5 -9.5q0 -9 -6.5 -15t-15.5 -6q-11 0 -11 10q0 8 7 16t15 8z" />
    <glyph glyph-name="divide" unicode="&#xf7;" horiz-adv-x="543" 
d="M262 219q6 10 16 10q4 0 8 -3.5t4 -9.5q0 -9 -7 -15.5t-16 -6.5q-11 0 -11 11q0 6 6 14zM281 385q6 9 15 9q4 0 8 -3.5t4 -8.5q0 -9 -7 -15.5t-15 -6.5q-11 0 -11 11q0 6 6 14zM108 301q-8 0 -8 7q0 5 3.5 9.5t8.5 4.5q42 0 116 1.5t115 1.5q3 0 18 0.5t26.5 0t25.5 -1
t22 -2.5t8 -6q0 -5 -5.5 -9.5t-13.5 -4.5q-33 0 -108 -2.5t-112 -2.5q-56 0 -96 4z" />
    <glyph glyph-name="oslash" unicode="&#xf8;" horiz-adv-x="337" 
d="M203 704q-21 -56 -80 -353q17 -9 29 -27q12 2 24 -15q14 -14 24 -21.5t31 -15.5t48 -1t58 29q7 5 12 -2t-2 -12q-59 -40 -100.5 -35.5t-88.5 53.5q-8 -67 -42 -97q-11 -10 -24 -14q-51 -279 -48 -329q0 -7 -6 -11q-11 -4 -17 5q-6 12 -2 42q7 86 41 284q-35 -2 -52 24
q-19 26 -13 67.5t34 65.5q28 25 64 20q56 275 85 342q6 14 22 25q6 3 8 0q3 -5 -5 -24zM37 310q-11 -21 -13 -46.5t8 -43.5q10 -19 32 -17q11 64 26 140q-34 0 -53 -33zM114 230q23 28 27 74q-7 20 -22 30q-5 -25 -22 -119q9 5 17 15z" />
    <glyph glyph-name="ugrave" unicode="&#xf9;" horiz-adv-x="479" 
d="M46 352l30 -3q17 -3 5 -10q-26 -15 -45 -61q-12 -28 -13 -50q0 -17 4.5 -26.5t13.5 -10.5t16.5 0t21 8.5t19 11t17.5 11.5q39 27 75 63q35 34 61 69q8 23 29 16q18 -5 14 -19q-28 -68 -28 -128q0 -57 46 -44q56 17 167 121q4 4 8.5 2t5.5 -6t-2 -8q-117 -109 -175 -125
q-34 -11 -58 0t-31 42q-7 37 10 105q-10 -12 -35 -37q-40 -38 -78 -65q-120 -79 -141 -5q-10 36 11 86q19 44 52 63zM165 434q24 -30 24 -36q0 -5 -5 -5q-11 0 -19 5.5t-12.5 12.5t-7 14.5t-4.5 11.5t-3 3q-2 4 -2 5q0 3 3 3q12 0 26 -14z" />
    <glyph glyph-name="uacute" unicode="&#xfa;" horiz-adv-x="479" 
d="M46 352l30 -3q17 -3 5 -10q-26 -15 -45 -61q-12 -28 -13 -50q0 -17 4.5 -26.5t13.5 -10.5t16.5 0t21 8.5t19 11t17.5 11.5q39 27 75 63q35 34 61 69q8 23 29 16q18 -5 14 -19q-28 -68 -28 -128q0 -57 46 -44q56 17 167 121q4 4 8.5 2t5.5 -6t-2 -8q-117 -109 -175 -125
q-34 -11 -58 0t-31 42q-7 37 10 105q-10 -12 -35 -37q-40 -38 -78 -65q-120 -79 -141 -5q-10 36 11 86q19 44 52 63zM182 424q1 1 4 1q10 0 10 -9q0 -3 -21 -26t-26 -23q-13 0 -13 9q0 5 19 24t27 24z" />
    <glyph glyph-name="ucircumflex" unicode="&#xfb;" horiz-adv-x="479" 
d="M46 352l30 -3q17 -3 5 -10q-26 -15 -45 -61q-12 -28 -13 -50q0 -17 4.5 -26.5t13.5 -10.5t16.5 0t21 8.5t19 11t17.5 11.5q39 27 75 63q35 34 61 69q8 23 29 16q18 -5 14 -19q-28 -68 -28 -128q0 -57 46 -44q56 17 167 121q4 4 8.5 2t5.5 -6t-2 -8q-117 -109 -175 -125
q-34 -11 -58 0t-31 42q-7 37 10 105q-10 -12 -35 -37q-40 -38 -78 -65q-120 -79 -141 -5q-10 36 11 86q19 44 52 63zM175 375q-6 11 -10.5 17.5t-6 7.5t-2.5 2t-2 3q-6 12 -41 -36q-4 0 -10 -1q-3 -1 -3 2q0 1 1 3q34 60 54 60q4 0 6 -1.5t5 -6t5.5 -10t8.5 -16t12 -21.5
q1 -6 -2 -10t-7.5 -2.5t-7.5 9.5z" />
    <glyph glyph-name="udieresis" unicode="&#xfc;" horiz-adv-x="479" 
d="M46 352l30 -3q17 -3 5 -10q-26 -15 -45 -61q-12 -28 -13 -50q0 -17 4.5 -26.5t13.5 -10.5t16.5 0t21 8.5t19 11t17.5 11.5q39 27 75 63q35 34 61 69q8 23 29 16q18 -5 14 -19q-28 -68 -28 -128q0 -57 46 -44q56 17 167 121q4 4 8.5 2t5.5 -6t-2 -8q-117 -109 -175 -125
q-34 -11 -58 0t-31 42q-7 37 10 105q-10 -12 -35 -37q-40 -38 -78 -65q-120 -79 -141 -5q-10 36 11 86q19 44 52 63zM156 397q4 0 8 -3.5t4 -9.5q0 -9 -7 -15t-16 -6q-11 0 -11 11q0 8 7 15.5t15 7.5zM212 398q4 0 7.5 -4t3.5 -9q0 -9 -6.5 -15t-15.5 -6q-11 0 -11 10
q0 8 7 16t15 8z" />
    <glyph glyph-name="yacute" unicode="&#xfd;" horiz-adv-x="486" 
d="M239 358q8 13 25 10.5t17 -18.5q-6 -86 -27 -160q56 19 89 31.5t74.5 34t68.5 44.5q7 5 11.5 -1.5t-0.5 -11.5q-30 -25 -74 -47.5t-79.5 -35.5t-95.5 -33q-28 -98 -87 -179.5t-142 -116.5q-43 -18 -83 -20.5t-64.5 10.5t-35.5 35t2 54.5t50 67.5q36 35 95.5 65.5
t98.5 44.5t122 42h1q22 68 31 154q-127 -151 -210 -200q-19 -12 -40 -16.5t-37.5 5t-16.5 35.5q2 63 82 169q14 15 32 5q14 -9 3 -20q-57 -76 -73 -142q-3 -19 -0.5 -27.5t13.5 -6t20.5 7t19.5 11.5q87 58 210 209zM199 154q-76 -24 -120.5 -40.5t-100.5 -48t-90 -68.5
q-26 -29 -34 -54t2 -39.5t29.5 -22.5t48.5 -5t59 16q74 35 125.5 105.5t80.5 156.5zM142 394q1 1 4 1q10 0 10 -9q0 -3 -21 -26t-26 -23q-13 0 -13 9q0 5 19 24t27 24z" />
    <glyph glyph-name="ydieresis" unicode="&#xff;" horiz-adv-x="486" 
d="M114 375q4 0 8 -3.5t4 -9.5q0 -9 -7 -15t-16 -6q-11 0 -11 11q0 8 7 15.5t15 7.5zM162 378q4 0 7.5 -4t3.5 -9q0 -9 -6.5 -15t-15.5 -6q-11 0 -11 10q0 8 7 16t15 8zM239 358q8 13 25 10.5t17 -18.5q-6 -86 -27 -160q56 19 89 31.5t74.5 34t68.5 44.5q7 5 11.5 -1.5
t-0.5 -11.5q-30 -25 -74 -47.5t-79.5 -35.5t-95.5 -33q-28 -98 -87 -179.5t-142 -116.5q-43 -18 -83 -20.5t-64.5 10.5t-35.5 35t2 54.5t50 67.5q36 35 95.5 65.5t98.5 44.5t122 42h1q22 68 31 154q-127 -151 -210 -200q-19 -12 -40 -16.5t-37.5 5t-16.5 35.5q2 63 82 169
q14 15 32 5q14 -9 3 -20q-57 -76 -73 -142q-3 -19 -0.5 -27.5t13.5 -6t20.5 7t19.5 11.5q87 58 210 209zM199 154q-76 -24 -120.5 -40.5t-100.5 -48t-90 -68.5q-26 -29 -34 -54t2 -39.5t29.5 -22.5t48.5 -5t59 16q74 35 125.5 105.5t80.5 156.5z" />
    <glyph glyph-name="dotlessi" unicode="&#x131;" horiz-adv-x="376" 
d="M-1 320q-7 4 -4 12q3 5 15.5 8t23 -4t8.5 -26q0 -4 -10 -43q-21 -69 -12 -92q8 -16 27 -20q45 -1 119 31t210 114q5 2 9 -0.5t4 -6.5t-4 -7q-241 -144 -329 -146q-28 -1 -45 7t-24 19t-7 31.5t2.5 34.5t8.5 38q13 48 8 50z" />
    <glyph glyph-name="Lslash" unicode="&#x141;" horiz-adv-x="1078" 
d="M474 276q-7 -6 -11 1q-7 11 4 18l85 65q-22 176 -12 253q-257 -98 -490 -227q-6 -5 -12 3q-4 7 4 11q242 135 501 232q4 28 17 55q35 77 108.5 104.5t141.5 -18.5q24 -16 38 -40q54 14 82 20q61 15 116 21q49 5 54 -12q11 -22 -82 -91t-184 -122q-43 -24 -59 -31
q-35 -16 -31 -1q1 5 6 13q4 7 33 32q79 64 63 134l-6 17q-108 -29 -254 -82q-15 -75 6 -242q1 0 8 5q62 41 72 26q2 -2 0.5 -8t-5.5 -8l-70 -49q12 -108 13 -134q2 -35 -1 -60q37 -13 102 -46q20 -10 52.5 -29t51 -28.5t48 -20.5t56 -10.5t62.5 5.5t80 24t97 49q7 4 12 -3
q4 -7 -3 -12q-64 -36 -117 -55t-87.5 -25t-75 4t-59.5 18.5t-62 33t-63 34.5q-53 28 -96 44q-6 -48 -27 -89q-38 -70 -121 -84q-66 -11 -105 21q-44 36 0 94q15 21 41 42q79 64 172 46q1 21 0 45q-3 46 -11 107q-20 -14 -30 -20q-27 -18 -52 -30zM539 60q21 39 27 96
q-86 19 -161 -41q-73 -59 -49 -100q17 -30 71 -27q66 4 103 58q5 6 9 14zM934 737q-12 -3 -78 -19l6 -18q19 -79 -68 -151l-9 -8q37 20 40 22q84 49 168 110t91 85q-6 2 -36 -1q-39 -3 -114 -20zM650 749q-29 -24 -48 -67q-7 -14 -12 -32q124 45 241 78q-13 20 -30 31
q-39 26 -78.5 23t-72.5 -33z" />
    <glyph glyph-name="lslash" unicode="&#x142;" horiz-adv-x="476" 
d="M-81 141q-9 -4 -12 2q-6 11 6 17q3 1 14.5 8.5t32.5 20.5t37 23q-3 17 -1 39q5 121 47.5 233.5t118.5 197.5q44 44 90 57t71 -15.5t10 -95.5q-16 -78 -88.5 -167t-202.5 -163l-3 -46v-15l16 9q65 35 75 20q3 -10 -7 -16q-43 -23 -83 -46q11 -102 84 -104q16 0 35 4
t36 9.5t39.5 17.5t38.5 20.5t40.5 25.5t37 25.5t37.5 27.5t32.5 25t30.5 25t25 20q4 3 8.5 1t4.5 -6.5t-3 -7.5q-51 -41 -70 -55.5t-71 -51t-83 -52.5t-73 -31.5t-75 -14.5q-87 3 -113 99l-28 -15q-36 -18 -54 -25zM45 319q120 70 188 154t84 158q12 56 -5.5 77.5t-49 9
t-60.5 -45.5q-130 -142 -157 -353z" />
    <glyph glyph-name="OE" unicode="&#x152;" horiz-adv-x="1077" 
d="M661 21q15 5 15 -4q-2 -12 -28 -23l-10 -4q-100 -24 -151 44q-67 -45 -146 -51q-89 -7 -146 35.5t-76 114.5t-17.5 158t23 167t53.5 141q120 239 288 181q46 23 90 20q75 -4 118 -82q9 23 26 40q28 27 68 34q103 20 184 -78q55 -68 -11 -77q-41 -5 -101 13
q-73 23 -129 35q-2 -25 10 -51q23 -56 92 -108q37 -30 43 -40q5 -8 3 -15t-12 -8q-10 0 -28 5t-32.5 11t-34.5 14l-25 10q-69 25 -137 -57q-54 -64 -80 -166q-16 -61 -16 -114t20 -94.5t57 -58.5t90 8zM311 527q14 -4 51 -2q65 2 77 -14q28 -37 -178 -192q-6 -6 -11 1
q-5 6 1 12q72 54 113.5 90.5t54 54t7.5 24.5q-7 9 -63 7q-47 0 -57 3q-22 8 -15 28q54 164 157 230q-27 11 -53.5 5t-48 -17.5t-42 -35t-36 -46t-29.5 -51t-23.5 -51t-16.5 -44.5q-17 -52 -29 -108t-19.5 -119.5t-0.5 -118.5t25.5 -99t60.5 -67t103 -17q74 4 139 48
q-25 46 -27 110q-2 90 34 181q38 100 105 154.5t144 24.5q46 -18 73 -32q1 0 1 1q-4 3 -9 6.5t-12 9t-11 8.5q-119 91 -108 181v1q-58 9 -104 6q-169 -11 -257 -165q-1 -4 4 -7zM747 755q-26 -21 -33 -50l-1 -3q51 -10 132 -36q112 -33 112 0q0 13 -18 37q-24 30 -55 49.5
t-68 24t-69 -21.5zM555 783q-42 3 -87 -21q-78 -45 -131 -154q78 98 226 108q42 3 96 -4q-37 65 -104 71z" />
    <glyph glyph-name="oe" unicode="&#x153;" horiz-adv-x="529" 
d="M370 167q6 1 5 -5q-1 -9 -16 -13q-14 -2 -43 -2q-82 3 -99 56q-26 -19 -55.5 -19t-46.5 24q-19 26 -13 67.5t34 65.5q28 23 64 17.5t58 -30.5q41 39 90 45q60 7 77 -14q13 -16 -20 -35q-41 -24 -125 -30q-37 -43 -22.5 -82.5t71.5 -46.5q15 -1 41 2zM144 310
q-11 -21 -13 -46.5t8 -43.5q15 -19 35 -16.5t39 17.5q-5 48 34 95q-20 26 -53.5 24t-49.5 -30zM298 313q77 8 105 23q19 12 2 17q-19 4 -45 -5q-35 -12 -62 -35z" />
    <glyph glyph-name="Scaron" unicode="&#x160;" horiz-adv-x="639" 
d="M307 458q-8 -2 -10 7q0 9 7 9q141 26 261 56q110 27 182 56q95 37 108 78q10 30 -33 59q-43 28 -127 44q-190 34 -351 -38q-83 -38 -132 -96q-21 -25 -30.5 -51t-4 -52.5t13.5 -48t30.5 -50.5t37 -46t43.5 -48q20 -22 29 -32q8 3 23.5 8.5t22.5 7.5q149 53 201 84
q5 3 9 0.5t4 -7t-4 -7.5q-57 -34 -204 -86q-18 -6 -40 -14q29 -33 45.5 -59t26.5 -57.5t-3 -62t-48 -59.5q-85 -69 -196 -64q-87 4 -124 51q-42 55 28 126q15 15 34 30q60 45 190 96q-10 10 -30 32q-36 39 -54.5 60.5t-43 59.5t-30 65.5t2 63.5t35.5 69q83 100 233.5 133
t289.5 8q86 -16 133 -46q53 -36 39 -79q-14 -46 -118 -88q-73 -28 -184 -57q-101 -26 -262 -55zM308 278q-131 -48 -192 -96q-88 -68 -62 -124q20 -43 92 -51q93 -10 174 50q6 4 11 8q31 25 41.5 52.5t1 56.5t-24.5 51.5t-41 52.5zM284 888q19 -63 22 -63h1q22 18 29 23
t53 42q12 -3 12 -12q0 -4 -2 -8q-80 -84 -98 -84q-10 0 -16 3.5t-10 13t-5.5 17.5t-4 25.5t-4.5 28.5v2q0 8 5 14t10 6t8 -8z" />
    <glyph glyph-name="scaron" unicode="&#x161;" horiz-adv-x="260" 
d="M49 347q-21 -27 4 -57q29 -39 35 -64q120 41 172 74q4 3 8 0t4.5 -7t-3.5 -7q-56 -37 -179 -77q-8 -48 -74 -60q-57 -8 -77 7q-19 14 28 32l22 7q50 15 57 17q-3 29 -32 65q-30 30 -14 67q11 22 40 32q12 3 15.5 -2.5t1 -13.5t-7.5 -13zM13 170q22 9 30 24
q-46 -14 -49 -15q-34 -10 -32 -14q3 -7 37 1q8 2 14 4zM83 752q19 -63 22 -63h1q22 18 29 23t53 42q12 -3 12 -12q0 -4 -2 -8q-80 -84 -98 -84q-10 0 -16 3.5t-10 13t-5.5 17.5t-4 25.5t-4.5 28.5v2q0 8 5 14t10 6t8 -8z" />
    <glyph glyph-name="Ydieresis" unicode="&#x178;" horiz-adv-x="918" 
d="M417 787q-239 -268 -273 -361q-15 -44 29 -35q23 4 83 34q112 59 254 171t198 188q19 22 26 -13q5 -29 -3 -65q-20 -116 -79 -249q102 -24 213 -85q5 -3 5 -7t-4 -7t-9 -1q-113 62 -211 84q-155 -349 -321 -425q-73 -33 -113.5 5t-37.5 115t43 154q52 95 152 147t243 28
q73 177 80 272q-73 -79 -201 -176.5t-227 -150.5q-70 -41 -122 -40q-63 1 -31 82q46 108 257 334q25 25 48 22q17 -2 4 -18zM605 449q-135 21 -229.5 -28t-143.5 -139q-52 -99 -35 -184q14 -65 62 -73q34 -5 76 24q134 92 270 400zM501 783q4 0 8 -3.5t4 -9.5q0 -9 -7 -15
t-16 -6q-11 0 -11 11q0 8 7 15.5t15 7.5zM603 792q3 0 7 -4t4 -9q0 -9 -6.5 -15t-15.5 -6q-11 0 -11 10q0 8 7 16t15 8z" />
    <glyph glyph-name="Zcaron" unicode="&#x17d;" horiz-adv-x="886" 
d="M275 674q-8 -4 -11 3q-5 7 2 12q260 163 374 110q27 -12 34 -37t-1 -49.5t-24 -44.5q81 -58 38 -200q-7 -24 -18 -48q88 -17 178 -58q5 -2 5 -7t-3.5 -8t-8.5 -1q-84 40 -177 58q-53 -112 -178.5 -238t-257.5 -169q-43 -14 -88 -15.5t-82.5 11.5t-50.5 47t7 91
q27 71 108.5 142t208.5 118q156 58 297 35q15 33 25 73q20 111 -23 146q-39 -52 -117 -100q-42 -25 -84 -28q-47 -3 -34 40q1 4 3 9q9 25 35 50.5t63 40.5q61 26 116 22q44 64 10 94q-23 21 -62.5 20.5t-73.5 -10.5t-84.5 -36t-70.5 -38t-55 -35zM595 659q-45 3 -94 -17
q-33 -14 -56.5 -37t-31.5 -45q-14 -35 15 -26q45 13 132 91q21 19 35 34zM620 410q-152 14 -284 -34q-124 -46 -203 -114t-104 -136q-19 -55 -4 -84t53 -37.5t79.5 -3t76.5 19.5q115 48 224 168.5t162 220.5zM393 890q19 -63 22 -63h1q22 18 29 23t53 42q12 -3 12 -12
q0 -4 -2 -8q-80 -84 -98 -84q-10 0 -16 3.5t-10 13t-5.5 17.5t-4 25.5t-4.5 28.5v2q0 8 5 14t10 6t8 -8z" />
    <glyph glyph-name="zcaron" unicode="&#x17e;" horiz-adv-x="575" 
d="M0 281q-8 -5 -12 5q-3 7 3 9q15 11 58.5 31.5t81.5 31.5q48 17 85 11q15 -2 23.5 -12t5.5 -23q-2 -15 -20 -41q-4 -6 -14 -18q83 35 116 2q23 -24 15 -78q176 61 233 101q4 3 8.5 0.5t4.5 -7t-3 -7.5q-63 -43 -247 -106q-22 -92 -84.5 -173.5t-142.5 -123.5
q-44 -23 -86.5 -27.5t-69.5 9t-38 37.5t7 61t66 77q81 66 304 142q10 40 6 61q-11 63 -159 -24q-22 -13 -25 -3q-1 6 7 15q76 76 79 104q0 29 -67 7q-36 -11 -77.5 -30.5t-57.5 -30.5zM287 162q-209 -72 -286 -135q-75 -62 -70.5 -108t60.5 -45t115 36q60 39 106.5 107
t74.5 145zM145 501q19 -63 22 -63h1q22 18 29 23t53 42q12 -3 12 -12q0 -4 -2 -8q-80 -84 -98 -84q-10 0 -16 3.5t-10 13t-5.5 17.5t-4 25.5t-4.5 28.5v2q0 8 5 14t10 6t8 -8z" />
    <glyph glyph-name="florin" unicode="&#x192;" horiz-adv-x="322" 
d="M200 488q-16 -87 -159 -196q-5 -33 -6 -63q17 -7 30 -20q49 10 83 20q98 29 174 71q4 3 8 0t4 -7.5t-4 -6.5q-72 -41 -178 -73q-30 -9 -75 -19q18 -28 22 -70.5t-5 -74.5q-9 -35 -31 -45.5t-44 17.5q-30 43 -30 165q-25 2 -36 12q-6 8 -6 11q0 8 5 13q6 8 26 11
q2 0 6.5 0.5t6.5 0.5q1 28 6 57q26 160 102 228q36 34 72.5 25.5t28.5 -56.5zM115 489q-50 -74 -69 -173q125 100 137 174q7 38 -18 36q-26 -3 -50 -37zM-11 203q1 4 1 14q-7 0 -10 -1q-10 -1 -16 -5h1q7 -7 24 -8zM77 53q10 30 5.5 71.5t-24.5 66.5q-7 -2 -24 -4
q0 -96 17 -150q11 -35 23 4q2 6 3 12zM34 210v-6q2 0 4.5 0.5t3.5 0.5q-1 1 -4 2.5t-4 2.5z" />
    <glyph glyph-name="circumflex" unicode="&#x2c6;" horiz-adv-x="350" 
d="M227 421q-2 6 -4.5 14l-5 16t-5.5 16t-5.5 14t-4.5 9.5t-3 3.5q-23 -19 -27.5 -23t-49.5 -41q-12 3 -12 12q0 5 2 8q74 78 92 78q6 0 10.5 -1.5t8 -4.5t6.5 -6t5 -9.5t3.5 -11t3.5 -13t3 -14.5t3 -16t3 -17v-3q0 -7 -5 -13t-10 -6q-7 0 -8 8z" />
    <glyph glyph-name="caron" unicode="&#x2c7;" horiz-adv-x="391" 
d="M174 752q19 -63 22 -63h1q22 18 29 23t53 42q12 -3 12 -12q0 -4 -2 -8q-80 -84 -98 -84q-10 0 -16 3.5t-10 13t-5.5 17.5t-4 25.5t-4.5 28.5v2q0 8 5 14t10 6t8 -8z" />
    <glyph glyph-name="breve" unicode="&#x2d8;" horiz-adv-x="322" 
d="M100 585q7 12 19 12q7 0 7 -9q0 -23 8 -31.5t20 -4.5t24 13t22 21q12 15 19 6t-1 -20q-12 -23 -39 -38t-52 -4t-27 55z" />
    <glyph glyph-name="dotaccent" unicode="&#x2d9;" horiz-adv-x="234" 
d="M106 597v-1q6 11 16 11q4 0 8 -3.5t4 -8.5q0 -9 -7 -15.5t-16 -6.5q-11 0 -11 11q0 6 6 13z" />
    <glyph glyph-name="ring" unicode="&#x2da;" horiz-adv-x="232" 
d="M119 687q-5 0 -10.5 -6t-5.5 -12q0 -9 8 -9q6 0 11.5 5.5t5.5 11.5q0 10 -9 10zM119 691q13 0 13 -12q0 -9 -7 -15.5t-14 -6.5q-11 0 -11 13q0 7 6.5 14t12.5 7z" />
    <glyph glyph-name="ogonek" unicode="&#x2db;" horiz-adv-x="305" 
d="M194 17q11 0 11 -7q0 -10 -17 -27.5t-17 -25.5t6 -8q3 0 10.5 2.5t10.5 2.5q6 0 6 -6q0 -7 -10.5 -16.5t-18.5 -9.5q-10 0 -17.5 7.5t-7.5 19.5q0 18 14 40.5t30 27.5z" />
    <glyph glyph-name="tilde" unicode="&#x2dc;" horiz-adv-x="380" 
d="M113 598v3q0 13 11 13q6 0 14 -5.5t12 -5.5q12 0 29 8t32 8q28 0 69 -22q0 -6 -3 -12.5t-8 -6.5q-2 0 -5 3q-30 12 -51 12q-17 0 -36.5 -8t-31.5 -8q-17 0 -32 21z" />
    <glyph glyph-name="hungarumlaut" unicode="&#x2dd;" horiz-adv-x="297" 
d="M123 614q13 13 27 13q3 0 3 -2q0 -3 -2 -4.5t-6.5 -9t-9.5 -22.5q-2 -3 -13 -10t-17 -7q-5 0 -5 5t23 37zM168 613q13 13 27 13q2 0 2 -2t-1 -3l-2.5 -2.5t-5 -9.5t-8.5 -21q-17 -17 -31 -17q-5 0 -5 5q0 6 24 37z" />
    <glyph glyph-name="endash" unicode="&#x2013;" horiz-adv-x="404" 
d="M59 303q-9 0 -9 7q0 5 4 9t9 4q3 0 31 2.5t67 5t68 2.5q75 0 75 -17q0 -3 -4.5 -7t-8.5 -4q-33 0 -90 -2.5t-82 -2.5q-30 0 -60 3z" />
    <glyph glyph-name="emdash" unicode="&#x2014;" horiz-adv-x="563" 
d="M59 303q-9 0 -9 7q0 5 4 9t9 4q2 0 38 1.5t90.5 2.5t99.5 1q172 0 172 -19q0 -4 -4.5 -8t-11.5 -4q-63 7 -131 7q-32 0 -91 -2t-88 -2q-39 0 -78 3z" />
    <glyph glyph-name="quoteleft" unicode="&#x2018;" horiz-adv-x="333" 
d="M223 598q10 0 10 -6q0 -8 -13.5 -17.5t-13.5 -13.5q0 -1 0.5 -6t0.5 -9q0 -6 -6 -10t-14 -4q-20 0 -20 20q0 15 17.5 29.5t38.5 16.5z" />
    <glyph glyph-name="quoteright" unicode="&#x2019;" horiz-adv-x="266" 
d="M156 603q10 0 10 -6q0 -8 -14.5 -17.5t-14.5 -13.5q0 -2 1 -7t1 -9q0 -12 -23 -12q-16 0 -16 19q0 15 17.5 30t38.5 16z" />
    <glyph glyph-name="quotesinglbase" unicode="&#x201a;" horiz-adv-x="317" 
d="M161 124q-10 0 -10 6q0 9 14 18t14 13q0 2 -1 6.5t-1 8.5q0 6 8 9.5t16 3.5q16 0 16 -18q0 -16 -17 -30.5t-39 -16.5z" />
    <glyph glyph-name="quotedblleft" unicode="&#x201c;" horiz-adv-x="333" 
d="M156 601q10 0 10 -6q0 -8 -13.5 -17.5t-13.5 -13.5q0 -1 0.5 -6t0.5 -9q0 -6 -6 -10t-14 -4q-20 0 -20 20q0 15 17.5 29.5t38.5 16.5zM223 598q10 0 10 -6q0 -8 -13.5 -17.5t-13.5 -13.5q0 -1 0.5 -6t0.5 -9q0 -6 -6 -10t-14 -4q-20 0 -20 20q0 15 17.5 29.5t38.5 16.5z
" />
    <glyph glyph-name="quotedblright" unicode="&#x201d;" horiz-adv-x="334" 
d="M178 532q-10 0 -10 6q0 8 13.5 18t13.5 15q0 2 -0.5 6.5t-0.5 7.5q0 12 21 12q19 0 19 -18q0 -16 -17.5 -30.5t-38.5 -16.5zM111 535q-10 0 -10 6q0 9 14 18t14 13q0 2 -1 7t-1 9t6.5 8t14.5 4q19 0 19 -18q0 -16 -17.5 -30.5t-38.5 -16.5z" />
    <glyph glyph-name="quotedblbase" unicode="&#x201e;" horiz-adv-x="381" 
d="M161 339q-11 0 -11 6q0 8 14 17t14 13q0 2 -1 7t-1 9q0 5 6.5 9t14.5 4q20 0 20 -19q0 -16 -17.5 -30t-38.5 -16zM225 339q-10 0 -10 6q0 8 13.5 17t13.5 13q0 2 -1 7t-1 9q0 5 6.5 9t14.5 4q20 0 20 -19q0 -16 -17.5 -30t-38.5 -16z" />
    <glyph glyph-name="bullet" unicode="&#x2022;" horiz-adv-x="295" 
d="M161 329q15 0 24.5 -9.5t9.5 -23.5q0 -22 -19.5 -39t-41.5 -17q-15 0 -24 8t-9 22q0 23 19 41t41 18z" />
    <glyph glyph-name="fraction" unicode="&#x2044;" horiz-adv-x="300" 
d="M240 687q-27 -74 -95 -429.5t-64 -410.5q0 -7 -6 -11q-11 -4 -17 5q-6 12 -2 42q11 136 68.5 429.5t90.5 373.5q6 14 22 25q6 3 8 0q3 -5 -5 -24z" />
    <glyph glyph-name="Euro" unicode="&#x20ac;" horiz-adv-x="514" 
d="M26 255q-9 0 -9 8q0 13 13 13q3 0 18.5 3t44.5 5q2 50 7 88q-23 -1 -67 -1q-9 0 -9 8q0 5 4 9t9 4q2 0 10.5 0.5t25 1.5t31.5 2q26 163 85 225q12 12 28 12q13 0 19 -9q38 61 92 61q48 0 77 -53q6 -20 -5 -22q-8 -1 -11 10q-22 45 -55 45q-30 0 -59.5 -34t-39.5 -62
q-3 -5 -9 -5q-11 0 -14 10q-3 12 14 34h-1v1q-53 -39 -80 -211q76 4 120 4q111 0 111 -17q0 -5 -5 -9t-11 -4q-50 7 -106 7q-38 0 -112 -4q-5 -40 -7 -89q60 2 90 2q107 0 107 -17q0 -5 -5 -9t-10 -4q-39 7 -84 7q-17 0 -99 -5q0 -80 14 -123q19 -60 58 -60q41 0 88 53
q6 4 12.5 1t7.5 -9t-3 -10q-59 -61 -111 -60q-28 0 -53 22t-39 69q-15 47 -15 114q-49 -4 -67 -2z" />
    <glyph glyph-name="minus" unicode="&#x2212;" horiz-adv-x="543" 
d="M108 404q-8 0 -8 7q0 5 3.5 9.5t8.5 4.5q42 0 116 1.5t115 1.5q3 0 18 0.5t26.5 0t25.5 -1t22 -2.5t8 -6q0 -5 -5.5 -9.5t-13.5 -4.5q-33 0 -108 -2.5t-112 -2.5q-56 0 -96 4z" />
    <glyph glyph-name="a.001" unicode="&#xe000;" horiz-adv-x="539" 
d="M-471 334l4 20q115 47 139 119q9 41 -19 41q-40 -12 -82 -70q-3 -3 -8 -3l-3 20q44 63 91 69q17 3 28.5 -7t13.5 -27q0 -50 -44.5 -91t-100.5 -65q18 -16 28 -23q52 -37 114.5 -54t153 -4t185.5 67q19 11 33 16q18 8 43.5 4t36.5 -23q6 14 13 36q-1 8 14 15q26 12 33 -21
q4 -21 -1 -56q-15 -93 1 -117q11 -18 38 -19q48 4 108.5 30.5t94.5 47t96 61.5q4 3 8 0.5t4.5 -7t-3.5 -7.5q-220 -144 -323 -143q-18 0 -31.5 6t-22 14t-13 22.5t-6 25t-1 30t2 29t4 30t3.5 25.5q-20 -49 -55 -94.5t-73 -63.5q-38 -19 -60.5 -2t-12.5 61q7 32 28 60
q-88 -41 -171.5 -48t-142 11.5t-107.5 53.5q-4 3 -12 9.5t-15 12t-11 9.5zM132 302q-2 15 -10.5 21.5t-20 4.5t-22 -6.5t-20.5 -11.5q-26 -19 -46.5 -54t-22.5 -57q-2 -21 14.5 -22t30.5 8q45 23 97 117z" />
    <glyph glyph-name="b.001" unicode="&#xe001;" horiz-adv-x="538" 
d="M-464 317l-2 25q115 47 139 119q9 41 -19 41q-40 -12 -82 -70q-3 -3 -8 -3l-3 20q44 63 91 69q17 3 28.5 -7t13.5 -27q0 -50 -44.5 -91t-100.5 -65q18 -16 28 -23q49 -35 107.5 -52t142.5 -8.5t172 52.5q9 97 46 190q46 118 117 195q42 44 88.5 57t73 -15.5t11.5 -94.5
q-16 -78 -88.5 -166t-202.5 -161q-1 0 -1 -1q-10 -79 4 -80q11 -1 33 31q37 48 64 71q31 26 69 38t70 1q25 -9 35 -31q9 -20 5 -48q-5 -32 -25 -58q114 11 240 75q5 2 9 -0.5t4 -7.5t-5 -7q-134 -67 -263 -79l-10 -10q-44 -41 -108 -63q-67 -23 -104 -6q-16 6 -17.5 20.5
t9.5 24.5q29 30 126 43q24 4 67 6h3q27 31 31 63v2q5 33 -8.5 47.5t-35 12t-44 -12t-36.5 -22.5q-30 -26 -63 -69q-4 -5 -12.5 -15t-13 -15t-12 -11t-15.5 -9q-15 -5 -24.5 0t-13.5 19t-5 29.5t0 37.5q-89 -44 -174.5 -51.5t-145 10.5t-109.5 54q-2 2 -14 11.5t-18 14.5z
M46 322q122 71 190 154.5t83 155.5q12 57 -6 77.5t-50 8t-62 -45.5q-69 -76 -114 -189q-31 -83 -41 -161zM133 147q60 21 98 56q-32 -2 -49 -4q-93 -13 -118 -39q-18 -18 19 -19q30 0 50 6z" />
    <glyph glyph-name="c.001" unicode="&#xe002;" horiz-adv-x="473" 
d="M-471 334l4 20q115 47 139 119q9 41 -19 41q-40 -12 -82 -70q-3 -3 -8 -3l-3 20q44 63 91 69q17 3 28.5 -7t13.5 -27q0 -50 -44.5 -91t-100.5 -65q18 -16 28 -23q50 -36 110 -53t146.5 -6.5t177.5 58.5q38 43 94 59q72 18 105 -6q27 -19 8 -48q-2 -5 -7 -4.5t-7 4t0 8.5
q10 17 -3 26q-34 24 -95 -5q-44 -22 -73 -69t-14.5 -86.5t81.5 -39.5q42 0 112 24q72 23 146.5 58.5t115.5 62.5q4 3 8 0.5t4.5 -7t-3.5 -7.5q-42 -28 -117.5 -64.5t-148.5 -59.5q-81 -25 -130 -26q-55 -1 -85.5 22.5t-29.5 57.5t19 71q-88 -42 -172 -48.5t-142.5 11
t-108.5 53.5q-4 3 -12 9.5t-15 12t-11 9.5z" />
    <glyph glyph-name="d.001" unicode="&#xe003;" horiz-adv-x="773" 
d="M-465 329l-2 25q115 47 139 119q9 41 -19 41q-40 -12 -82 -70q-3 -3 -8 -3l-3 20q44 63 91 69q17 3 28.5 -7t13.5 -27q0 -50 -44.5 -91t-100.5 -65q18 -16 28 -23q37 -27 82 -43t101 -20.5t124 12.5t139 56q35 28 70 38q41 11 71 -4.5t29 -57.5q-2 -29 -15 -59l19 14
q34 125 107 253.5t158 200.5q26 21 56.5 32t53 -2t16.5 -58q-7 -49 -47.5 -116.5t-112.5 -137.5q-67 -65 -183 -156q-18 -66 -19 -112q-3 -70 25 -105t88 -30q149 17 435 278q4 4 8.5 2.5t5 -6t-2.5 -8.5q-290 -265 -444 -282q-52 -5 -86 10q-54 25 -66 92q-10 50 2 120
q-113 -83 -171 -90q-47 -6 -64.5 17t-7.5 58.5t39 71.5q-87 -40 -170 -46.5t-141.5 11.5t-107.5 53q-2 2 -14 11.5t-18 14.5zM253 297q102 82 162 140q70 67 109.5 133t45.5 111q4 42 -25 38q-29 -5 -69 -44q-71 -66 -130.5 -171.5t-92.5 -206.5zM98 325q-36 -19 -80 -75
q-54 -71 -26 -90q10 -7 33 -4q21 2 70 27.5t57 41.5q21 41 23 74q0 21 -6 31.5t-18.5 10.5t-24.5 -4t-28 -12z" />
    <glyph glyph-name="e.001" unicode="&#xe004;" horiz-adv-x="471" 
d="M-468 332l1 22q115 47 139 119q9 41 -19 41q-40 -12 -82 -70q-3 -3 -8 -3l-3 20q44 63 91 69q17 3 28.5 -7t13.5 -27q0 -50 -44.5 -91t-100.5 -65q18 -16 28 -23q50 -36 110 -53t146.5 -6.5t177.5 58.5q41 50 101 57t77 -14q13 -16 -20 -35q-41 -24 -125 -30
q-37 -43 -22.5 -82.5t71.5 -46.5q40 -5 157 34q134 46 222 101q7 4 11 -3t-2 -12q-101 -60 -225 -102q-112 -38 -176 -36q-50 1 -76.5 23.5t-26 53.5t15.5 64q-88 -42 -172.5 -49t-143.5 10.5t-109 53.5q-31 25 -35 29zM61 313q77 8 105 23q19 12 2 17q-19 5 -45 -5
q-35 -12 -62 -35z" />
    <glyph glyph-name="f.001" unicode="&#xe005;" horiz-adv-x="322" 
d="M-465 313l-2 25q115 47 139 119q9 41 -19 41q-40 -12 -82 -70q-3 -3 -8 -3l-3 20q44 63 91 69q17 3 28.5 -7t13.5 -27q0 -50 -44.5 -91t-100.5 -65q18 -16 28 -23q49 -35 107.5 -52t142.5 -8.5t172 52.5q23 157 101 226q36 34 72.5 25.5t28.5 -56.5q-16 -87 -159 -196
q-5 -33 -6 -63q17 -7 30 -20q49 10 83 20q98 29 174 71q4 3 8 0t4 -7.5t-4 -6.5q-72 -41 -178 -73q-30 -9 -75 -19q18 -28 22 -70.5t-5 -74.5q-9 -35 -31 -45.5t-44 17.5q-30 43 -30 165q-25 2 -36 12q-6 8 -6 11q0 8 5 13q6 8 26 11q2 0 6.5 0.5t6.5 0.5q2 26 4 39
q-89 -43 -174 -50.5t-144.5 10.5t-109.5 54q-2 2 -14 11.5t-18 14.5zM115 489q-50 -74 -69 -173q125 100 137 174q7 38 -18 36q-26 -3 -50 -37zM77 53q10 30 5.5 71.5t-24.5 66.5l-24 -4q0 -96 17 -150q11 -35 23 4q2 6 3 12zM-11 203q1 4 1 14q-7 0 -10 -1q-10 -1 -16 -5h1
q7 -7 24 -8zM34 210v-6q2 0 4.5 0.5t3.5 0.5q-1 1 -4 2.5t-4 2.5z" />
    <glyph glyph-name="g.001" unicode="&#xe006;" horiz-adv-x="434" 
d="M-469 333l2 21q115 47 139 119q9 41 -19 41q-40 -12 -82 -70q-3 -3 -8 -3l-3 20q44 63 91 69q17 3 28.5 -7t13.5 -27q0 -50 -44.5 -91t-100.5 -65q18 -16 28 -23q49 -35 108.5 -52.5t145 -8t174.5 55.5q15 31 42.5 49.5t61.5 12.5q21 -4 36.5 -18.5t17.5 -36.5
q12 15 21 30q12 30 28.5 25t16.5 -34q-3 -82 -19 -146q165 54 225 106q4 3 8.5 1t5 -6t-2.5 -8q-41 -35 -97.5 -59.5t-143.5 -52.5q-37 -126 -116.5 -216.5t-192.5 -107.5q-66 -10 -92 20t-12.5 74.5t51.5 80.5q39 35 98 66t101.5 46.5t120.5 40.5q18 68 22 141
q-22 -31 -63 -65t-71 -42q-37 -11 -51.5 13.5t-3.5 63.5q-89 -43 -174 -51t-144.5 10t-109.5 54q-29 24 -36 30zM156 159q-71 -23 -113.5 -38.5t-97.5 -44.5t-91 -63q-38 -36 -48.5 -76t17 -60t88.5 0q89 29 152.5 106.5t92.5 175.5zM145 299q6 29 -7 43t-35 11
q-38 -5 -66 -55q-25 -45 -11 -63q8 -10 29 -2q40 16 90 66z" />
    <glyph glyph-name="h.001" unicode="&#xe007;" horiz-adv-x="569" 
d="M-472 315l-2 25q115 47 139 119q9 41 -19 41q-40 -12 -82 -70q-3 -3 -8 -3l-3 20q44 63 91 69q17 3 28.5 -7t13.5 -27q0 -50 -44.5 -91t-100.5 -65q18 -16 28 -23q50 -36 109.5 -53t145 -7t175.5 56q9 91 46 188q44 113 117 195q29 31 64 47t63 13t42.5 -32t4.5 -81
q-16 -78 -89 -166t-203 -161q-5 -2 -5 -50q-3 -63 48 1q53 58 84 79q72 48 110 27q29 -20 16 -77q-8 -29 -28 -77q-39 -104 -30 -120q10 -15 107 50q83 56 223 165q8 4 12.5 -2t-2.5 -11q-135 -108 -233 -173q-1 -1 -15.5 -10t-21.5 -13.5t-22 -12.5t-24.5 -10.5t-21.5 -4.5
t-20 2.5t-13 13.5q-15 26 26 146q7 22 11.5 37t8.5 33.5t1.5 28.5t-9.5 16t-23.5 0t-41.5 -22q-30 -20 -82 -77q-18 -21 -35 -35t-33.5 -18.5t-26 11t-8.5 52.5q0 4 0.5 14t0.5 15q-91 -46 -178 -55t-147.5 9t-111.5 55q-2 2 -14 11.5t-18 14.5zM201 672q-71 -80 -113 -189
q-31 -81 -42 -161q122 71 190 154.5t83 155.5q12 57 -6 77.5t-50 8t-62 -45.5z" />
    <glyph glyph-name="i.001" unicode="&#xe008;" horiz-adv-x="376" 
d="M-468 332l1 22q115 47 139 119q9 41 -19 41q-40 -12 -82 -70q-3 -3 -8 -3l-3 20q44 63 91 69q17 3 28.5 -7t13.5 -27q0 -50 -44.5 -91t-100.5 -65q18 -16 28 -23q185 -132 424 -6q1 7 -1 9q-7 4 -4 12q3 5 15.5 8t23 -4t8.5 -26q0 -4 -10 -43q-21 -69 -12 -92
q8 -16 27 -20q45 -1 119 31t210 114q5 2 9 -0.5t4 -6.5t-4 -7q-241 -144 -329 -146q-28 -1 -45 7t-24 19t-7 31.5t2.5 34.5t8.5 38l6 20q-242 -122 -430 13q-31 25 -35 29zM10 382q-5 12 1 24q6 13 24 14.5t23 -12.5q5 -12 -3 -28q-6 -11 -23 -11t-22 13z" />
    <glyph glyph-name="j.001" unicode="&#xe009;" horiz-adv-x="250" 
d="M-468 333l1 21q115 47 139 119q9 41 -19 41q-40 -12 -82 -70q-3 -3 -8 -3l-3 20q44 63 91 69q17 3 28.5 -7t13.5 -27q0 -50 -44.5 -91t-100.5 -65q18 -16 28 -23q185 -133 424 -5v5q1 20 16 19q17 0 24 -21q3 -8 2 -17q-5 -59 -16 -104q81 27 133.5 50.5t90.5 55.5
q7 7 12 -2q3 -7 -2 -11q-64 -56 -239 -112q-38 -127 -118 -218t-194 -106q-54 -6 -81 12t-25.5 48t19.5 64t47 59q38 33 95.5 62t99.5 44t115 39q14 54 20 114q-243 -127 -432 10q-18 15 -35 30zM-27 159q-102 -33 -171.5 -63t-121.5 -75q-38 -33 -52.5 -74.5t9.5 -65.5
t85 -6q92 27 156 106t95 178zM15 381q-6 13 0 24q6 13 24 14.5t24 -12.5q5 -12 -3 -28q-7 -11 -24 -11t-21 13z" />
    <glyph glyph-name="k.001" unicode="&#xe00a;" horiz-adv-x="470" 
d="M-466 317l-2 25q115 47 139 119q9 41 -19 41q-40 -12 -82 -70q-3 -3 -8 -3l-3 20q44 63 91 69q17 3 28.5 -7t13.5 -27q0 -50 -44.5 -91t-100.5 -65q18 -16 28 -23q49 -35 108 -52.5t143.5 -8.5t172.5 54q13 109 58 214t105 170q33 36 63.5 53t51.5 16t36.5 -15.5
t20.5 -39t1 -57.5t-19 -68q-69 -156 -272 -269q-5 -4 -8 -41q-3 -41 15 -38q8 1 18 10q19 15 56.5 50t61.5 54.5t62.5 35t77.5 10.5q7 0 7 -9q-2 -9 -10 -7q-71 10 -164 -72q64 7 71 -26q5 -23 -19.5 -66t-26.5 -50q-6 -15 -4 -24.5t15 -5.5q24 7 50 20t45.5 24t49 32.5
t43 32t46 36t40.5 32.5q4 3 8.5 1t4.5 -6.5t-3 -7.5q-159 -133 -263 -174q-73 -25 -73 30q2 23 22 58.5t22 54.5q1 12 -10 17t-21 4t-19 -3q-4 -4 -26.5 -25.5t-35.5 -31.5q-38 -30 -59 -15t-20 77q-90 -44 -175.5 -52t-145.5 10t-110 54q-2 2 -14 11.5t-18 14.5zM46 322
q196 113 258 263q20 46 17.5 78t-16 48t-42.5 6.5t-62 -45.5q-130 -147 -155 -350z" />
    <glyph glyph-name="l.001" unicode="&#xe00b;" horiz-adv-x="476" 
d="M-473 333l6 18q57 23 90.5 46t45.5 60q9 41 -19 41q-40 -12 -82 -70q-3 -3 -8 -3l-3 20q44 63 91 69q17 3 28.5 -7t13.5 -27q0 -81 -142 -143q18 -16 28 -23q192 -137 423 -19q22 230 163 387q44 44 90 57t71 -15.5t10 -95.5q-16 -78 -88.5 -167t-202.5 -163l-3 -46
q-3 -150 85 -152q16 0 35 4t36 9.5t39.5 17.5t38.5 20.5t40.5 25.5t37 25.5t37.5 27.5t32.5 25t30.5 25t25 20q4 3 8.5 1t4.5 -6.5t-3 -7.5q-51 -41 -70 -55.5t-71 -51t-83 -52.5t-73 -31.5t-75 -14.5q-65 2 -94 57.5t-22 136.5q-236 -116 -431 24q-37 30 -40 33zM45 319
q120 70 188 154t84 158q12 56 -5.5 77.5t-49 9t-60.5 -45.5q-130 -142 -157 -353z" />
    <glyph glyph-name="m.001" unicode="&#xe00c;" horiz-adv-x="684" 
d="M-470 334l3 20q115 47 139 119q9 41 -19 41q-40 -12 -82 -70q-3 -3 -8 -3l-3 20q44 63 91 69q17 3 28.5 -7t13.5 -27q0 -50 -44.5 -91t-100.5 -65q18 -16 28 -23q187 -134 426 -6q16 29 26.5 22.5t10.5 -32.5l-17 -68q35 47 63 63q20 16 44 14.5t36 -23.5q14 -22 6 -53
q88 72 138 103q103 60 119 0q14 -48 -8 -106q-32 -87 24 -81q46 6 134 66q31 22 106 84q5 4 8.5 2.5t4 -6.5t-1.5 -9q-58 -49 -107 -84q-92 -66 -154 -72q-60 -6 -59 57q0 14 3 31q1 7 7 28.5t9 35t4.5 34t-4.5 25.5q-11 18 -76 -19q-43 -26 -130 -97q-35 -31 -45.5 -28
t-8.5 53q2 27 -7.5 34t-32.5 -3q-47 -29 -119 -148q-4 -9 -12 -3q-4 4 -3 9q34 132 37 150q-239 -123 -430 13q-28 23 -37 31z" />
    <glyph glyph-name="n.001" unicode="&#xe00d;" horiz-adv-x="506" 
d="M-470 333l3 21q115 47 139 119q9 41 -19 41q-40 -12 -82 -70q-3 -3 -8 -3l-3 20q44 63 91 69q17 3 28.5 -7t13.5 -27q0 -50 -44.5 -91t-100.5 -65q18 -16 28 -23q186 -134 427 -1q7 12 16.5 12t17 -10t2.5 -20q-3 -13 -13 -42.5t-13 -42.5q87 87 143 122q60 38 94 21
t10 -85q-5 -17 -7.5 -28.5t-2.5 -25.5t6 -19.5t17.5 -9t32.5 4.5q93 27 200 107q7 4 11.5 -2.5t-1.5 -11.5q-40 -30 -99 -62t-107 -47q-59 -19 -84.5 10t-4.5 87q15 54 -2 64t-54 -17q-53 -35 -103.5 -82t-66.5 -75l-10 -22q-4 -10 -20 -8q-8 2 -8 6q24 81 41 155
q-242 -128 -431 8q-2 1 -16.5 13t-20.5 17z" />
    <glyph glyph-name="o.001" unicode="&#xe00e;" horiz-adv-x="337" 
d="M-468 332l1 22q115 47 139 119q9 41 -19 41q-40 -12 -82 -70q-3 -3 -8 -3l-3 20q44 63 91 69q17 3 28.5 -7t13.5 -27q0 -50 -44.5 -91t-100.5 -65q18 -16 28 -23q187 -135 435 2q7 11 18 22q30 26 66.5 20t56.5 -37q12 2 24 -15q14 -14 24 -21.5t31 -15.5t48 -1t58 29
q7 5 12 -2t-2 -12q-59 -40 -100.5 -35.5t-88.5 53.5q-8 -67 -42 -97q-26 -21 -56.5 -22.5t-51.5 23.5q-25 35 -8 86q-243 -126 -433 9q-31 25 -35 29zM114 230q23 28 27 74q-14 39 -50 39.5t-54 -33.5q-11 -21 -13 -46.5t8 -43.5q17 -21 42 -15t40 25z" />
    <glyph glyph-name="p.001" unicode="&#xe00f;" horiz-adv-x="391" 
d="M-469 333l2 21q115 47 139 119q9 41 -19 41q-40 -12 -82 -70q-3 -3 -8 -3l-3 20q44 63 91 69q17 3 28.5 -7t13.5 -27q0 -50 -44.5 -91t-100.5 -65q18 -16 28 -23q37 -26 79 -42t95.5 -22t118 8.5t132.5 50.5q5 29 4 39q-1 18 18.5 15.5t24.5 -17.5q1 -2 1 -5
q-1 -19 -13 -64q68 78 129 84q52 6 73 -29.5t-18 -81.5q109 15 171 47q5 2 9 -0.5t3.5 -7t-4.5 -7.5q-72 -36 -200 -52q-25 -17 -34 -23q-67 -37 -106 -37q-32 0 -30 20q1 21 33 34l5 2q22 7 95 17q41 37 38 73q-4 32 -41 28q-21 -3 -42 -16.5t-30 -21.5t-33.5 -36.5
t-26.5 -30.5q-37 -131 -65 -189q-4 -12 -27 -23t-23 6q0 6 4 15q15 31 41.5 107.5t39.5 132.5q-90 -45 -175.5 -53t-144.5 10.5t-110 54.5q-29 24 -36 30zM64 193q41 11 72 33q-56 -9 -73 -17q-17 -7 -18 -14q-2 -7 19 -2z" />
    <glyph glyph-name="q.001" unicode="&#xe010;" horiz-adv-x="457" 
d="M-469 333l2 21q115 47 139 119q9 41 -19 41q-40 -12 -82 -70q-3 -3 -8 -3l-3 20q44 63 91 69q17 3 28.5 -7t13.5 -27q0 -50 -44.5 -91t-100.5 -65q18 -16 28 -23q50 -36 109.5 -53t145.5 -7t176 57q31 45 84 52q70 10 86 -37q2 -6 2 -10q13 15 24 36q10 12 27.5 8.5
t12.5 -24.5q-9 -33 -22 -119q17 -12 25 -37q31 8 71 27q64 31 140 90q7 5 11.5 -1.5t-0.5 -11.5q-76 -58 -144 -92q-33 -17 -73 -28q8 -36 -2.5 -100t-26.5 -98q-3 -8 -8.5 -16.5t-12.5 -15.5t-14.5 -6t-13.5 12q-22 49 -4 219q-17 4 -25 14q-17 18 3 40q11 13 31 16
q7 48 13 74q-49 -57 -108 -78q-55 -20 -77.5 2t-9.5 60q-89 -44 -174.5 -51.5t-145 10.5t-109.5 54q-29 24 -36 30zM83 246q45 19 79 53q3 12 -1 25q-15 44 -72 18q-39 -18 -56 -57q-15 -37 8 -45q15 -5 42 6zM235 163l-21 -3q-1 -13 -5 -47.5t-5.5 -49t-2.5 -48.5t3 -45
l3 6q15 32 25 93t3 94zM171 179l4 35q-10 -4 -17 -12t-2 -15q4 -5 15 -8zM218 199q0 -6 -2 -22l14 2q-7 13 -12 20z" />
    <glyph glyph-name="r.001" unicode="&#xe011;" horiz-adv-x="350" 
d="M-469 332l2 22q115 47 139 119q9 41 -19 41q-40 -12 -82 -70q-3 -3 -8 -3l-3 20q44 63 91 69q17 3 28.5 -7t13.5 -27q0 -50 -44.5 -91t-100.5 -65q18 -16 28 -23q49 -36 108.5 -53t144 -7.5t173.5 55.5q11 35 17 46q6 13 17 14t18 -8t3 -20q-4 -8 -7.5 -17t-6 -16.5
t-5.5 -21t-5 -22t-5.5 -27.5t-5.5 -29.5t-6.5 -36t-6.5 -39.5l10 25q53 130 119 191q49 44 63 -20q23 -98 149 -31q5 2 9 -0.5t4 -7.5t-5 -7q-42 -22 -75 -30t-52 -3t-34.5 15.5t-21.5 25t-13 25t-9.5 16t-11.5 -2.5q-60 -65 -106 -178q-30 -72 -37 -114q0 -8 -5 -13t-11 -6
t-12.5 0t-11 5.5t-4.5 11.5q4 68 43 253q-89 -44 -174.5 -51.5t-145.5 10.5t-110 54q-3 2 -16.5 13t-19.5 16z" />
    <glyph glyph-name="s.001" unicode="&#xe012;" horiz-adv-x="260" 
d="M-462 343l3 21q110 45 131 109q9 41 -19 41q-40 -12 -82 -70q-3 -3 -8 -3l-3 20q44 63 91 69q17 3 28.5 -7t13.5 -27q0 -86 -137 -146q18 -16 28 -23q188 -134 413 -18q-5 18 3 35q11 22 40 32q12 3 15.5 -2.5t1 -13.5t-7.5 -13q-21 -27 4 -57q29 -39 35 -64
q120 41 172 74q4 3 8 0t4.5 -7t-3.5 -7q-56 -37 -179 -77q-8 -48 -74 -60q-57 -8 -77 7q-19 14 28 32l22 7l57 17q-3 29 -32 65q-10 10 -13 16q-231 -121 -426 20q-2 1 -16.5 13t-20.5 17zM13 170q22 9 30 24q-46 -14 -49 -15q-34 -10 -32 -14q3 -7 37 1q8 2 14 4z" />
    <glyph glyph-name="t.001" unicode="&#xe013;" horiz-adv-x="463" 
d="M-467 337l-2 25q3 1 17.5 7t18.5 8t17 7.5t17 8t14.5 8t15 9.5t12 10.5t11.5 12t8 13t7 15.5q9 41 -19 41q-40 -12 -82 -70q-3 -3 -8 -3l-3 20q44 63 91 69q17 3 28.5 -7t13.5 -27q0 -26 -12.5 -48t-40 -40t-43 -26t-48.5 -22q18 -16 28 -23q197 -142 426 -25
q16 78 54 168q-276 -41 -307 -28q-7 3 -5 11q3 7 11 5q29 -12 309 31q41 84 90 115q31 22 57.5 12t22.5 -50q-3 -21 -19 -55q180 25 187 4q3 -7 -11.5 -17t-47 -24.5t-87.5 -34.5q-5 -2 -8 1t-2.5 8t4.5 7q130 49 130 54q-2 8 -175 -16q-10 -20 -36 -57q-55 -76 -126 -136
q-2 -8 -7 -32q-13 -72 -0.5 -113.5t54 -51t115.5 25.5q84 39 239 157l21 16q4 3 8.5 1t4.5 -6.5t-3 -7.5q-1 -1 -8.5 -7l-12.5 -10q-155 -118 -242 -158q-51 -23 -90.5 -30t-64.5 1t-40.5 25.5t-21 45.5t-5 58.5t7.5 66.5q-230 -112 -431 32q-2 2 -14 11.5t-18 14.5zM48 327
q58 52 106 117q20 30 28 44l-80 -12q-4 -8 -5 -12q-30 -66 -49 -137zM110 494l83 12q19 38 22 60q2 19 -5.5 25.5t-26.5 -3.5q-37 -23 -73 -94z" />
    <glyph glyph-name="u.001" unicode="&#xe014;" horiz-adv-x="479" 
d="M-469 334l2 20q115 47 139 119q9 41 -19 41q-40 -12 -82 -70q-3 -3 -8 -3l-3 20q44 63 91 69q17 3 28.5 -7t13.5 -27q0 -50 -44.5 -91t-100.5 -65q18 -16 28 -23q50 -36 109.5 -53t145.5 -7t176 57q15 23 39 38l30 -3q17 -3 5 -10q-26 -15 -45 -61q-12 -28 -13 -50
q0 -17 4.5 -26.5t13.5 -10.5t16.5 0t21 8.5t19 11t17.5 11.5q39 27 75 63q35 34 61 69q8 23 29 16q18 -5 14 -19q-28 -68 -28 -128q0 -57 46 -44q56 17 167 121q4 4 8.5 2t5.5 -6t-2 -8q-117 -109 -175 -125q-34 -11 -58 0t-31 42q-7 37 10 105q-10 -12 -35 -37
q-40 -38 -78 -65q-120 -79 -141 -5q-10 36 11 86q-89 -43 -173.5 -50.5t-144 10.5t-109.5 54q-17 14 -36 31z" />
    <glyph glyph-name="v.001" unicode="&#xe015;" horiz-adv-x="395" 
d="M-467 332v22q115 47 139 119q9 41 -19 41q-40 -12 -82 -70q-3 -3 -8 -3l-3 20q44 63 91 69q17 3 28.5 -7t13.5 -27q0 -50 -44.5 -91t-100.5 -65q18 -16 28 -23q49 -36 108.5 -53t145 -7t175.5 56q14 29 34 40l33 -4q12 -3 2 -9q-28 -17 -38 -67q-11 -52 3 -95
q18 -52 62 2l9 13q50 70 68 134q3 9 10 8q2 0 12 -12q79 -119 195 -23q4 3 8.5 1t5 -6.5t-2.5 -7.5q-45 -37 -83.5 -44.5t-69.5 9.5t-64 56q-17 -55 -65 -125q-24 -35 -48.5 -47.5t-41.5 -4t-30 28.5t-15.5 51t3.5 64l4 15q-89 -44 -174.5 -51.5t-145 10.5t-109.5 54
q-20 16 -34 29z" />
    <glyph glyph-name="w.001" unicode="&#xe016;" horiz-adv-x="578" 
d="M-471 332l4 22q115 47 139 119q9 41 -19 41q-40 -12 -82 -70q-3 -3 -8 -3l-3 20q44 63 91 69q17 3 28.5 -7t13.5 -27q0 -50 -44.5 -91t-100.5 -65q18 -16 28 -23q50 -36 110 -53t146.5 -6.5t177.5 58.5q17 20 37 31l31 -3q16 -3 4 -10q-42 -23 -55 -75t9 -92
q19 -39 63 -6q35 29 75 75q10 76 37 110q20 27 44 27t11 -35q-11 -29 -47 -75q-4 -30 -3 -45q1 -55 22 -64t55 39q20 28 41 68t27 66q1 6 4 7.5t7 -1t6.5 -5.5t4.5 -5l15 -22q73 -88 180 -1q7 7 12 -2q4 -6 -2 -11q-121 -98 -203 4q-6 8 -12 17q-24 -67 -66 -125
q-26 -38 -57 -49.5t-53.5 9t-23.5 67.5q-40 -45 -71 -67q-59 -43 -97 4q-23 28 -25.5 69.5t13.5 72.5q-88 -43 -173 -50t-144 10.5t-109 53.5q-5 4 -18.5 14t-19.5 15zM256 349q-15 -10 -26 -45q24 32 26 45z" />
    <glyph glyph-name="x.001" unicode="&#xe017;" horiz-adv-x="414" 
d="M-468 332l1 22q115 47 139 119q9 41 -19 41q-40 -12 -82 -70q-3 -3 -8 -3l-3 20q44 63 91 69q17 3 28.5 -7t13.5 -27q0 -50 -44.5 -91t-100.5 -65q18 -16 28 -23q47 -33 105.5 -49t140.5 -6.5t168 50.5q10 4 70 42q33 20 56 15t35.5 -23.5t17.5 -50.5q62 32 102 67
q5 6 12 -1q5 -6 -1 -12q-40 -34 -110 -72q6 -46 23 -61t46 -9q57 13 173 93q4 3 8 0t4 -7.5t-4 -7.5q-3 -2 -24 -15.5t-27 -17.5t-24.5 -15.5t-28.5 -16t-26 -12.5t-30 -12.5t-29 -8.5q-83 -20 -99 70q-72 -39 -93 -72q-3 -7 -11 -3q-7 5 -3 12q22 37 104 81q-2 13 -4.5 22
t-8 21t-12.5 16.5t-18 6.5t-25 -8q-13 -7 -38.5 -21t-38.5 -20q-87 -40 -170 -48t-142 8.5t-107 50.5q-31 25 -35 29z" />
    <glyph glyph-name="y.001" unicode="&#xe018;" horiz-adv-x="486" 
d="M-467 331v23q115 47 139 119q9 41 -19 41q-40 -12 -82 -70q-3 -3 -8 -3l-3 20q44 63 91 69q17 3 28.5 -7t13.5 -27q0 -50 -44.5 -91t-100.5 -65q18 -16 28 -23q191 -136 432 -3l6 7q14 15 32 5q14 -9 3 -20q-57 -76 -73 -142q-3 -19 -0.5 -27.5t13.5 -6t20.5 7t19.5 11.5
q87 58 210 209q8 13 25 10.5t17 -18.5q-6 -86 -27 -160q56 19 89 31.5t74.5 34t68.5 44.5q7 5 11.5 -1.5t-0.5 -11.5q-30 -25 -74 -47.5t-79.5 -35.5t-95.5 -33q-28 -98 -87 -179.5t-142 -116.5q-43 -18 -83 -20.5t-64.5 10.5t-35.5 35t2 54.5t50 67.5q36 35 95.5 65.5
t98.5 44.5t122 42h1q22 68 31 154q-127 -151 -210 -200q-19 -12 -40 -16.5t-37.5 5t-16.5 35.5q2 51 57 133q-235 -116 -422 18q-32 26 -34 28zM199 154q-76 -24 -120.5 -40.5t-100.5 -48t-90 -68.5q-26 -29 -34 -54t2 -39.5t29.5 -22.5t48.5 -5t59 16q74 35 125.5 105.5
t80.5 156.5z" />
    <glyph glyph-name="z.001" unicode="&#xe019;" horiz-adv-x="575" 
d="M-470 317l-2 25q115 47 139 119q9 41 -19 41q-40 -12 -82 -70q-3 -3 -8 -3l-3 20q44 63 91 69q17 3 28.5 -7t13.5 -27q0 -50 -44.5 -91t-100.5 -65q18 -16 28 -23q46 -33 100 -49.5t131 -12t159 39.5q22 10 55 26t60.5 28.5t54.5 20.5q71 24 100 2.5t-20 -85.5
q83 35 116 2q23 -24 15 -78q176 61 233 101q4 3 8.5 0.5t4.5 -7t-3 -7.5q-63 -43 -247 -106q-22 -92 -84.5 -173.5t-142.5 -123.5q-44 -23 -86.5 -27.5t-69.5 9t-38 37.5t7 61t66 77q81 66 304 142q10 40 6 61q-11 63 -159 -24q-22 -13 -25 -3q-1 6 7 15q70 70 74 103
q4 30 -62 8q-40 -12 -108 -45t-75 -36q-81 -33 -158 -36t-131.5 15t-100.5 51q-2 2 -14 11.5t-18 14.5zM287 162q-209 -72 -286 -135q-75 -62 -70.5 -108t60.5 -45t115 36q60 39 106.5 107t74.5 145z" />
    <glyph glyph-name="a.002" unicode="&#xe01a;" horiz-adv-x="539" 
d="M984 360l-2 -21q-66 -24 -200 -20q-42 0 -78 0.5t-78 -8t-78 -25.5q-220 -144 -323 -143q-18 0 -31.5 6t-22 14t-13 22.5t-6 25t-1 30t2 29t4 30t3.5 25.5q-20 -49 -55 -94.5t-73 -63.5q-38 -19 -60.5 -2t-12.5 61q7 34 34 68.5t68 47.5q18 8 43.5 4t36.5 -23q6 14 13 36
q-1 8 14 15q26 12 33 -21q4 -21 -1 -56q-15 -93 1 -117q11 -18 38 -19q48 4 107 29t95 47.5t94 60.5q53 26 110 33t136 5q125 -4 186 16q-27 28 -43 62q-13 28 -9.5 48.5t22.5 25.5q26 7 73 -21l3 -20q-3 0 -4 1q-46 29 -67 24q-22 -6 -2 -51q13 -30 43 -61zM132 302
q-2 15 -10.5 21.5t-20 4.5t-22 -6.5t-20.5 -11.5q-26 -19 -46.5 -54t-22.5 -57q-2 -21 14.5 -22t30.5 8q45 23 97 117z" />
    <glyph glyph-name="b.002" unicode="&#xe01b;" horiz-adv-x="538" 
d="M974 356l-2 -21q-66 -24 -200 -20q-94 2 -138 -4t-103 -34q-123 -59 -248 -71l-10 -10q-44 -41 -108 -63q-67 -23 -104 -6q-16 6 -17.5 20.5t9.5 24.5q29 30 126 43q24 4 67 6h3q27 31 31 63v2q5 33 -8.5 47.5t-35 12t-44 -12t-36.5 -22.5q-30 -26 -63 -69
q-4 -5 -12.5 -15t-13 -15t-12 -11t-15.5 -9q-45 -15 -45 59q5 119 50 236q46 118 117 195q42 44 88.5 57t73 -15.5t11.5 -94.5q-16 -78 -88.5 -166t-202.5 -161q-1 0 -1 -1q-10 -79 4 -80q11 -1 33 31q37 48 64 71q31 26 69 38t70 1q25 -9 35 -31q9 -20 5 -48
q-5 -32 -25 -58q111 11 228 69q40 20 84 29t81.5 9h80.5q125 -4 186 16q-27 28 -43 62q-13 28 -9.5 48.5t22.5 25.5q26 7 73 -21l3 -20q-3 0 -4 1q-46 29 -67 24q-22 -6 -2 -51q13 -30 43 -61zM46 322q122 71 190 154.5t83 155.5q12 57 -6 77.5t-50 8t-62 -45.5
q-69 -76 -114 -189q-31 -83 -41 -161zM133 147q60 21 98 56q-32 -2 -49 -4q-93 -13 -118 -39q-18 -18 19 -19q30 0 50 6z" />
    <glyph glyph-name="c.002" unicode="&#xe01c;" horiz-adv-x="473" 
d="M915 359l-2 -21q-66 -24 -200 -20q-41 0 -76.5 0.5t-77 -7.5t-77.5 -25q-42 -28 -117.5 -64.5t-148.5 -59.5q-81 -25 -130 -26q-91 -3 -111 59q-16 52 27 111q39 52 102 69q72 18 105 -6q27 -19 8 -48q-2 -5 -7 -4.5t-7 4t0 8.5q10 17 -3 26q-34 24 -95 -5
q-44 -22 -73 -69t-14.5 -86.5t81.5 -39.5q42 0 112 24q136 42 255 116q37 21 81.5 31t83 9.5t82.5 -0.5q125 -4 186 16q-27 28 -43 62q-13 28 -9.5 48.5t22.5 25.5q26 7 73 -21l3 -20q-3 0 -4 1q-46 29 -67 24q-22 -6 -2 -51q13 -30 43 -61z" />
    <glyph glyph-name="d.002" unicode="&#xe01d;" horiz-adv-x="773" 
d="M1218 360l-2 -21q-66 -24 -200 -20q-58 1 -95 0t-83.5 -11.5t-68.5 -32.5q-278 -252 -429 -269q-52 -5 -86 10q-54 25 -66 92q-10 50 2 120q-113 -83 -171 -90q-71 -9 -75 44q-4 50 47 110q46 52 101 68q41 11 71 -4.5t29 -57.5q-2 -29 -15 -59l19 14q34 125 107 253.5
t158 200.5q26 21 56.5 32t53 -2t16.5 -58q-7 -49 -47.5 -116.5t-112.5 -137.5q-67 -65 -183 -156q-18 -66 -19 -112q-3 -70 25 -105t88 -30q146 17 427 270q48 48 251 44q125 -4 186 16q-27 28 -43 62q-13 28 -9.5 48.5t22.5 25.5q26 7 73 -21l3 -20q-3 0 -4 1
q-46 29 -67 24q-22 -6 -2 -51q13 -30 43 -61zM253 297q102 82 162 140q70 67 109.5 133t45.5 111q4 42 -25 38q-29 -5 -69 -44q-71 -66 -130.5 -171.5t-92.5 -206.5zM98 325q-36 -19 -80 -75q-54 -71 -26 -90q10 -7 33 -4q21 2 70 27.5t57 41.5q21 41 23 74q0 21 -6 31.5
t-18.5 10.5t-24.5 -4t-28 -12z" />
    <glyph glyph-name="e.002" unicode="&#xe01e;" horiz-adv-x="471" 
d="M909 356l-2 -21q-66 -24 -200 -20q-68 2 -126 -10t-95.5 -28t-104.5 -45t-126 -49q-112 -38 -176 -36q-87 3 -101 64q-12 52 32 105q41 50 101 57t77 -14q13 -16 -20 -35q-41 -24 -125 -30q-37 -43 -22.5 -82.5t71.5 -46.5q40 -5 157 34q57 20 150 61t157 57.5t151 14.5
q125 -4 186 16q-27 28 -43 62q-13 28 -9.5 48.5t22.5 25.5q26 7 73 -21l3 -20q-3 0 -4 1q-46 29 -67 24q-22 -6 -2 -51q13 -30 43 -61zM61 313q77 8 105 23q19 12 2 17q-19 5 -45 -5q-35 -12 -62 -35z" />
    <glyph glyph-name="f.002" unicode="&#xe01f;" horiz-adv-x="322" 
d="M762 357l-2 -21q-66 -24 -200 -20q-71 2 -131 -11.5t-148 -46t-129 -45.5q-30 -9 -75 -19q18 -28 22 -70.5t-5 -74.5q-9 -35 -31 -45.5t-44 17.5q-30 43 -30 165q-25 2 -36 12q-6 8 -6 11q0 8 5 13q6 8 26 11q2 0 6.5 0.5t6.5 0.5q1 28 6 57q26 160 102 228
q36 34 72.5 25.5t28.5 -56.5q-16 -87 -159 -196q-5 -33 -6 -63q17 -7 30 -20q49 10 83 20q46 14 131 46t146.5 46t134.5 12q125 -4 186 16q-27 28 -43 62q-13 28 -9.5 48.5t22.5 25.5q26 7 73 -21l3 -20q-3 0 -4 1q-46 29 -67 24q-22 -6 -2 -51q13 -30 43 -61zM115 489
q-50 -74 -69 -173q125 100 137 174q7 38 -18 36q-26 -3 -50 -37zM77 53q10 30 5.5 71.5t-24.5 66.5l-24 -4q0 -96 17 -150q11 -35 23 4q2 6 3 12zM-11 203q1 4 1 14q-7 0 -10 -1q-10 -1 -16 -5h1q7 -7 24 -8zM34 210v-6q2 0 4.5 0.5t3.5 0.5q-1 1 -4 2.5t-4 2.5z" />
    <glyph glyph-name="g.002" unicode="&#xe020;" horiz-adv-x="434" 
d="M879 359l-2 -21q-66 -24 -200 -20q-42 0 -78 0.5t-78 -8t-79 -26.5q-66 -54 -238 -109q-37 -126 -116.5 -216.5t-192.5 -107.5q-66 -10 -92 20t-12.5 74.5t51.5 80.5q39 35 98 66t101.5 46.5t120.5 40.5q18 68 22 141q-22 -31 -63 -65t-71 -42q-48 -14 -58 29
q-9 41 21 87q37 55 95 45q21 -4 36.5 -18.5t17.5 -36.5q12 15 21 30q12 30 28.5 25t16.5 -34q-3 -82 -19 -146q165 54 225 106q35 18 78.5 26.5t82.5 8.5h82q125 -4 186 16q-27 28 -43 62q-13 28 -9.5 48.5t22.5 25.5q26 7 73 -21l3 -20q-3 0 -4 1q-46 29 -67 24
q-22 -6 -2 -51q13 -30 43 -61zM156 159q-71 -23 -113.5 -38.5t-97.5 -44.5t-91 -63q-38 -36 -48.5 -76t17 -60t88.5 0q89 29 152.5 106.5t92.5 175.5zM145 299q6 29 -7 43t-35 11q-38 -5 -66 -55q-25 -45 -11 -63q8 -10 29 -2q40 16 90 66z" />
    <glyph glyph-name="h.002" unicode="&#xe021;" horiz-adv-x="569" 
d="M1014 360l-2 -21q-66 -24 -200 -20q-42 0 -78 0.5t-78 -8t-79 -26.5q-136 -108 -231 -171q-1 -1 -15.5 -10t-21.5 -13.5t-22 -12.5t-24.5 -10.5t-21.5 -4.5t-20 2.5t-13 13.5q-15 26 26 146q7 22 11.5 37t8.5 33.5t1.5 28.5t-9.5 16t-23.5 0t-41.5 -22q-30 -20 -82 -77
q-18 -21 -35 -35t-33.5 -18.5t-26 11t-8.5 52.5q1 109 49 236q44 113 117 195q29 31 64 47t63 13t42.5 -32t4.5 -81q-16 -78 -89 -166t-203 -161q-1 0 -1 -1q-2 -15 -4 -49q-3 -63 48 1q53 58 84 79q72 48 110 27q29 -20 16 -77q-8 -29 -28 -77q-39 -104 -30 -120
q10 -15 107 50q81 55 220 162q40 20 84 29.5t81.5 9.5h80.5q125 -4 186 16q-27 28 -43 62q-13 28 -9.5 48.5t22.5 25.5q26 7 73 -21l3 -20q-3 0 -4 1q-46 29 -67 24q-22 -6 -2 -51q13 -30 43 -61zM201 672q-71 -80 -113 -189q-31 -81 -42 -161q122 71 190 154.5t83 155.5
q12 57 -6 77.5t-50 8t-62 -45.5z" />
    <glyph glyph-name="i.002" unicode="&#xe022;" horiz-adv-x="376" 
d="M820 360l-2 -21q-66 -24 -200 -20q-41 1 -77 1t-77 -8t-77 -25q-246 -147 -331 -147q-28 -1 -45 7t-24 19t-7 31.5t2.5 34.5t8.5 38q13 48 8 50q-7 4 -4 12q3 5 15.5 8t23 -4t8.5 -26q0 -4 -10 -43q-21 -69 -12 -92q8 -16 27 -20q86 -2 325 142q40 20 84 29.5t81.5 9.5
h80.5q125 -4 186 16q-27 28 -43 62q-13 28 -9.5 48.5t22.5 25.5q26 7 73 -21l3 -20q-3 0 -4 1q-46 29 -67 24q-22 -6 -2 -51q13 -30 43 -61zM10 382q-5 12 1 24q6 13 24 14.5t23 -12.5q5 -12 -3 -28q-6 -11 -23 -11t-22 13z" />
    <glyph glyph-name="j.002" unicode="&#xe023;" horiz-adv-x="250" 
d="M694 359l-2 -21q-66 -24 -200 -20q-64 2 -128.5 -12t-106.5 -31t-116 -49.5t-120 -50.5q-38 -127 -118 -218t-194 -106q-54 -6 -81 12t-25.5 48t19.5 64t47 59q38 33 95.5 62t99.5 44t115 39q17 70 21 138q1 20 16 19q17 0 24 -21q3 -8 2 -17q-5 -59 -16 -104
q37 16 116 52t116 50t102 27.5t132 11.5q125 -4 186 16q-27 28 -43 62q-13 28 -9.5 48.5t22.5 25.5q26 7 73 -21l3 -20q-3 0 -4 1q-46 29 -67 24q-22 -6 -2 -51q13 -30 43 -61zM-27 159q-102 -33 -171.5 -63t-121.5 -75q-38 -33 -52.5 -74.5t9.5 -65.5t85 -6q92 27 156 106
t95 178zM15 381q-6 13 0 24q6 13 24 14.5t24 -12.5q5 -12 -3 -28q-7 -11 -24 -11t-21 13z" />
    <glyph glyph-name="k.002" unicode="&#xe024;" horiz-adv-x="470" 
d="M915 360l-2 -21q-66 -24 -200 -20q-42 0 -78 0.5t-78 -8t-79 -26.5q-155 -130 -261 -172q-73 -25 -73 30q2 23 22 58.5t22 54.5q1 12 -10 17t-21 4t-19 -3q-4 -4 -26.5 -25.5t-35.5 -31.5q-38 -28 -59.5 -18.5t-21.5 52.5q6 119 53 239t114 192q33 36 63.5 53t51.5 16
t36.5 -15.5t20.5 -39t1 -57.5t-19 -68q-69 -156 -272 -269q-1 0 -1 -1q-8 -61 -4 -72q6 -16 30 4q19 15 56.5 50t61.5 54.5t62.5 35t77.5 10.5q7 0 7 -9q-2 -9 -10 -7q-71 10 -164 -72q64 7 71 -26q5 -23 -19.5 -66t-26.5 -50q-6 -15 -4 -24.5t15 -5.5q35 11 77 34.5t65 40
t75 57t61 47.5q37 18 80 26.5t80 8t79 -0.5q125 -4 186 16q-27 28 -43 62q-13 28 -9.5 48.5t22.5 25.5q26 7 73 -21l3 -20q-3 0 -4 1q-46 29 -67 24q-22 -6 -2 -51q13 -30 43 -61zM46 322q196 113 258 263q20 46 17.5 78t-16 48t-42.5 6.5t-62 -45.5q-130 -147 -155 -350z
" />
    <glyph glyph-name="l.002" unicode="&#xe025;" horiz-adv-x="476" 
d="M921 360l-2 -21q-66 -24 -200 -20q-42 0 -78 0.5t-78 -8t-79 -26.5q-3 -3 -42.5 -35t-52 -40.5t-49 -35.5t-57.5 -37.5t-53.5 -26.5t-60.5 -22t-55 -6q-64 2 -93.5 54t-24.5 115q5 121 47.5 233.5t118.5 197.5q44 44 90 57t71 -15.5t10 -95.5q-16 -78 -88.5 -167
t-202.5 -163l-3 -46q-3 -150 85 -152q36 -1 80.5 16.5t97.5 53.5t81.5 57.5t75.5 59.5q32 26 79.5 38t91 11.5t89.5 -0.5q125 -4 186 16q-27 28 -43 62q-13 28 -9.5 48.5t22.5 25.5q26 7 73 -21l3 -20q-3 0 -4 1q-46 29 -67 24q-22 -6 -2 -51q13 -30 43 -61zM45 319
q120 70 188 154t84 158q12 56 -5.5 77.5t-49 9t-60.5 -45.5q-130 -142 -157 -353z" />
    <glyph glyph-name="m.002" unicode="&#xe026;" horiz-adv-x="684" 
d="M1131 361l-2 -21q-66 -24 -200 -20q-42 0 -78 0.5t-78 -8t-78 -25.5q-58 -49 -107 -84q-92 -66 -154 -72q-60 -6 -59 57q0 14 3 31q1 7 7 28.5t9 35t4.5 34t-4.5 25.5q-11 18 -76 -19q-43 -26 -130 -97q-35 -31 -45.5 -28t-8.5 53q2 27 -7.5 34t-32.5 -3
q-47 -29 -119 -148q-4 -9 -12 -3q-4 4 -3 9l32 128l10 43v1q15 30 26 23.5t11 -34.5l-9 -35l-8 -33q35 47 63 63q20 16 44 14.5t36 -23.5q14 -22 6 -53q88 72 138 103q103 60 119 0q14 -48 -8 -106q-32 -87 24 -81q46 6 134 66q6 4 33 26t51.5 41.5t27.5 19.5q37 18 80 26.5
t80 8t79 -0.5q125 -4 186 16q-27 28 -43 62q-13 28 -9.5 48.5t22.5 25.5q26 7 73 -21l3 -20q-3 0 -4 1q-46 29 -67 24q-22 -6 -2 -51q13 -30 43 -61z" />
    <glyph glyph-name="n.002" unicode="&#xe027;" horiz-adv-x="506" 
d="M951 360l-2 -21q-66 -24 -200 -20q-41 0 -77 0.5t-77.5 -8t-78.5 -25.5q-40 -30 -99 -62t-107 -47q-59 -19 -84.5 10t-4.5 87q15 54 -2 64t-54 -17q-53 -35 -103.5 -82t-66.5 -75l-10 -22q-4 -10 -20 -8q-8 2 -8 6q19 70 45 172q6 22 25 14q17 -8 13 -24q0 -2 -1 -4
q-3 -13 -13 -42.5t-13 -42.5q87 87 143 122q60 38 94 21t10 -85q-5 -17 -7.5 -28.5t-2.5 -25.5t6 -19.5t17.5 -9t32.5 4.5q87 24 197 105q38 20 82 29t82.5 9h81.5q125 -4 186 16q-27 28 -43 62q-13 28 -9.5 48.5t22.5 25.5q26 7 73 -21l3 -20q-3 0 -4 1q-46 29 -67 24
q-22 -6 -2 -51q13 -30 43 -61z" />
    <glyph glyph-name="o.002" unicode="&#xe028;" horiz-adv-x="337" 
d="M782 360l-2 -21q-66 -24 -200 -20q-41 0 -77 0.5t-78 -8t-78 -25.5q-59 -40 -100.5 -35.5t-88.5 53.5q-8 -67 -42 -97q-26 -21 -56.5 -22.5t-51.5 23.5q-19 26 -13 67.5t34 65.5q30 26 66.5 20t56.5 -37q12 2 24 -15q13 -13 23.5 -20.5t31 -16t47 -2t56.5 27.5
q53 26 110 33t136 5q125 -4 186 16q-27 28 -43 62q-13 28 -9.5 48.5t22.5 25.5q26 7 73 -21l3 -20q-3 0 -4 1q-46 29 -67 24q-22 -6 -2 -51q13 -30 43 -61zM114 230q23 28 27 74q-14 39 -50 39.5t-54 -33.5q-11 -21 -13 -46.5t8 -43.5q17 -21 42 -15t40 25z" />
    <glyph glyph-name="p.002" unicode="&#xe029;" horiz-adv-x="391" 
d="M835 359l-2 -21q-66 -24 -200 -20q-41 0 -77.5 0.5t-78 -8t-78.5 -25.5q-72 -36 -200 -52q-25 -17 -34 -23q-67 -37 -106 -37q-32 0 -30 20q1 21 33 34l5 2q22 7 95 17q41 37 38 73q-4 32 -41 28q-21 -3 -42 -16.5t-30 -21.5t-33.5 -36.5t-26.5 -30.5q-37 -131 -65 -189
q-4 -12 -27 -23t-23 6q0 6 4 15q22 47 57 157.5t32 142.5q-1 18 18.5 15.5t24.5 -17.5q1 -2 1 -5q-1 -19 -13 -64q68 78 129 84q52 6 73 -29.5t-18 -81.5q109 15 171 47q92 39 242 35q125 -4 186 16q-27 28 -43 62q-13 28 -9.5 48.5t22.5 25.5q26 7 73 -21l3 -20q-3 0 -4 1
q-46 29 -67 24q-22 -6 -2 -51q13 -30 43 -61zM64 193q41 11 72 33q-56 -9 -73 -17q-17 -7 -18 -14q-2 -7 19 -2z" />
    <glyph glyph-name="q.002" unicode="&#xe02a;" horiz-adv-x="457" 
d="M902 360l-2 -21q-66 -24 -200 -20q-41 0 -77 0.5t-77.5 -7.5t-77.5 -25q-76 -58 -144 -92q-33 -17 -73 -28q8 -36 -2.5 -100t-26.5 -98q-3 -8 -8.5 -16.5t-12.5 -15.5t-14.5 -6t-13.5 12q-22 49 -4 219q-17 4 -25 14q-17 18 3 40q11 13 31 16q7 48 13 74
q-49 -57 -108 -78q-70 -24 -88 16q-15 33 15 74t81 48q70 10 86 -37q2 -6 2 -10q13 15 24 36q10 12 27.5 8.5t12.5 -24.5q-9 -33 -22 -119q17 -12 25 -37q31 8 71 27q62 29 137 87q4 4 6 4q38 18 81 27t80 8.5t79 -0.5q125 -4 186 16q-27 28 -43 62q-13 28 -9.5 48.5
t22.5 25.5q26 7 73 -21l3 -20q-3 0 -4 1q-46 29 -67 24q-22 -6 -2 -51q13 -30 43 -61zM83 246q45 19 79 53q3 12 -1 25q-15 44 -72 18q-39 -18 -56 -57q-15 -37 8 -45q15 -5 42 6zM235 163l-21 -3q-1 -13 -5 -47.5t-5.5 -49t-2.5 -48.5t3 -45l3 6q15 32 25 93t3 94zM171 179
l4 35q-10 -4 -17 -12t-2 -15q4 -5 15 -8zM218 199q0 -6 -2 -22l14 2q-7 13 -12 20z" />
    <glyph glyph-name="r.002" unicode="&#xe02b;" horiz-adv-x="350" 
d="M794 359l-2 -21q-66 -24 -200 -20q-41 0 -77.5 0.5t-78 -8t-78.5 -25.5q-42 -22 -75 -30t-52 -3t-34.5 15.5t-21.5 25t-13 25t-9.5 16t-11.5 -2.5q-60 -65 -106 -178q-30 -72 -37 -114q0 -8 -5 -13t-11 -6t-12.5 0t-11 5.5t-4.5 11.5q3 60 28 190q21 100 37 131
q6 13 17 14t18 -8t3 -20q-17 -37 -36 -138l-12 -71l10 25q53 130 119 191q49 44 63 -20q23 -98 149 -31q92 39 242 35q125 -4 186 16q-27 28 -43 62q-13 28 -9.5 48.5t22.5 25.5q26 7 73 -21l3 -20q-3 0 -4 1q-46 29 -67 24q-22 -6 -2 -51q13 -30 43 -61z" />
    <glyph glyph-name="s.002" unicode="&#xe02c;" horiz-adv-x="260" 
d="M701 358l-2 -21q-66 -24 -200 -20q-102 3 -196 -24.5t-213 -83.5q-8 -48 -74 -60q-57 -8 -77 7q-19 14 28 32l22 7l57 17q-3 29 -32 65q-30 30 -14 67q11 22 40 32q12 3 15.5 -2.5t1 -13.5t-7.5 -13q-21 -27 4 -57q29 -39 35 -64q124 56 216.5 83t194.5 25q125 -4 186 16
q-27 28 -43 62q-13 28 -9.5 48.5t22.5 25.5q26 7 73 -21l3 -20q-3 0 -4 1q-46 29 -67 24q-22 -6 -2 -51q13 -30 43 -61zM13 170q22 9 30 24q-46 -14 -49 -15q-34 -10 -32 -14q3 -7 37 1q8 2 14 4z" />
    <glyph glyph-name="t.002" unicode="&#xe02d;" horiz-adv-x="463" 
d="M907 360l-2 -21q-66 -24 -200 -20q-41 0 -77 0.5t-77.5 -7.5t-77.5 -25q-9 -6 -108.5 -77.5t-154.5 -97.5q-57 -25 -99 -31t-66.5 6t-39 34.5t-16.5 56.5t1.5 70.5t14.5 77t23 75.5t26 67q-276 -41 -307 -28q-7 3 -5 11q3 7 11 5q29 -12 309 31q41 84 90 115
q31 22 57.5 12t22.5 -50q-3 -21 -19 -55q180 25 187 4q3 -7 -11.5 -17t-47 -24.5t-87.5 -34.5q-5 -2 -8 1t-2.5 8t4.5 7q130 49 130 54q-2 8 -175 -16q-10 -20 -36 -57q-55 -76 -126 -136q-2 -8 -7 -32q-13 -72 -0.5 -113.5t54 -51t115.5 25.5q55 26 145.5 93t113.5 80
q36 21 80 30t82 7.5t81 -1.5q125 -4 186 16q-27 28 -43 62q-13 28 -9.5 48.5t22.5 25.5q26 7 73 -21l3 -20q-3 0 -4 1q-46 29 -67 24q-22 -6 -2 -51q13 -30 43 -61zM48 327q58 52 106 117q20 30 28 44l-80 -12q-4 -8 -5 -12q-30 -66 -49 -137zM110 494l83 12q19 38 22 60
q2 19 -5.5 25.5t-26.5 -3.5q-37 -23 -73 -94z" />
    <glyph glyph-name="u.002" unicode="&#xe02e;" horiz-adv-x="479" 
d="M925 361l-2 -21q-80 -29 -200 -20q-98 7 -166 -15.5t-150 -88.5q-57 -44 -91 -53q-34 -11 -58 0t-31 42q-7 37 10 105q-10 -12 -35 -37q-40 -38 -78 -65q-120 -79 -141 -5q-10 36 11 86q19 44 52 63l30 -3q17 -3 5 -10q-26 -15 -45 -61q-12 -28 -13 -50q0 -17 4.5 -26.5
t13.5 -10.5t16.5 0t21 8.5t19 11t17.5 11.5q39 27 75 63q35 34 61 69q8 23 29 16q18 -5 14 -19q-28 -68 -28 -128q0 -57 46 -44q35 12 92 56q47 38 87.5 60t76 31t74 11t81.5 0q125 -4 186 16q-27 28 -43 62q-13 28 -9.5 48.5t22.5 25.5q26 7 73 -21l3 -20q-3 0 -4 1
q-46 29 -67 24q-22 -6 -2 -51q13 -30 43 -61z" />
    <glyph glyph-name="v.002" unicode="&#xe02f;" horiz-adv-x="395" 
d="M841 361l-2 -21q-66 -24 -200 -20q-41 0 -77 0.5t-77.5 -7.5t-77.5 -25q-45 -37 -84 -44.5t-70 9t-64 55.5q-17 -55 -65 -125q-24 -35 -48.5 -47.5t-41.5 -4t-30 28.5t-15.5 51t3.5 64q14 59 47 78l33 -4q12 -3 2 -9q-28 -17 -38 -67q-11 -52 3 -95q18 -52 62 2l9 13
q50 70 68 134q3 9 10 8q2 0 12 -12q77 -118 196 -22q38 19 81.5 27.5t81 8.5h80.5q125 -4 186 16q-27 28 -43 62q-13 28 -9.5 48.5t22.5 25.5q26 7 73 -21l3 -20q-3 0 -4 1q-46 29 -67 24q-22 -6 -2 -51q13 -30 43 -61z" />
    <glyph glyph-name="w.002" unicode="&#xe030;" horiz-adv-x="578" 
d="M1023 360l-2 -21q-66 -24 -200 -20q-42 0 -78.5 0.5t-78.5 -8t-78 -26.5q-120 -95 -201 6q-6 8 -12 17q-24 -67 -66 -125q-26 -38 -57 -49.5t-53.5 9t-23.5 67.5q-40 -45 -71 -67q-46 -30 -75.5 -14t-41 57.5t-0.5 81.5q17 55 62 79l31 -3q16 -3 4 -10q-38 -21 -54 -69
q-13 -46 5.5 -93t65.5 -11q35 29 75 75q10 76 37 110q20 27 44 27t11 -35q-11 -29 -47 -75q-4 -30 -3 -45q1 -55 22 -64t55 39q20 28 41 68t27 66q1 6 4 7.5t7 -1t6.5 -5.5t4.5 -5l15 -22q14 -22 38.5 -34.5t65 -6t81.5 41.5q37 18 79.5 26.5t79.5 8t79 -0.5q125 -4 186 16
q-27 28 -43 62q-13 28 -9.5 48.5t22.5 25.5q26 7 73 -21l3 -20q-3 0 -4 1q-46 29 -67 24q-22 -6 -2 -51q13 -30 43 -61zM256 349q-15 -10 -26 -45q24 32 26 45z" />
    <glyph glyph-name="x.002" unicode="&#xe031;" horiz-adv-x="414" 
d="M859 360l-2 -21q-66 -24 -200 -20q-41 0 -77 0.5t-78 -8t-78 -25.5q-7 -5 -28.5 -19t-31.5 -20t-30 -17.5t-33.5 -18t-32 -13.5t-35.5 -11q-83 -20 -99 70q-72 -39 -93 -72q-3 -7 -11 -3q-7 5 -3 12q22 37 104 81q-10 55 -24 66q-14 12 -38 -2q-25 -13 -58 -50
q-6 -6 -12 -1q-5 7 0 12q30 36 61 54q33 20 56 15t35.5 -23.5t17.5 -50.5q62 32 102 67q5 6 12 -1q5 -6 -1 -12q-40 -34 -110 -72q6 -46 23 -61t46 -9q56 12 170 91q53 26 110 33t136 5q125 -4 186 16q-27 28 -43 62q-13 28 -9.5 48.5t22.5 25.5q26 7 73 -21l3 -20
q-3 0 -4 1q-46 29 -67 24q-22 -6 -2 -51q13 -30 43 -61z" />
    <glyph glyph-name="y.002" unicode="&#xe032;" horiz-adv-x="486" 
d="M931 360l-2 -21q-66 -24 -200 -20q-66 2 -131.5 -12.5t-109.5 -33t-117 -51t-123 -51.5q-28 -98 -87 -179.5t-142 -116.5q-43 -18 -83 -20.5t-64.5 10.5t-35.5 35t2 54.5t50 67.5q36 35 95.5 65.5t98.5 44.5t122 42h1q22 68 31 154q-127 -151 -210 -200
q-19 -12 -40 -16.5t-37.5 5t-16.5 35.5q2 63 82 169q14 15 32 5q14 -9 3 -20q-57 -76 -73 -142q-3 -19 -0.5 -27.5t13.5 -6t20.5 7t19.5 11.5q87 58 210 209q8 13 25 10.5t17 -18.5q-6 -86 -27 -160q46 18 119.5 52t115 51.5t107 31t133.5 11.5q125 -4 186 16q-27 28 -43 62
q-13 28 -9.5 48.5t22.5 25.5q26 7 73 -21l3 -20q-3 0 -4 1q-46 29 -67 24q-22 -6 -2 -51q13 -30 43 -61zM199 154q-76 -24 -120.5 -40.5t-100.5 -48t-90 -68.5q-26 -29 -34 -54t2 -39.5t29.5 -22.5t48.5 -5t59 16q74 35 125.5 105.5t80.5 156.5z" />
    <glyph glyph-name="z.002" unicode="&#xe033;" horiz-adv-x="575" 
d="M1013 357l-2 -21q-66 -24 -200 -20q-66 2 -129 -10.5t-104 -28t-116 -47.5t-124 -50q-22 -92 -84.5 -173.5t-142.5 -123.5q-44 -23 -86.5 -27.5t-69.5 9t-38 37.5t7 61t66 77q81 66 304 142q10 40 6 61q-11 63 -159 -24q-22 -13 -25 -3q-1 6 7 15q76 76 79 104
q0 29 -67 7q-36 -11 -77.5 -30.5t-57.5 -30.5q-8 -5 -12 5q-3 7 3 9q15 11 58.5 31.5t81.5 31.5q48 17 85 11q15 -2 23.5 -12t5.5 -23q-2 -15 -20 -41q-4 -6 -14 -18q83 35 116 2q23 -24 15 -78q35 14 118.5 49t120 48t101.5 25.5t129 11.5q125 -4 186 16q-27 28 -43 62
q-13 28 -9.5 48.5t22.5 25.5q26 7 73 -21l3 -20q-3 0 -4 1q-46 29 -67 24q-22 -6 -2 -51q13 -30 43 -61zM287 162q-209 -72 -286 -135q-75 -62 -70.5 -108t60.5 -45t115 36q60 39 106.5 107t74.5 145z" />
    <glyph glyph-name="a.003" unicode="&#xe034;" horiz-adv-x="539" 
d="M-357 442q-12 0 -13 3q-2 5 24 10q21 4 20 -4q-1 -7 -19 -21q-29 -23 -43.5 -55.5t-11.5 -64.5q3 -30 23 -54q19 -24 57 -36q125 -38 344 103q17 12 39 19t45 3.5t34 -22.5q6 14 13 36q-1 8 14 15q26 12 33 -21q4 -21 -1 -56q-15 -93 1 -117q11 -18 38 -19
q48 4 108.5 30.5t94.5 47t96 61.5q4 3 8 0.5t4.5 -7t-3.5 -7.5q-220 -144 -323 -143q-18 0 -31.5 6t-22 14t-13 22.5t-6 25t-1 30t2 29t4 30t3.5 25.5q-20 -49 -55 -94.5t-73 -63.5q-38 -19 -60.5 -2t-12.5 61q5 25 21 51q-191 -108 -306 -73q-40 12 -65 41q-23 29 -27 64
t12 71t48 62zM132 302q-2 15 -10.5 21.5t-20 4.5t-22 -6.5t-20.5 -11.5q-26 -19 -46.5 -54t-22.5 -57q-2 -21 14.5 -22t30.5 8q45 23 97 117z" />
    <glyph glyph-name="b.003" unicode="&#xe035;" horiz-adv-x="538" 
d="M-380 422q-12 0 -13 3q-2 5 23 10q22 4 21 -4q-1 -7 -19 -21q-29 -23 -43.5 -55.5t-11.5 -64.5q3 -30 23 -54t57 -36q123 -38 342 101q11 94 46 186q46 118 117 195q42 44 88.5 57t73 -15.5t11.5 -94.5q-16 -78 -88.5 -166t-202.5 -161q-14 -89 8 -80q10 4 28 30
q37 48 64 71q31 26 69 38t70 1q25 -9 35 -31q9 -20 5 -48q-5 -32 -25 -58q114 11 240 75q5 2 9 -0.5t4 -7.5t-5 -7q-134 -67 -263 -79l-10 -10q-44 -41 -108 -63q-67 -23 -104 -6q-16 6 -17.5 20.5t9.5 24.5q29 30 126 43q24 4 67 6h3q27 31 31 63v2q5 33 -8.5 47.5t-35 12
t-44 -12t-36.5 -22.5q-30 -26 -63 -69q-4 -5 -12.5 -15t-13 -15t-12 -11t-15.5 -9q-15 -5 -24.5 0t-13.5 19.5t-5 30t0 38.5q-217 -134 -345 -96q-40 12 -65 41q-23 29 -27 64t12 71t48 62zM46 322q122 71 190 154.5t83 155.5q12 57 -6 77.5t-50 8t-62 -45.5
q-69 -76 -114 -189q-31 -83 -41 -161zM133 147q60 21 98 56q-32 -2 -49 -4q-93 -13 -118 -39q-18 -18 19 -19q30 0 50 6z" />
    <glyph glyph-name="c.003" unicode="&#xe036;" horiz-adv-x="473" 
d="M-357 442q-12 0 -13 3q-2 5 24 10q21 4 20 -4q-1 -7 -19 -21q-29 -23 -43.5 -55.5t-11.5 -64.5q3 -30 23 -54q19 -24 57 -36q118 -36 326 92q39 47 98 63q72 18 105 -6q27 -19 8 -48q-2 -5 -7 -4.5t-7 4t0 8.5q10 17 -3 26q-34 24 -95 -5q-44 -22 -73 -69t-14.5 -86.5
t81.5 -39.5q42 0 112 24q72 23 146.5 58.5t115.5 62.5q4 3 8 0.5t4.5 -7t-3.5 -7.5q-42 -28 -117.5 -64.5t-148.5 -59.5q-81 -25 -130 -26q-53 -1 -83 21t-31 54.5t14 68.5q-193 -112 -311 -76q-40 12 -65 41q-23 29 -27 64t12 71t48 62z" />
    <glyph glyph-name="d.003" unicode="&#xe037;" horiz-adv-x="773" 
d="M-357 442q-12 0 -13 3q-2 5 24 10q21 4 20 -4q-1 -7 -19 -21q-29 -23 -43.5 -55.5t-11.5 -64.5q3 -30 23 -54q19 -24 57 -36q123 -38 338 99q37 30 74 41q41 11 71 -4.5t29 -57.5q-2 -29 -15 -59l19 14q34 125 107 253.5t158 200.5q26 21 56.5 32t53 -2t16.5 -58
q-7 -49 -47.5 -116.5t-112.5 -137.5q-67 -65 -183 -156q-18 -66 -19 -112q-3 -70 25 -105t88 -30q149 17 435 278q4 4 8.5 2.5t5 -6t-2.5 -8.5q-290 -265 -444 -282q-52 -5 -86 10q-54 25 -66 92q-10 50 2 120q-113 -83 -171 -90q-45 -6 -63 15t-10.5 54t33.5 68
q-189 -105 -304 -71q-40 12 -65 41q-23 29 -27 64t12 71t48 62zM253 297q102 82 162 140q70 67 109.5 133t45.5 111q4 42 -25 38q-29 -5 -69 -44q-71 -66 -130.5 -171.5t-92.5 -206.5zM98 325q-36 -19 -80 -75q-54 -71 -26 -90q10 -7 33 -4q21 2 70 27.5t57 41.5
q21 41 23 74q0 21 -6 31.5t-18.5 10.5t-24.5 -4t-28 -12z" />
    <glyph glyph-name="e.003" unicode="&#xe038;" horiz-adv-x="471" 
d="M-357 442q-12 0 -13 3q-2 5 24 10q21 4 20 -4q-1 -7 -19 -21q-29 -23 -43.5 -55.5t-11.5 -64.5q3 -30 23 -54q19 -24 57 -36q119 -36 327 92q42 54 104 61q60 7 77 -14q13 -16 -20 -35q-41 -24 -125 -30q-37 -43 -22.5 -82.5t71.5 -46.5q40 -5 157 34q134 46 222 101
q7 4 11 -3t-2 -12q-101 -60 -225 -102q-112 -38 -176 -36q-48 1 -74.5 22t-27.5 50t11 61q-195 -112 -313 -76q-40 12 -65 41q-23 29 -27 64t12 71t48 62zM61 313q77 8 105 23q19 12 2 17q-19 5 -45 -5q-35 -12 -62 -35z" />
    <glyph glyph-name="f.003" unicode="&#xe039;" horiz-adv-x="322" 
d="M-393 403q-12 0 -13 3q-2 5 24 10q21 4 20 -4q-1 -7 -19 -21q-29 -23 -43.5 -55.5t-11.5 -64.5q3 -30 23 -54q19 -24 57 -36q127 -38 353 108q25 162 102 230q36 34 72.5 25.5t28.5 -56.5q-16 -87 -159 -196q-5 -33 -6 -63q17 -7 30 -20q49 10 83 20q98 29 174 71
q4 3 8 0t4 -7.5t-4 -6.5q-72 -41 -178 -73q-30 -9 -75 -19q18 -28 22 -70.5t-5 -74.5q-9 -35 -31 -45.5t-44 17.5q-30 43 -30 165q-25 2 -36 12q-6 8 -6 11q0 8 5 13q6 8 26 11q2 0 6.5 0.5t6.5 0.5l3 33q-225 -142 -355 -102q-40 12 -65 41q-23 29 -27 64t12 71t48 62z
M115 489q-50 -74 -69 -173q125 100 137 174q7 38 -18 36q-26 -3 -50 -37zM77 53q10 30 5.5 71.5t-24.5 66.5l-24 -4q0 -96 17 -150q11 -35 23 4q2 6 3 12zM-11 203q1 4 1 14q-7 0 -10 -1q-10 -1 -16 -5h1q7 -7 24 -8zM34 210v-6q2 0 4.5 0.5t3.5 0.5q-1 1 -4 2.5t-4 2.5z
" />
    <glyph glyph-name="g.003" unicode="&#xe03a;" horiz-adv-x="434" 
d="M-341 479q-12 0 -13 3q-2 5 24 10q21 4 20 -4q-1 -7 -19 -21q-29 -23 -43.5 -55.5t-11.5 -64.5q3 -30 23 -54q19 -24 57 -36q127 -38 354 109q25 13 58 8q21 -4 36.5 -18.5t17.5 -36.5q12 15 21 30q12 30 28.5 25t16.5 -34q-3 -82 -19 -146q165 54 225 106q4 3 8.5 1
t5 -6t-2.5 -8q-41 -35 -97.5 -59.5t-143.5 -52.5q-37 -126 -116.5 -216.5t-192.5 -107.5q-66 -10 -92 20t-12.5 74.5t51.5 80.5q39 35 98 66t101.5 46.5t120.5 40.5q18 68 22 141q-22 -31 -63 -65t-71 -42q-46 -13 -57 26.5t14 80.5q-197 -115 -316 -79q-40 12 -65 41
q-23 29 -27 64t12 71t48 62zM156 159q-71 -23 -113.5 -38.5t-97.5 -44.5t-91 -63q-38 -36 -48.5 -76t17 -60t88.5 0q89 29 152.5 106.5t92.5 175.5zM145 299q6 29 -7 43t-35 11q-38 -5 -66 -55q-25 -45 -11 -63q8 -10 29 -2q40 16 90 66z" />
    <glyph glyph-name="h.003" unicode="&#xe03b;" horiz-adv-x="569" 
d="M-371 428q-12 0 -13 3q-2 5 24 10q21 4 20 -4q-1 -7 -19 -21q-29 -23 -43.5 -55.5t-11.5 -64.5q3 -30 23 -54q19 -24 57 -36q122 -36 333 96q9 90 46 185q44 113 117 195q29 31 64 47t63 13t42.5 -32t4.5 -81q-16 -78 -89 -166t-203 -161q-5 -2 -5 -50q-3 -63 48 1
q53 58 84 79q72 48 110 27q29 -20 16 -77q-8 -29 -28 -77q-39 -104 -30 -120q10 -15 107 50q83 56 223 165q8 4 12.5 -2t-2.5 -11q-135 -108 -233 -173q-1 -1 -15.5 -10t-21.5 -13.5t-22 -12.5t-24.5 -10.5t-21.5 -4.5t-20 2.5t-13 13.5q-15 26 26 146q7 22 11.5 37
t8.5 33.5t1.5 28.5t-9.5 16t-23.5 0t-41.5 -22q-30 -20 -82 -77q-41 -61 -75 -50t-27 90q-210 -129 -336 -91q-40 12 -65 41q-23 29 -27 64t12 71t48 62zM201 672q-71 -80 -113 -189q-31 -81 -42 -161q122 71 190 154.5t83 155.5q12 57 -6 77.5t-50 8t-62 -45.5z" />
    <glyph glyph-name="i.003" unicode="&#xe03c;" horiz-adv-x="376" 
d="M-390 450q-12 0 -13 3q-2 5 23 10q22 4 21 -4q-1 -7 -19 -21q-29 -23 -43.5 -55.5t-11.5 -64.5q3 -30 23 -54t57 -36q128 -38 351 107q16 12 31 2.5t13 -27.5q0 -4 -10 -43q-21 -69 -12 -92q8 -16 27 -20q45 -1 119 31t210 114q5 2 9 -0.5t4 -6.5t-4 -7
q-241 -144 -329 -146q-28 -1 -45 7t-24 19t-7 31.5t2.5 34.5t8.5 38q10 37 9 47q-225 -145 -358 -105q-40 12 -65 41q-23 29 -27 64t12 71t48 62zM10 382q-5 12 1 24q6 13 24 14.5t23 -12.5q5 -12 -3 -28q-6 -11 -23 -11t-22 13z" />
    <glyph glyph-name="j.003" unicode="&#xe03d;" horiz-adv-x="250" 
d="M-381 449q-12 0 -13 3q-2 5 24 10q21 4 20 -4q-1 -7 -19 -21q-29 -23 -43.5 -55.5t-11.5 -64.5q3 -30 23 -54q19 -24 57 -36q127 -38 354 109q12 8 22.5 -9t9.5 -29q-5 -59 -16 -104q81 27 133.5 50.5t90.5 55.5q7 7 12 -2q3 -7 -2 -11q-64 -56 -239 -112
q-38 -127 -118 -218t-194 -106q-54 -6 -81 12t-25.5 48t19.5 64t47 59q38 33 95.5 62t99.5 44t115 39q15 58 21 131q-220 -137 -349 -99q-40 12 -65 41q-23 29 -27 64t12 71t48 62zM-27 159q-102 -33 -171.5 -63t-121.5 -75q-38 -33 -52.5 -74.5t9.5 -65.5t85 -6
q92 27 156 106t95 178zM15 381q-6 13 0 24q6 13 24 14.5t24 -12.5q5 -12 -3 -28q-7 -11 -24 -11t-21 13z" />
    <glyph glyph-name="k.003" unicode="&#xe03e;" horiz-adv-x="470" 
d="M-388 413q-12 0 -13 3q-2 5 23 10q22 4 21 -4q-1 -7 -19 -21q-29 -23 -43.5 -55.5t-11.5 -64.5q3 -30 23 -54t57 -36q125 -38 350 106q13 109 57.5 214.5t105.5 170.5q33 36 63.5 53t51.5 16t36.5 -15.5t20.5 -39t1 -57.5t-19 -68q-69 -156 -272 -269l-5 -40
q-2 -40 15 -37q6 1 15 8q19 15 56.5 50t61.5 54.5t62.5 35t77.5 10.5q7 0 7 -9q-2 -9 -10 -7q-71 10 -164 -72q64 7 71 -26q5 -23 -19.5 -66t-26.5 -50q-6 -15 -4 -24.5t15 -5.5q24 7 50 20t45.5 24t49 32.5t43 32t46 36t40.5 32.5q4 3 8.5 1t4.5 -6.5t-3 -7.5
q-159 -133 -263 -174q-73 -25 -73 30q2 23 22 58.5t22 54.5q1 12 -10 17t-21 4t-19 -3q-4 -4 -26.5 -25.5t-35.5 -31.5q-38 -30 -59 -15.5t-20 74.5q-224 -141 -353 -101q-40 12 -65 41q-23 29 -27 64t12 71t48 62zM46 322q196 113 258 263q20 46 17.5 78t-16 48t-42.5 6.5
t-62 -45.5q-130 -147 -155 -350z" />
    <glyph glyph-name="l.003" unicode="&#xe03f;" horiz-adv-x="476" 
d="M-371 422q-12 0 -13 3q-2 5 24 10q21 4 20 -4q-1 -7 -19 -21q-29 -23 -43.5 -55.5t-11.5 -64.5q3 -30 23 -54q19 -24 57 -36q122 -36 333 96q11 109 52.5 209t110.5 177q44 44 90 57t71 -15.5t10 -95.5q-16 -78 -88.5 -167t-202.5 -163q-11 -100 13.5 -148.5t68.5 -49.5
q16 0 35 4t36 9.5t39.5 17.5t38.5 20.5t40.5 25.5t37 25.5t37.5 27.5t32.5 25t30.5 25t25 20q4 3 8.5 1t4.5 -6.5t-3 -7.5q-51 -41 -70 -55.5t-71 -51t-83 -52.5t-73 -31.5t-75 -14.5q-65 2 -94 57.5t-22 135.5q-211 -129 -337 -91q-40 12 -65 41q-23 29 -27 64t12 71t48 62
zM45 319q120 70 188 154t84 158q12 56 -5.5 77.5t-49 9t-60.5 -45.5q-130 -142 -157 -353z" />
    <glyph glyph-name="m.003" unicode="&#xe040;" horiz-adv-x="684" 
d="M-376 438q-12 0 -13 3q-2 5 23 10q22 4 21 -4q-1 -7 -19 -21q-29 -23 -43.5 -55.5t-11.5 -64.5q3 -30 23 -54t57 -36q125 -38 344 103q14 23 24 15.5t10 -33.5l-17 -68q35 47 63 63q20 16 44 14.5t36 -23.5q14 -22 6 -53q88 72 138 103q103 60 119 0q14 -48 -8 -106
q-32 -87 24 -81q46 6 134 66q31 22 106 84q5 4 8.5 2.5t4 -6.5t-1.5 -9q-58 -49 -107 -84q-92 -66 -154 -72q-60 -6 -59 57q0 14 3 31q1 7 7 28.5t9 35t4.5 34t-4.5 25.5q-11 18 -76 -19q-43 -26 -130 -97q-35 -31 -45.5 -28t-8.5 53q2 27 -7.5 34t-32.5 -3
q-47 -29 -119 -148q-4 -9 -12 -3q-4 4 -3 9q27 107 38 154q-215 -132 -342 -94q-40 12 -65 41q-23 29 -27 64t12 71t48 62z" />
    <glyph glyph-name="n.003" unicode="&#xe041;" horiz-adv-x="506" 
d="M-381 436q-12 0 -13 3q-2 5 24 10q21 4 20 -4q-1 -7 -19 -21q-29 -23 -43.5 -55.5t-11.5 -64.5q3 -30 23 -54q19 -24 57 -36q127 -38 349 106q7 8 16.5 7t16 -10.5t1.5 -18.5q-3 -13 -13 -42.5t-13 -42.5q87 87 143 122q60 38 94 21t10 -85q-5 -17 -7.5 -28.5t-2.5 -25.5
t6 -19.5t17.5 -9t32.5 4.5q93 27 200 107q7 4 11.5 -2.5t-1.5 -11.5q-40 -30 -99 -62t-107 -47q-59 -19 -84.5 10t-4.5 87q15 54 -2 64t-54 -17q-53 -35 -103.5 -82t-66.5 -75l-10 -22q-4 -10 -20 -8q-8 2 -8 6q22 77 41 156q-217 -136 -347 -98q-40 12 -65 41
q-23 29 -27 64t12 71t48 62z" />
    <glyph glyph-name="o.003" unicode="&#xe042;" horiz-adv-x="337" 
d="M-349 463q-12 0 -13 3q-2 5 24 10q21 4 20 -4q-1 -7 -19 -21q-29 -23 -43.5 -55.5t-11.5 -64.5q3 -30 23 -54q19 -24 57 -36q125 -38 344 103q30 23 65.5 16.5t54.5 -36.5q12 2 24 -15q14 -14 24 -21.5t31 -15.5t48 -1t58 29q7 5 12 -2t-2 -12q-59 -40 -100.5 -35.5
t-88.5 53.5q-8 -67 -42 -97q-26 -21 -56.5 -22.5t-51.5 23.5q-13 19 -14 46.5t10 52.5q-200 -118 -321 -82q-40 12 -65 41q-23 29 -27 64t12 71t48 62zM114 230q23 28 27 74q-14 39 -50 39.5t-54 -33.5q-11 -21 -13 -46.5t8 -43.5q17 -21 42 -15t40 25z" />
    <glyph glyph-name="p.003" unicode="&#xe043;" horiz-adv-x="391" 
d="M-377 479q-12 0 -13 3q-2 5 24 10q21 4 20 -4q-1 -7 -19 -21q-29 -23 -43.5 -55.5t-11.5 -64.5q3 -30 23 -54q19 -24 57 -36q126 -38 348 105q10 10 25.5 2.5t15.5 -20.5q-1 -19 -13 -64q68 78 129 84q52 6 73 -29.5t-18 -81.5q109 15 171 47q5 2 9 -0.5t3.5 -7
t-4.5 -7.5q-72 -36 -200 -52q-25 -17 -34 -23q-67 -37 -106 -37q-32 0 -30 20q1 21 33 34l5 2q22 7 95 17q41 37 38 73q-4 32 -41 28q-21 -3 -42 -16.5t-30 -21.5t-33.5 -36.5t-26.5 -30.5q-37 -131 -65 -189q-4 -12 -27 -23t-23 6q0 6 4 15q21 42 54 144.5t35 144.5
q-218 -137 -350 -99q-40 12 -65 41q-23 29 -27 64t12 71t48 62zM64 193q41 11 72 33q-56 -9 -73 -17q-17 -7 -18 -14q-2 -7 19 -2z" />
    <glyph glyph-name="q.003" unicode="&#xe044;" horiz-adv-x="457" 
d="M-337 469q-12 0 -13 3q-2 5 24 10q21 4 20 -4q-1 -7 -19 -21q-29 -23 -43.5 -55.5t-11.5 -64.5q3 -30 23 -54q19 -24 57 -36q127 -38 354 109q23 10 46.5 13.5t47 -8t31.5 -42.5q13 15 24 36q10 12 27.5 8.5t12.5 -24.5q-9 -33 -22 -119q17 -12 25 -37q31 8 71 27
q64 31 140 90q7 5 11.5 -1.5t-0.5 -11.5q-76 -58 -144 -92q-33 -17 -73 -28q8 -36 -2.5 -100t-26.5 -98q-3 -8 -8.5 -16.5t-12.5 -15.5t-14.5 -6t-13.5 12q-22 49 -4 219q-17 4 -25 14q-17 18 3 40q11 13 31 16q7 48 13 74q-49 -57 -108 -78q-41 -15 -65.5 -5.5t-26 32.5
t9.5 49q-191 -108 -306 -73q-40 12 -65 41q-23 29 -27 64t12 71t48 62zM83 246q45 19 79 53q5 34 -20.5 45.5t-52.5 -2.5q-39 -18 -56 -57q-15 -37 8 -45q15 -5 42 6zM235 163l-21 -3q-1 -13 -5 -47.5t-5.5 -49t-2.5 -48.5t3 -45l3 6q15 32 25 93t3 94zM171 179l4 35
q-10 -4 -17 -12t-2 -15q4 -5 15 -8zM218 199q0 -6 -2 -22l14 2q-7 13 -12 20z" />
    <glyph glyph-name="r.003" unicode="&#xe045;" horiz-adv-x="350" 
d="M-361 484q-12 0 -13 3q-2 5 24 10q21 4 20 -4q-1 -7 -19 -21q-29 -23 -43.5 -55.5t-11.5 -64.5q3 -30 23 -54q19 -24 57 -36q127 -38 354 109q11 7 20.5 -4.5t6.5 -22.5q-17 -37 -36 -138l-12 -71l10 25q53 130 119 191q49 44 63 -20q23 -98 149 -31q5 2 9 -0.5t4 -7.5
t-5 -7q-42 -22 -75 -30t-52 -3t-34.5 15.5t-21.5 25t-13 25t-9.5 16t-11.5 -2.5q-60 -65 -106 -178q-30 -72 -37 -114q0 -8 -5 -13t-11 -6t-12.5 0t-11 5.5t-4.5 11.5q3 60 28 190q20 87 29 112q-214 -131 -340 -93q-40 12 -65 41q-23 29 -27 64t12 71t48 62z" />
    <glyph glyph-name="s.003" unicode="&#xe046;" horiz-adv-x="260" 
d="M-369 480q-12 0 -13 3q-2 5 24 10q21 4 20 -4q-1 -7 -19 -21q-29 -23 -43.5 -55.5t-11.5 -64.5q3 -30 23 -54q19 -24 57 -36q126 -38 348 105q11 8 24 13q12 3 15.5 -2.5t1 -13.5t-7.5 -13q-21 -27 4 -57q29 -39 35 -64q120 41 172 74q4 3 8 0t4.5 -7t-3.5 -7
q-56 -37 -179 -77q-8 -48 -74 -60q-57 -8 -77 7q-19 14 28 32l22 7l57 17q-3 29 -32 65q-23 23 -18 54q-209 -127 -333 -89q-40 12 -65 41q-23 29 -27 64t12 71t48 62zM13 170q22 9 30 24q-46 -14 -49 -15q-34 -10 -32 -14q3 -7 37 1q8 2 14 4z" />
    <glyph glyph-name="t.003" unicode="&#xe047;" horiz-adv-x="463" 
d="M-374 420q-12 0 -13 3q-2 5 23 10q22 4 21 -4q-1 -7 -19 -21q-29 -23 -43.5 -55.5t-11.5 -64.5q3 -30 23 -54t57 -36q122 -36 336 97q16 85 55 173q-276 -41 -307 -28q-7 3 -5 11q3 7 11 5q29 -12 309 31q41 84 90 115q31 22 57.5 12t22.5 -50q-3 -21 -19 -55
q180 25 187 4q3 -7 -11.5 -17t-47 -24.5t-87.5 -34.5q-5 -2 -8 1t-2.5 8t4.5 7q130 49 130 54q-2 8 -175 -16q-10 -20 -36 -57q-55 -76 -126 -136q-2 -8 -7 -32q-13 -72 -0.5 -113.5t54 -51t115.5 25.5q84 39 239 157l21 16q4 3 8.5 1t4.5 -6.5t-3 -7.5q-1 -1 -8.5 -7
l-12.5 -10q-155 -118 -242 -158q-60 -27 -104.5 -32t-68 9.5t-37 41.5t-12 64t6.5 78q-213 -128 -337 -91q-40 12 -65 41q-23 29 -27 64t12 71t48 62zM48 327q58 52 106 117q20 30 28 44l-80 -12q-4 -8 -5 -12q-30 -66 -49 -137zM110 494l83 12q19 38 22 60q2 19 -5.5 25.5
t-26.5 -3.5q-37 -23 -73 -94z" />
    <glyph glyph-name="u.003" unicode="&#xe048;" horiz-adv-x="479" 
d="M-347 465q-12 0 -13 3q-2 5 24 10q21 4 20 -4q-1 -7 -19 -21q-29 -23 -43.5 -55.5t-11.5 -64.5q3 -30 23 -54q19 -24 57 -36q127 -38 354 109q9 5 31 -2q15 -6 6 -11q-26 -15 -45 -61q-12 -28 -13 -50q0 -17 4.5 -26.5t13.5 -10.5t16.5 0t21 8.5t19 11t17.5 11.5
q39 27 75 63q35 34 61 69q8 23 29 16q18 -5 14 -19q-28 -68 -28 -128q0 -57 46 -44q56 17 167 121q4 4 8.5 2t5.5 -6t-2 -8q-117 -109 -175 -125q-34 -11 -58 0t-31 42q-7 37 10 105q-10 -12 -35 -37q-40 -38 -78 -65q-120 -79 -141 -5q-10 36 11 86l9 18
q-199 -116 -318 -80q-40 12 -65 41q-23 29 -27 64t12 71t48 62z" />
    <glyph glyph-name="v.003" unicode="&#xe049;" horiz-adv-x="395" 
d="M-352 467q-12 0 -13 3q-2 5 23 10q22 4 21 -4q-1 -7 -19 -21q-29 -23 -43.5 -55.5t-11.5 -64.5q3 -30 23 -54t57 -36q127 -38 354 109l29 -4q12 -5 6 -10q-28 -17 -38 -67q-11 -52 3 -95q18 -52 62 2l9 13q50 70 68 134q3 9 10 8q2 0 12 -12q79 -119 195 -23q4 3 8.5 1
t5 -6.5t-2.5 -7.5q-45 -37 -83.5 -44.5t-69.5 9.5t-64 56q-17 -55 -65 -125q-24 -35 -48.5 -47.5t-41.5 -4t-30 28.5t-15.5 51t3.5 64q4 19 13 38q-203 -120 -325 -84q-40 12 -65 41q-23 29 -27 64t12 71t48 62z" />
    <glyph glyph-name="w.003" unicode="&#xe04a;" horiz-adv-x="578" 
d="M-344 461q-12 0 -13 3q-2 5 23 10q22 4 21 -4q-1 -7 -19 -21q-29 -23 -43.5 -55.5t-11.5 -64.5q3 -30 23 -54t57 -36q127 -38 354 109q8 6 31 -3q14 -6 4 -11q-38 -21 -54 -69q-13 -46 5.5 -93t65.5 -11q35 29 75 75q10 76 37 110q20 27 44 27t11 -35q-11 -29 -47 -75
q-4 -30 -3 -45q1 -55 22 -64t55 39q20 28 41 68t27 66q1 6 4 7.5t7 -1t6.5 -5.5t4.5 -5l15 -22q73 -88 180 -1q7 7 12 -2q4 -6 -2 -11q-121 -98 -203 4q-6 8 -12 17q-24 -67 -66 -125q-26 -38 -57 -49.5t-53.5 9t-23.5 67.5q-40 -45 -71 -67q-46 -30 -75.5 -14t-41 57.5
t-0.5 81.5q8 20 14 30q-194 -111 -311 -75q-40 12 -65 41q-23 29 -27 64t12 71t48 62zM256 349q-15 -10 -26 -45q24 32 26 45z" />
    <glyph glyph-name="x.003" unicode="&#xe04b;" horiz-adv-x="414" 
d="M-357 442q-12 0 -13 3q-2 5 24 10q21 4 20 -4q-1 -7 -19 -21q-29 -23 -43.5 -55.5t-11.5 -64.5q3 -30 23 -54q19 -24 57 -36q54 -16 147.5 14t211.5 107q28 18 54.5 22t48 -12.5t27.5 -55.5q62 32 102 67q5 6 12 -1q5 -6 -1 -12q-40 -34 -110 -72q6 -46 23 -61t46 -9
q57 13 173 93q4 3 8 0t4 -7.5t-4 -7.5q-3 -2 -24 -15.5t-27 -17.5t-24.5 -15.5t-28.5 -16t-26 -12.5t-30 -12.5t-29 -8.5q-83 -20 -99 70q-72 -39 -93 -72q-3 -7 -11 -3q-7 5 -3 12q22 37 104 81q-2 37 -22 56.5t-53 0.5q-125 -81 -224 -113t-157 -15q-40 12 -65 41
q-23 29 -27 64t12 71t48 62z" />
    <glyph glyph-name="y.003" unicode="&#xe04c;" horiz-adv-x="486" 
d="M-368 440q-12 0 -13 3q-2 5 23 10q22 4 21 -4q-1 -7 -19 -21q-29 -23 -43.5 -55.5t-11.5 -64.5q3 -30 23 -54t57 -36q124 -38 345 103q15 13 32 5q13 -7 3 -20q-57 -76 -73 -142q-3 -19 -0.5 -27.5t13.5 -6t20.5 7t19.5 11.5q87 58 210 209q8 13 25 10.5t17 -18.5
q-6 -86 -27 -160q56 19 89 31.5t74.5 34t68.5 44.5q7 5 11.5 -1.5t-0.5 -11.5q-30 -25 -74 -47.5t-79.5 -35.5t-95.5 -33q-28 -98 -87 -179.5t-142 -116.5q-43 -18 -83 -20.5t-64.5 10.5t-35.5 35t2 54.5t50 67.5q36 35 95.5 65.5t98.5 44.5t122 42h1q22 68 31 154
q-127 -151 -210 -200q-19 -12 -40 -16.5t-37.5 5t-16.5 35.5q2 50 58 134q-204 -120 -326 -84q-40 12 -65 41q-23 29 -27 64t12 71t48 62zM199 154q-76 -24 -120.5 -40.5t-100.5 -48t-90 -68.5q-26 -29 -34 -54t2 -39.5t29.5 -22.5t48.5 -5t59 16q74 35 125.5 105.5
t80.5 156.5z" />
    <glyph glyph-name="z.003" unicode="&#xe04d;" horiz-adv-x="575" 
d="M-369 427q-12 0 -13 3q-2 5 24 10q21 4 20 -4q-1 -7 -19 -21q-29 -23 -43.5 -55.5t-11.5 -64.5q4 -33 26 -56.5t54 -33.5q55 -12 97.5 -7.5t95.5 27.5t92.5 46.5t90 49.5t87.5 37q48 17 85 11q15 -2 23.5 -12t5.5 -23q-4 -25 -34 -59q83 35 116 2q23 -24 15 -78
q176 61 233 101q4 3 8.5 0.5t4.5 -7t-3 -7.5q-63 -43 -247 -106q-22 -92 -84.5 -173.5t-142.5 -123.5q-44 -23 -86.5 -27.5t-69.5 9t-38 37.5t7 61t66 77q81 66 304 142q10 40 6 61q-11 63 -159 -24q-22 -13 -25 -3q-1 6 7 15q76 76 79 104q0 29 -67 7q-34 -10 -76.5 -30.5
t-77 -40.5t-77.5 -41t-78.5 -33.5t-80 -17t-82.5 9.5q-38 11 -63 39.5t-29 65.5q-4 35 12 71t48 62zM287 162q-209 -72 -286 -135q-75 -62 -70.5 -108t60.5 -45t115 36q60 39 106.5 107t74.5 145z" />
    <glyph glyph-name="a.004" unicode="&#xe04e;" horiz-adv-x="539" 
d="M931 168q12 0 13 -3q2 -5 -24 -10q-21 -4 -20 4q1 7 19 21q29 23 43.5 55.5t11.5 64.5q-3 30 -23 54q-19 24 -57 36q-127 37 -346 -104q-220 -144 -323 -143q-18 0 -31.5 6t-22 14t-13 22.5t-6 25t-1 30t2 29t4 30t3.5 25.5q-20 -49 -55 -94.5t-73 -63.5
q-38 -19 -60.5 -2t-12.5 61q7 34 34 68.5t68 47.5q18 8 43.5 4t36.5 -23q6 14 13 36q-1 8 14 15q26 12 33 -21q4 -21 -1 -56q-15 -93 1 -117q11 -18 38 -19q46 4 103.5 28t92 45t93.5 59q119 80 214 105.5t156 7.5q40 -12 65 -41q23 -29 27 -64t-12 -71t-48 -62zM132 302
q-2 15 -10.5 21.5t-20 4.5t-22 -6.5t-20.5 -11.5q-26 -19 -46.5 -54t-22.5 -57q-2 -21 14.5 -22t30.5 8q45 23 97 117z" />
    <glyph glyph-name="b.004" unicode="&#xe04f;" horiz-adv-x="538" 
d="M930 169q12 0 13 -3q2 -5 -23 -10q-22 -4 -21 4q1 7 19 21q29 23 43.5 55.5t11.5 64.5q-3 30 -23 54t-57 36q-125 36 -343 -102q-129 -70 -267 -83l-10 -10q-44 -41 -108 -63q-67 -23 -104 -6q-16 6 -17.5 20.5t9.5 24.5q29 30 126 43q24 4 67 6h3q27 31 31 63v2
q5 33 -8.5 47.5t-35 12t-44 -12t-36.5 -22.5q-30 -26 -63 -69q-4 -5 -12.5 -15t-13 -15t-12 -11t-15.5 -9q-45 -15 -45 59q5 119 50 236q46 118 117 195q42 44 88.5 57t73 -15.5t11.5 -94.5q-16 -78 -88.5 -166t-202.5 -161q-1 0 -1 -1q-10 -79 4 -80q11 -1 33 31
q37 48 64 71q31 26 69 38t70 1q25 -9 35 -31q9 -20 5 -48q-5 -32 -25 -58q113 12 232 71q232 151 368 111q40 -12 65 -41q23 -29 27 -64t-12 -71t-48 -62zM46 322q122 71 190 154.5t83 155.5q12 57 -6 77.5t-50 8t-62 -45.5q-69 -76 -114 -189q-31 -83 -41 -161zM133 147
q60 21 98 56q-32 -2 -49 -4q-93 -13 -118 -39q-18 -18 19 -19q30 0 50 6z" />
    <glyph glyph-name="c.004" unicode="&#xe050;" horiz-adv-x="473" 
d="M870 171q12 0 13 -3q2 -5 -23 -10q-22 -4 -21 4q1 7 19 21q29 23 43.5 55.5t11.5 64.5q-3 30 -23 54t-57 36q-126 38 -352 -108q-121 -78 -265 -123q-81 -25 -130 -26q-91 -3 -111 59q-16 52 27 111q39 52 102 69q72 18 105 -6q27 -19 8 -48q-2 -5 -7 -4.5t-7 4t0 8.5
q10 17 -3 26q-34 24 -95 -5q-44 -22 -73 -69t-14.5 -86.5t81.5 -39.5q42 0 112 24q70 22 142.5 56.5t114.5 61.5q118 77 214 103t156 9q40 -12 65 -41q23 -29 27 -64t-12 -71t-48 -62z" />
    <glyph glyph-name="d.004" unicode="&#xe051;" horiz-adv-x="773" 
d="M1173 173q12 0 13 -3q2 -5 -24 -10q-21 -4 -20 4q1 7 19 21q29 23 43.5 55.5t11.5 64.5q-3 30 -23 54q-19 24 -57 36q-127 38 -355 -109q-286 -263 -441 -280q-52 -5 -86 10q-54 25 -66 92q-10 50 2 120q-113 -83 -171 -90q-71 -9 -75 44q-4 50 47 110q46 52 101 68
q41 11 71 -4.5t29 -57.5q-2 -29 -15 -59l19 14q34 125 107 253.5t158 200.5q26 21 56.5 32t53 -2t16.5 -58q-7 -49 -47.5 -116.5t-112.5 -137.5q-67 -65 -183 -156q-18 -66 -19 -112q-3 -70 25 -105t88 -30q143 13 439 280q230 149 364 109q40 -12 65 -41q23 -29 27 -64
t-12 -71t-48 -62zM253 297q102 82 162 140q70 67 109.5 133t45.5 111q4 42 -25 38q-29 -5 -69 -44q-71 -66 -130.5 -171.5t-92.5 -206.5zM98 325q-36 -19 -80 -75q-54 -71 -26 -90q10 -7 33 -4q21 2 70 27.5t57 41.5q21 41 23 74q0 21 -6 31.5t-18.5 10.5t-24.5 -4t-28 -12z
" />
    <glyph glyph-name="e.004" unicode="&#xe052;" horiz-adv-x="471" 
d="M870 172q12 0 13 -3q2 -5 -23 -10q-22 -4 -21 4q1 7 19 21q29 23 43.5 55.5t11.5 64.5q-3 30 -23 54t-57 36q-116 35 -350 -107q-4 -2 -6 -3.5t-5 -3t-6 -3.5q-94 -54 -211 -94q-112 -38 -176 -36q-87 3 -101 64q-12 52 32 105q41 50 101 57t77 -14q13 -16 -20 -35
q-41 -24 -125 -30q-37 -43 -22.5 -82.5t71.5 -46.5q40 -5 157 34q134 46 222 101q232 150 367 110q40 -12 65 -41q23 -29 27 -64t-12 -71t-48 -62zM61 313q77 8 105 23q19 12 2 17q-19 5 -45 -5q-35 -12 -62 -35z" />
    <glyph glyph-name="f.004" unicode="&#xe053;" horiz-adv-x="322" 
d="M715 169q12 0 13 -3q2 -5 -24 -10q-21 -4 -20 4q1 7 19 21q29 23 43.5 55.5t11.5 64.5q-3 30 -23 54q-19 24 -57 36q-123 37 -336 -97q-48 -30 -124.5 -58.5t-140.5 -41.5q18 -28 22 -70.5t-5 -74.5q-9 -35 -31 -45.5t-44 17.5q-30 43 -30 165q-25 2 -36 12q-6 8 -6 11
q0 8 5 13q6 8 26 11q2 0 6.5 0.5t6.5 0.5q1 28 6 57q26 160 102 228q36 34 72.5 25.5t28.5 -56.5q-16 -87 -159 -196q-5 -33 -6 -63q17 -7 30 -20q166 34 283 108q207 127 335 90q40 -12 65 -41q23 -29 27 -64t-12 -71t-48 -62zM115 489q-50 -74 -69 -173q125 100 137 174
q7 38 -18 36q-26 -3 -50 -37zM77 53q10 30 5.5 71.5t-24.5 66.5l-24 -4q0 -96 17 -150q11 -35 23 4q2 6 3 12zM-11 203q1 4 1 14q-7 0 -10 -1q-10 -1 -16 -5h1q7 -7 24 -8zM34 210v-6q2 0 4.5 0.5t3.5 0.5q-1 1 -4 2.5t-4 2.5z" />
    <glyph glyph-name="g.004" unicode="&#xe054;" horiz-adv-x="434" 
d="M834 173q12 0 13 -3q2 -5 -23 -10q-22 -4 -21 4q1 7 19 21q29 23 43.5 55.5t11.5 64.5q-3 30 -23 54t-57 36q-126 38 -352 -108q-41 -35 -97.5 -59.5t-143.5 -52.5q-37 -126 -116.5 -216.5t-192.5 -107.5q-66 -10 -92 20t-12.5 74.5t51.5 80.5q39 35 98 66t101.5 46.5
t120.5 40.5q18 68 22 141q-22 -31 -63 -65t-71 -42q-48 -14 -58 29q-9 41 21 87q37 55 95 45q21 -4 36.5 -18.5t17.5 -36.5q12 15 21 30q12 30 28.5 25t16.5 -34q-3 -82 -19 -146q161 52 223 104q117 79 213 105t157 8q40 -12 65 -41q23 -29 27 -64t-12 -71t-48 -62z
M156 159q-71 -23 -113.5 -38.5t-97.5 -44.5t-91 -63q-38 -36 -48.5 -76t17 -60t88.5 0q89 29 152.5 106.5t92.5 175.5zM145 299q6 29 -7 43t-35 11q-38 -5 -66 -55q-25 -45 -11 -63q8 -10 29 -2q40 16 90 66z" />
    <glyph glyph-name="h.004" unicode="&#xe055;" horiz-adv-x="569" 
d="M969 174q12 0 13 -3q2 -5 -24 -10q-21 -4 -20 4q1 7 19 21q29 23 43.5 55.5t11.5 64.5q-3 30 -23 54q-19 24 -57 36q-20 9 -50 6.5t-55.5 -7t-59 -18.5t-61.5 -27.5t-63.5 -35t-63.5 -39.5t-62.5 -42t-60.5 -42.5t-57.5 -40.5t-52.5 -36q-1 -1 -15.5 -10t-21.5 -13.5
t-22 -12.5t-24.5 -10.5t-21.5 -4.5t-20 2.5t-13 13.5q-15 26 26 146q7 22 11.5 37t8.5 33.5t1.5 28.5t-9.5 16t-23.5 0t-41.5 -22q-30 -20 -82 -77q-18 -21 -35 -35t-33.5 -18.5t-26 11t-8.5 52.5q1 109 49 236q44 113 117 195q29 31 64 47t63 13t42.5 -32t4.5 -81
q-16 -78 -89 -166t-203 -161q-1 0 -1 -1q-2 -15 -4 -49q-3 -63 48 1q53 58 84 79q72 48 110 27q29 -20 16 -77q-8 -29 -28 -77q-39 -104 -30 -120q10 -15 107 50q25 17 82 56q85 59 134 91t127 75t139 56t109 -1q40 -12 65 -41q23 -29 27 -64t-12 -71t-48 -62zM201 672
q-71 -80 -113 -189q-31 -81 -42 -161q122 71 190 154.5t83 155.5q12 57 -6 77.5t-50 8t-62 -45.5z" />
    <glyph glyph-name="i.004" unicode="&#xe056;" horiz-adv-x="376" 
d="M772 171q12 0 13 -3q2 -5 -23 -10q-22 -4 -21 4q1 7 19 21q29 23 43.5 55.5t11.5 64.5q-3 30 -23 54t-57 36q-126 36 -348 -105q-238 -146 -331 -148q-28 -1 -45 7t-24 19t-7 31.5t2.5 34.5t8.5 38q13 48 8 50q-7 4 -4 12q3 5 15.5 8t23 -4t8.5 -26q0 -4 -10 -43
q-21 -69 -12 -92q8 -16 27 -20q85 -2 323 141q119 80 214 105.5t156 7.5q40 -12 65 -41q23 -29 27 -64t-12 -71t-48 -62zM10 382q-5 12 1 24q6 13 24 14.5t23 -12.5q5 -12 -3 -28q-6 -11 -23 -11t-22 13z" />
    <glyph glyph-name="j.004" unicode="&#xe057;" horiz-adv-x="250" 
d="M650 173q12 0 13 -3q2 -5 -23 -10q-22 -4 -21 4q1 7 19 21q29 23 43.5 55.5t11.5 64.5q-3 30 -23 54t-57 36q-113 34 -307 -80q-12 -7 -61 -38t-70 -42t-64.5 -29.5t-89.5 -30.5q-38 -127 -118 -218t-194 -106q-54 -6 -81 12t-25.5 48t19.5 64t47 59q38 33 95.5 62
t99.5 44t115 39q17 70 21 138q1 20 16 19q17 0 24 -21q3 -8 2 -17q-5 -59 -16 -104q54 13 98 34t102.5 58t81.5 50q194 110 310 75q40 -12 65 -41q23 -29 27 -64t-12 -71t-48 -62zM-27 159q-102 -33 -171.5 -63t-121.5 -75q-38 -33 -52.5 -74.5t9.5 -65.5t85 -6
q92 27 156 106t95 178zM15 381q-6 13 0 24q6 13 24 14.5t24 -12.5q5 -12 -3 -28q-7 -11 -24 -11t-21 13z" />
    <glyph glyph-name="k.004" unicode="&#xe058;" horiz-adv-x="470" 
d="M870 173q12 0 13 -3q2 -5 -23 -10q-22 -4 -21 4q1 7 19 21q29 23 43.5 55.5t11.5 64.5q-3 30 -23 54t-57 36q-85 25 -197 -24.5t-201 -120.5q-127 -100 -218 -137q-73 -25 -73 30q2 23 22 58.5t22 54.5q1 12 -10 17t-21 4t-19 -3q-4 -4 -26.5 -25.5t-35.5 -31.5
q-38 -28 -59.5 -18.5t-21.5 52.5q6 119 53 239t114 192q33 36 63.5 53t51.5 16t36.5 -15.5t20.5 -39t1 -57.5t-19 -68q-69 -156 -272 -269q-1 0 -1 -1q-8 -61 -4 -72q6 -16 30 4q19 15 56.5 50t61.5 54.5t62.5 35t77.5 10.5q7 0 7 -9q-2 -9 -10 -7q-71 10 -164 -72
q64 7 71 -26q5 -23 -19.5 -66t-26.5 -50q-6 -15 -4 -24.5t15 -5.5q40 12 86.5 39.5t75.5 49t78 60.5q107 88 222 123.5t180 15.5q40 -12 65 -41q23 -29 27 -64t-12 -71t-48 -62zM46 322q196 113 258 263q20 46 17.5 78t-16 48t-42.5 6.5t-62 -45.5q-130 -147 -155 -350z" />
    <glyph glyph-name="l.004" unicode="&#xe059;" horiz-adv-x="476" 
d="M874 172q12 0 13 -3q2 -5 -23 -10q-22 -4 -21 4q1 7 19 21q29 23 43.5 55.5t11.5 64.5q-3 30 -23 54t-57 36q-126 38 -352 -108q-62 -49 -90.5 -70t-87 -60.5t-105.5 -57t-88 -16.5q-64 2 -93.5 54t-24.5 115q5 121 47.5 233.5t118.5 197.5q44 44 90 57t71 -15.5
t10 -95.5q-16 -78 -88.5 -167t-202.5 -163l-3 -46q-3 -150 85 -152q16 0 34.5 4t35 9.5t38.5 16.5t38 19.5t39.5 24.5t36.5 25t36.5 27t32.5 25t31 24.5t25 20.5q235 154 371 114q40 -12 65 -41q23 -29 27 -64t-12 -71t-48 -62zM45 319q120 70 188 154t84 158
q12 56 -5.5 77.5t-49 9t-60.5 -45.5q-130 -142 -157 -353z" />
    <glyph glyph-name="m.004" unicode="&#xe05a;" horiz-adv-x="684" 
d="M1084 173q12 0 13 -3q2 -5 -23 -10q-22 -4 -21 4q1 7 19 21q29 23 43.5 55.5t11.5 64.5q-3 30 -23 54t-57 36q-45 13 -103.5 0t-127 -49.5t-116 -66.5t-112.5 -76q-92 -66 -154 -72q-60 -6 -59 57q0 14 3 31q1 7 7 28.5t9 35t4.5 34t-4.5 25.5q-11 18 -76 -19
q-43 -26 -130 -97q-35 -31 -45.5 -28t-8.5 53q2 27 -7.5 34t-32.5 -3q-47 -29 -119 -148q-4 -9 -12 -3q-4 4 -3 9l32 128l10 43v1q15 30 26 23.5t11 -34.5l-9 -35l-8 -33q35 47 63 63q20 16 44 14.5t36 -23.5q14 -22 6 -53q88 72 138 103q103 60 119 0q14 -48 -8 -106
q-32 -87 24 -81q46 6 134 66q159 109 231 146q151 77 243 49q40 -12 65 -41q23 -29 27 -64t-12 -71t-48 -62z" />
    <glyph glyph-name="n.004" unicode="&#xe05b;" horiz-adv-x="506" 
d="M903 171q12 0 13 -3q2 -5 -24 -10q-21 -4 -20 4q1 7 19 21q29 23 43.5 55.5t11.5 64.5q-3 30 -23 54q-19 24 -57 36q-121 34 -331 -94q-7 -4 -41.5 -26.5t-58.5 -36.5t-60 -32t-65 -27q-59 -19 -84.5 10t-4.5 87q15 54 -2 64t-54 -17q-53 -35 -103.5 -82t-66.5 -75
l-10 -22q-4 -10 -20 -8q-8 2 -8 6q19 70 45 172q6 22 25 14q17 -8 13 -24q0 -2 -1 -4q-3 -13 -13 -42.5t-13 -42.5q87 87 143 122q60 38 94 21t10 -85q-5 -17 -7.5 -28.5t-2.5 -25.5t6 -19.5t17.5 -9t32.5 4.5q39 12 76.5 32t83.5 50t68 42q211 129 337 92q40 -12 65 -41
q23 -29 27 -64t-12 -71t-48 -62z" />
    <glyph glyph-name="o.004" unicode="&#xe05c;" horiz-adv-x="337" 
d="M726 166q12 0 13 -3q2 -5 -23 -10q-22 -4 -21 4q1 7 19 21q29 23 43.5 55.5t11.5 64.5q-3 30 -23 54t-57 36q-125 37 -340 -100q-61 -37 -105.5 -32.5t-85.5 48.5q-8 -67 -42 -97q-26 -21 -56.5 -22.5t-51.5 23.5q-19 26 -13 67.5t34 65.5q30 26 66.5 20t56.5 -37
q12 2 24 -15q66 -66 154 -11q34 20 54.5 32t56.5 30.5t63.5 27.5t61.5 17.5t66 8t62 -9.5q40 -12 65 -41q23 -29 27 -64t-12 -71t-48 -62zM114 230q23 28 27 74q-14 39 -50 39.5t-54 -33.5q-11 -21 -13 -46.5t8 -43.5q17 -21 42 -15t40 25z" />
    <glyph glyph-name="p.004" unicode="&#xe05d;" horiz-adv-x="391" 
d="M790 172q12 0 13 -3q2 -5 -23 -10q-22 -4 -21 4q1 7 19 21q29 23 43.5 55.5t11.5 64.5q-3 30 -23 54t-57 36q-127 38 -353 -108q-67 -36 -201 -53q-25 -17 -34 -23q-67 -37 -106 -37q-32 0 -30 20q1 21 33 34l5 2q22 7 95 17q41 37 38 73q-4 32 -41 28q-21 -3 -42 -16.5
t-30 -21.5t-33.5 -36.5t-26.5 -30.5q-37 -131 -65 -189q-4 -12 -27 -23t-23 6q0 6 4 15q22 47 57 157.5t32 142.5q-1 18 18.5 15.5t24.5 -17.5q1 -2 1 -5q-1 -19 -13 -64q68 78 129 84q52 6 73 -29.5t-18 -81.5q109 15 171 47q232 150 367 110q40 -12 65 -41q23 -29 27 -64
t-12 -71t-48 -62zM64 193q41 11 72 33q-56 -9 -73 -17q-17 -7 -18 -14q-2 -7 19 -2z" />
    <glyph glyph-name="q.004" unicode="&#xe05e;" horiz-adv-x="457" 
d="M855 171q12 0 13 -3q2 -5 -24 -10q-21 -4 -20 4q1 7 19 21q29 23 43.5 55.5t11.5 64.5q-3 30 -23 54q-19 24 -57 36q-124 38 -344 -103q-12 -8 -45.5 -31t-57 -37.5t-47.5 -26.5q-33 -17 -73 -28q8 -36 -2.5 -100t-26.5 -98q-3 -8 -8.5 -16.5t-12.5 -15.5t-14.5 -6
t-13.5 12q-22 49 -4 219q-17 4 -25 14q-17 18 3 40q11 13 31 16q7 48 13 74q-49 -57 -108 -78q-70 -24 -88 16q-15 33 15 74t81 48q70 10 86 -37q2 -6 2 -10q13 15 24 36q10 12 27.5 8.5t12.5 -24.5q-9 -33 -22 -119q17 -12 25 -37q31 8 71 27q33 16 86 53t70 47
q219 136 350 99q40 -12 65 -41q23 -29 27 -64t-12 -71t-48 -62zM83 246q45 19 79 53q3 12 -1 25q-15 44 -72 18q-39 -18 -56 -57q-15 -37 8 -45q15 -5 42 6zM235 163l-21 -3q-1 -13 -5 -47.5t-5.5 -49t-2.5 -48.5t3 -45l3 6q15 32 25 93t3 94zM171 179l4 35q-10 -4 -17 -12
t-2 -15q4 -5 15 -8zM218 199q0 -6 -2 -22l14 2q-7 13 -12 20z" />
    <glyph glyph-name="r.004" unicode="&#xe05f;" horiz-adv-x="350" 
d="M748 172q12 0 13 -3q2 -5 -23 -10q-22 -4 -21 4q1 7 19 21q29 23 43.5 55.5t11.5 64.5q-3 30 -23 54t-57 36q-125 38 -340 -100q-55 -36 -97 -42.5t-63 8t-34.5 34t-21 32t-14.5 5.5q-60 -65 -106 -178q-30 -72 -37 -114q0 -8 -5 -13t-11 -6t-12.5 0t-11 5.5t-4.5 11.5
q3 60 28 190q21 100 37 131q6 13 17 14t18 -8t3 -20q-17 -37 -36 -138l-12 -71l10 25q53 130 119 191q49 44 63 -20q7 -33 27 -47.5t46 -10.5t48.5 14t44.5 24q219 138 349 99q40 -12 65 -41q23 -29 27 -64t-12 -71t-48 -62z" />
    <glyph glyph-name="s.004" unicode="&#xe060;" horiz-adv-x="260" 
d="M657 171q12 0 13 -3q2 -5 -24 -10q-21 -4 -20 4q1 7 19 21q29 23 43.5 55.5t11.5 64.5q-3 30 -23 54q-19 24 -57 36q-126 38 -352 -108q-52 -34 -178 -76q-8 -48 -74 -60q-57 -8 -77 7q-19 14 28 32l22 7l57 17q-3 29 -32 65q-30 30 -14 67q11 22 40 32q12 3 15.5 -2.5
t1 -13.5t-7.5 -13q-21 -27 4 -57q29 -39 35 -64q120 41 172 74q119 77 212 101.5t153 7.5q40 -12 65 -41q23 -29 27 -64t-12 -71t-48 -62zM13 170q22 9 30 24q-46 -14 -49 -15q-34 -10 -32 -14q3 -7 37 1q8 2 14 4z" />
    <glyph glyph-name="t.004" unicode="&#xe061;" horiz-adv-x="463" 
d="M856 169q12 0 13 -3q2 -5 -23 -10q-22 -4 -21 4q1 7 19 21q29 23 43.5 55.5t11.5 64.5q-3 30 -23 54t-57 36q-71 21 -186 -24t-181 -97q-155 -118 -242 -158q-57 -25 -99 -31t-66.5 6t-39 34.5t-16.5 56.5t1.5 70.5t14.5 77t23 75.5t26 67q-276 -41 -307 -28q-7 3 -5 11
q3 7 11 5q29 -12 309 31q41 84 90 115q31 22 57.5 12t22.5 -50q-3 -21 -19 -55q180 25 187 4q3 -7 -11.5 -17t-47 -24.5t-87.5 -34.5q-5 -2 -8 1t-2.5 8t4.5 7q130 49 130 54q-2 8 -175 -16q-10 -20 -36 -57q-55 -76 -126 -136q-2 -8 -7 -32q-13 -72 -0.5 -113.5t54 -51
t115.5 25.5q84 39 239 157q80 61 189 103t193 20q39 -10 65 -41q23 -29 27 -64t-12 -71t-48 -62zM48 327q58 52 106 117q20 30 28 44l-80 -12q-4 -8 -5 -12q-30 -66 -49 -137zM110 494l83 12q19 38 22 60q2 19 -5.5 25.5t-26.5 -3.5q-37 -23 -73 -94z" />
    <glyph glyph-name="u.004" unicode="&#xe062;" horiz-adv-x="479" 
d="M878 174q12 0 13 -3q2 -5 -23 -10q-22 -4 -21 4q1 7 19 21q29 23 43.5 55.5t11.5 64.5q-3 30 -23 54q-23 28 -57 36q-168 39 -416 -168q-60 -51 -109 -65q-34 -11 -58 0t-31 42q-7 37 10 105q-10 -12 -35 -37q-40 -38 -78 -65q-120 -79 -141 -5q-10 36 11 86q19 44 52 63
l30 -3q17 -3 5 -10q-26 -15 -45 -61q-12 -28 -13 -50q0 -17 4.5 -26.5t13.5 -10.5t16.5 0t21 8.5t19 11t17.5 11.5q39 27 75 63q35 34 61 69q8 23 29 16q18 -5 14 -19q-28 -68 -28 -128q0 -57 46 -44q47 15 105 66q62 54 129.5 96t151.5 66t148 5q40 -12 65 -41
q23 -29 27 -64t-12 -71t-48 -62z" />
    <glyph glyph-name="v.004" unicode="&#xe063;" horiz-adv-x="395" 
d="M795 173q12 0 13 -3q2 -5 -24 -10q-21 -4 -20 4q1 7 19 21q29 23 43.5 55.5t11.5 64.5q-3 30 -23 54q-19 24 -57 36q-126 38 -351 -107q-45 -37 -84 -44.5t-70 9t-64 55.5q-17 -55 -65 -125q-24 -35 -48.5 -47.5t-41.5 -4t-30 28.5t-15.5 51t3.5 64q14 59 47 78l33 -4
q12 -3 2 -9q-28 -17 -38 -67q-11 -52 3 -95q18 -52 62 2l9 13q50 70 68 134q3 9 10 8q2 0 12 -12q39 -61 92 -65t107 44q230 149 364 109q40 -12 65 -41q23 -29 27 -64t-12 -71t-48 -62z" />
    <glyph glyph-name="w.004" unicode="&#xe064;" horiz-adv-x="578" 
d="M977 172q12 0 13 -3q2 -5 -24 -10q-21 -4 -20 4q1 7 19 21q29 23 43.5 55.5t11.5 64.5q-3 30 -23 54q-19 24 -57 36q-111 33 -302 -77q-17 -9 -44.5 -27.5t-35.5 -23.5q-104 -66 -173 25q-6 8 -12 17q-24 -67 -66 -125q-26 -38 -57 -49.5t-53.5 9t-23.5 67.5
q-40 -45 -71 -67q-46 -30 -75.5 -14t-41 57.5t-0.5 81.5q17 55 62 79l31 -3q16 -3 4 -10q-38 -21 -54 -69q-13 -46 5.5 -93t65.5 -11q35 29 75 75q10 76 37 110q20 27 44 27t11 -35q-11 -29 -47 -75q-4 -30 -3 -45q1 -55 22 -64t55 39q20 28 41 68t27 66q1 6 4 7.5t7 -1
t6.5 -5.5t4.5 -5l15 -22q65 -80 160 -16q69 45 81 51q191 108 306 74q40 -12 65 -41q23 -29 27 -64t-12 -71t-48 -62zM256 349q-15 -10 -26 -45q24 32 26 45z" />
    <glyph glyph-name="x.004" unicode="&#xe065;" horiz-adv-x="414" 
d="M814 173q12 0 13 -3q2 -5 -23 -10q-22 -4 -21 4q1 7 19 21q29 23 43.5 55.5t11.5 64.5q-3 30 -23 54t-57 36q-127 38 -353 -109q-7 -5 -28.5 -19t-31.5 -20t-30 -17.5t-33.5 -18t-32 -13.5t-35.5 -11q-83 -20 -99 70q-72 -39 -93 -72q-3 -7 -11 -3q-7 5 -3 12
q22 37 104 81q-10 55 -24 66q-14 12 -38 -2q-25 -13 -58 -50q-6 -6 -12 -1q-5 7 0 12q30 36 61 54q33 20 56 15t35.5 -23.5t17.5 -50.5q62 32 102 67q5 6 12 -1q5 -6 -1 -12q-40 -34 -110 -72q6 -46 23 -61t46 -9q57 13 171 92q120 79 214.5 104.5t155.5 7.5q40 -12 65 -41
q23 -29 27 -64t-12 -71t-48 -62z" />
    <glyph glyph-name="y.004" unicode="&#xe066;" horiz-adv-x="486" 
d="M886 173q12 0 13 -3q2 -5 -23 -10q-22 -4 -21 4q1 7 19 21q29 23 43.5 55.5t11.5 64.5q-3 30 -23 54t-57 36q-126 38 -352 -108q-30 -25 -74 -47.5t-79.5 -35.5t-95.5 -33q-28 -98 -87 -179.5t-142 -116.5q-43 -18 -83 -20.5t-64.5 10.5t-35.5 35t2 54.5t50 67.5
q36 35 95.5 65.5t98.5 44.5t122 42h1q22 68 31 154q-127 -151 -210 -200q-19 -12 -40 -16.5t-37.5 5t-16.5 35.5q2 63 82 169q14 15 32 5q14 -9 3 -20q-57 -76 -73 -142q-3 -19 -0.5 -27.5t13.5 -6t20.5 7t19.5 11.5q87 58 210 209q8 13 25 10.5t17 -18.5q-6 -86 -27 -160
q168 55 230 108q119 80 214 105.5t156 7.5q40 -12 65 -41q23 -29 27 -64t-12 -71t-48 -62zM199 154q-76 -24 -120.5 -40.5t-100.5 -48t-90 -68.5q-26 -29 -34 -54t2 -39.5t29.5 -22.5t48.5 -5t59 16q74 35 125.5 105.5t80.5 156.5z" />
    <glyph glyph-name="z.004" unicode="&#xe067;" horiz-adv-x="575" 
d="M975 172q12 0 13 -3q2 -5 -24 -10q-21 -4 -20 4q1 7 19 21q29 23 43.5 55.5t11.5 64.5q-3 30 -23 54q-19 24 -57 36q-127 38 -357 -111q-63 -42 -243 -103q-22 -92 -84.5 -173.5t-142.5 -123.5q-44 -23 -86.5 -27.5t-69.5 9t-38 37.5t7 61t66 77q81 66 304 142
q10 40 6 61q-11 63 -159 -24q-22 -13 -25 -3q-1 6 7 15q76 76 79 104q0 29 -67 7q-36 -11 -77.5 -30.5t-57.5 -30.5q-8 -5 -12 5q-3 7 3 9q15 11 58.5 31.5t81.5 31.5q48 17 85 11q15 -2 23.5 -12t5.5 -23q-2 -15 -20 -41q-4 -6 -14 -18q83 35 116 2q23 -24 15 -78
q168 56 238 103q229 148 363 108q40 -12 65 -41q23 -29 27 -64t-12 -71t-48 -62zM287 162q-209 -72 -286 -135q-75 -62 -70.5 -108t60.5 -45t115 36q60 39 106.5 107t74.5 145z" />
    <glyph glyph-name="fi" unicode="&#xfb01;" horiz-adv-x="698" 
d="M321 320q-7 4 -4 12q3 5 15.5 8t23 -4t8.5 -26q0 -4 -10 -43q-21 -69 -12 -92q8 -16 27 -20q45 -1 119 31t210 114q5 2 9 -0.5t4 -6.5t-4 -7q-241 -144 -329 -146q-28 -1 -45 7t-24 19t-7 31.5t2.5 34.5t8.5 38q0 3 2 7q-68 -35 -163 -64q-30 -9 -75 -19q18 -28 22 -70.5
t-5 -74.5q-9 -35 -31 -45.5t-44 17.5q-30 43 -30 165q-25 2 -36 12q-6 8 -6 11q0 8 5 13q6 8 26 11q2 0 6.5 0.5t6.5 0.5q1 28 6 57q26 160 102 228q36 34 72.5 25.5t28.5 -56.5q-16 -87 -159 -196q-5 -33 -6 -63q17 -7 30 -20q49 10 83 20q102 30 172 70q5 19 1 21z
M115 489q-50 -74 -69 -173q125 100 137 174q7 38 -18 36q-26 -3 -50 -37zM77 53q10 30 5.5 71.5t-24.5 66.5l-24 -4q0 -96 17 -150q11 -35 23 4q2 6 3 12zM-11 203q1 4 1 14q-7 0 -10 -1q-10 -1 -16 -5h1q7 -7 24 -8zM34 210v-6q2 0 4.5 0.5t3.5 0.5q-1 1 -4 2.5t-4 2.5z
" />
    <glyph glyph-name="fl" unicode="&#xfb02;" horiz-adv-x="798" 
d="M655 628q-16 -78 -88.5 -167t-202.5 -163l-3 -46q-3 -150 85 -152q16 0 35 4t36 9.5t39.5 17.5t38.5 20.5t40.5 25.5t37 25.5t37.5 27.5t32.5 25t30.5 25t25 20q4 3 8.5 1t4.5 -6.5t-3 -7.5q-51 -41 -70 -55.5t-71 -51t-83 -52.5t-73 -31.5t-75 -14.5q-71 8 -99 67.5
t-18 130.5q-67 -36 -167 -67q-30 -9 -75 -19q18 -28 22 -70.5t-5 -74.5q-9 -35 -31 -45.5t-44 17.5q-30 43 -30 165q-25 2 -36 12q-6 8 -6 11q0 8 5 13q6 8 26 11q2 0 6.5 0.5t6.5 0.5q1 28 6 57q26 160 102 228q36 34 72.5 25.5t28.5 -56.5q-16 -87 -159 -196
q-5 -33 -6 -63q17 -7 30 -20q49 10 83 20q99 29 173 70q24 226 163 383q44 44 90 57t71 -15.5t10 -95.5zM367 319q120 70 188 154t84 158q12 56 -5.5 77.5t-49 9t-60.5 -45.5q-130 -142 -157 -353zM115 489q-50 -74 -69 -173q125 100 137 174q7 38 -18 36q-26 -3 -50 -37z
M77 53q10 30 5.5 71.5t-24.5 66.5l-24 -4q0 -96 17 -150q11 -35 23 4q2 6 3 12zM-11 203q1 4 1 14q-7 0 -10 -1q-10 -1 -16 -5h1q7 -7 24 -8zM34 210v-6q2 0 4.5 0.5t3.5 0.5q-1 1 -4 2.5t-4 2.5z" />
    </font>
</defs>
</svg>
