<?xml version="1.0" standalone="no"?>
<!DOCTYPE svg PUBLIC "-//W3C//DTD SVG 1.1//EN" "http://www.w3.org/Graphics/SVG/1.1/DTD/svg11.dtd" >
<svg xmlns="http://www.w3.org/2000/svg" xmlns:xlink="http://www.w3.org/1999/xlink" version="1.1">
<metadata>
Created by FontForge 20170731 at Sat Aug 25 07:44:02 2018
 By Aleksey,,,
 (c) SDBGSDG. All Rights Reserved.
</metadata>
<defs>
<font id="ModernSansLight" horiz-adv-x="520" >
  <font-face 
    font-family="Modern Sans"
    font-weight="500"
    font-stretch="normal"
    units-per-em="1000"
    panose-1="0 0 0 0 0 0 0 0 0 0"
    ascent="800"
    descent="-200"
    x-height="479"
    cap-height="680"
    bbox="-40 -212 1088 831"
    underline-thickness="50"
    underline-position="-200"
    unicode-range="U+0020-02DD"
  />
<missing-glyph horiz-adv-x="472" 
d="M0 700v-700h432v700h-432zM50 50v600h332v-600h-332z" />
    <glyph glyph-name=".notdef" horiz-adv-x="472" 
d="M0 700v-700h432v700h-432zM50 50v600h332v-600h-332z" />
    <glyph glyph-name=".notdef" horiz-adv-x="472" 
d="M0 700v-700h432v700h-432zM50 50v600h332v-600h-332z" />
    <glyph glyph-name=".null" horiz-adv-x="0" 
 />
    <glyph glyph-name="nonmarkingreturn" horiz-adv-x="333" 
 />
    <glyph glyph-name="space" unicode=" " horiz-adv-x="430" 
 />
    <glyph glyph-name="exclam" unicode="!" horiz-adv-x="240" 
d="M100 19v-1v-20h40v20v1v20h-40v-20zM100 660v-480v-20h40v20v480v20h-40v-20z" />
    <glyph glyph-name="quotedbl" unicode="&#x22;" horiz-adv-x="340" 
d="M220 660v-160v-20h40v20v160v20h-40v-20zM80 660v-160v-20h40v20v160v20h-40v-20z" />
    <glyph glyph-name="numbersign" unicode="#" horiz-adv-x="600" 
d="M482 481h78h20v40h-20h-70l30 135l5 24h-41l-4 -16l-31 -143h-219l30 135l5 24h-41l-4 -16l-31 -143h-149h-20v-40h20h140l-61 -280h-79h-20v-40h20h70l-30 -137l-5 -24h41l4 16l32 145h218l-30 -137l-5 -24h41l4 16l32 145h148h20v40h-20h-140zM440 481l-61 -280h-219
l62 280h218z" />
    <glyph glyph-name="dollar" unicode="$" horiz-adv-x="560" 
d="M300 679v61v20h-40v-20v-61q-86 -6 -143.5 -58t-57.5 -121q0 -31 16 -57t47.5 -47t62 -35t75.5 -31v-289q-75 5 -127.5 44.5t-52.5 94.5h-40q0 -69 63 -121.5t157 -57.5v-61v-20h40v20v61q93 6 156.5 58.5t63.5 120.5q0 27 -13 51t-32 40.5t-51 34t-58 28t-66 25.5v280
q67 -6 114 -45.5t47 -93.5h40q0 69 -57.5 121t-143.5 58zM300 314q43 -16 69 -27.5t55 -28t42.5 -36t13.5 -42.5q0 -54 -53 -94t-127 -45v273zM260 375q-79 30 -120 58t-41 67q0 54 47 93.5t114 45.5v-264z" />
    <glyph glyph-name="percent" unicode="%" horiz-adv-x="640" 
d="M300 154q2 -80 42.5 -117.5t104.5 -36.5q65 1 106 41t41 117q0 84 -41.5 127.5t-106.5 44.5q-63 1 -105 -44t-41 -132zM340 154q-1 65 29 101t77 35q48 -1 78 -35t30 -97q0 -57 -30 -87t-77 -31q-46 -1 -75.5 27.5t-31.5 86.5zM193 640q47 -1 76.5 -30t28.5 -86
q1 -63 -28.5 -97t-76.5 -34q-49 0 -81 33.5t-32 96.5q0 57 32 87.5t81 29.5zM193 680q-65 1 -109 -39.5t-44 -117.5q0 -84 44 -127t109 -43q63 0 104.5 43t40.5 128q1 78 -40 116.5t-105 39.5zM564 673l-520 -640l-26 -33h52l6 7l520 640l26 33h-52z" />
    <glyph glyph-name="ampersand" unicode="&#x26;" horiz-adv-x="640" 
d="M204 396q88 -125 217 -257q-79 -100 -169 -100q-61 0 -106 24t-63.5 60.5t-22 80t17.5 81.5q24 48 126 111zM450 111q54 -54 117 -107l6 -5h63l-43 35q-52 43 -120 109l1 1q12 17 29 44.5t27 43.5t23.5 29t26.5 13h20v41l-20 -1q-9 0 -18 -3.5t-19 -12.5t-17.5 -16.5
t-19.5 -23.5t-19 -25.5t-21.5 -30.5t-21.5 -31q-128 132 -210 244l5 2.5t4 2.5q69 40 106 72t36 61q0 60 -42 94t-91 33t-88.5 -33t-40.5 -94v-1q0 -35 58 -124q-112 -70 -139 -125q-18 -37 -21.5 -79t9 -82t39.5 -72t74.5 -51.5t108.5 -19.5q108 0 198 112zM212 447
q-49 73 -49 105q1 43 28 65t61 23t63.5 -22t29.5 -65q0 -10 -6 -20t-20.5 -21t-25.5 -18t-35.5 -20.5t-34.5 -19.5q-5 -3 -11 -7z" />
    <glyph glyph-name="quotesingle" unicode="'" horiz-adv-x="160" 
d="M60 660v-159v-20h40v20v159v20h-40v-20z" />
    <glyph glyph-name="parenleft" unicode="(" horiz-adv-x="280" 
d="M204 692q-82 -104 -122.5 -202.5t-41.5 -239.5q-1 -264 165 -444l6 -6h55l-31 34q-156 166 -155 416q1 133 39.5 226.5t116.5 191.5l25 32h-51z" />
    <glyph glyph-name="parenright" unicode=")" horiz-adv-x="280" 
d="M44 668q156 -196 156 -418q0 -117 -45.5 -226.5t-110.5 -190.5l-26 -33h52l6 7q68 86 116 202.5t48 240.5q0 234 -164 442l-6 8h-51z" />
    <glyph glyph-name="asterisk" unicode="*" horiz-adv-x="500" 
d="M250 539l-77 131l-10 17l-34 -20l10 -17l76 -130h-155h-20v-40h20h156l-77 -131l-10 -17l34 -20l10 17l77 131l77 -131l10 -17l34 20l-10 17l-77 131h156h20v40h-20h-155l76 130l10 17l-34 20l-10 -17z" />
    <glyph glyph-name="plus" unicode="+" horiz-adv-x="460" 
d="M250 320h150h20v40h-20h-150v141v20h-40v-20v-141h-150h-20v-40h20h150v-140v-20h40v20v140z" />
    <glyph glyph-name="comma" unicode="," horiz-adv-x="240" 
d="M120 55q-7 -78 -35 -110l-29 -33h53l6 7q35 39 45 132l2 22h-40z" />
    <glyph glyph-name="hyphen" unicode="-" horiz-adv-x="340" 
d="M60 221h220h20v40h-20h-220h-20v-40h20z" />
    <glyph glyph-name="period" unicode="." horiz-adv-x="240" 
d="M100 19v-1v-20h40v20v1v20h-40v-20z" />
    <glyph glyph-name="slash" unicode="/" horiz-adv-x="300" 
d="M241 666l-220 -641l-9 -26h42l5 14l220 641l9 26h-42z" />
    <glyph glyph-name="zero" unicode="0" horiz-adv-x="502" 
d="M40 350q0 -149 63.5 -250t149.5 -101q84 0 146.5 101t62.5 250q0 148 -62.5 249t-146.5 101q-86 0 -149.5 -101t-63.5 -249zM80 350q0 125 49.5 217.5t123.5 92.5q72 0 120.5 -92.5t48.5 -217.5q0 -126 -48.5 -218.5t-120.5 -92.5q-74 0 -123.5 92.5t-49.5 218.5z" />
    <glyph glyph-name="one" unicode="1" horiz-adv-x="284" 
d="M58 341l126 253v-575v-20h40v20v660v20h-32l-6 -11l-164 -329l-14 -29h44z" />
    <glyph glyph-name="two" unicode="2" horiz-adv-x="502" 
d="M80 515q0 60 50.5 102.5t120.5 42.5t120.5 -42.5t50.5 -102.5q0 -38 -21 -75.5t-54.5 -69t-74.5 -63t-81.5 -64.5t-74.5 -66t-55 -74t-21 -84v-20h402h20v40h-20h-362q0 43 39.5 88t95.5 86t112 84.5t95.5 100t39.5 117.5q0 76 -61 130.5t-150 54.5t-150 -54.5
t-61 -130.5v-20h40v20z" />
    <glyph glyph-name="three" unicode="3" horiz-adv-x="500" 
d="M113 660h255l-145 -231l-19 -31h16h20q75 0 127.5 -51t52.5 -124q0 -76 -52.5 -130t-127.5 -54q-67 0 -112.5 34t-53.5 85l-3 16h-41l4 -24q12 -63 67.5 -107t138.5 -44q91 0 155.5 66t64.5 158q0 86 -58.5 150.5t-125.5 64.5l145 231l19 31h-16h-20h-291h-20v-40h20z
" />
    <glyph glyph-name="four" unicode="4" horiz-adv-x="500" 
d="M222 688l-201 -494l-11 -28h10h20q52 0 154.5 -1t153.5 -1v-145v-20h40v20v145h52h20v40h-20h-52v306v20h-40v-20v-306l-278 2l190 466l11 28h-43z" />
    <glyph glyph-name="five" unicode="5" 
d="M415 700h-255h-15l-4 -15l-74 -287l-1 -1v-2l-9 -26h2h40h1l3 10l1 4q14 41 59 71.5t97 30.5q76 0 128 -65t52 -157t-52 -158t-128 -66q-64 0 -111 41.5t-55 95.5l-3 17h-40l3 -23q11 -68 69 -119.5t137 -51.5q91 0 155.5 76.5t64.5 187.5q0 110 -64.5 186t-155.5 76
q-72 0 -132 -47l47 182h240h20v40h-20z" />
    <glyph glyph-name="six" unicode="6" horiz-adv-x="502" 
d="M243 699q-75 -31 -139.5 -167t-63.5 -297v-1v-20h1q7 -92 67 -153.5t143 -61.5q87 0 149 68.5t62 166.5q0 97 -62 165t-149 68q-91 0 -153 -73q22 100 67 173.5t94 93.5l12 6v43zM80 234q0 79 50 136t121 57q72 0 121.5 -56.5t49.5 -136.5q0 -81 -49.5 -138t-121.5 -57
q-71 0 -121 57.5t-50 137.5z" />
    <glyph glyph-name="seven" unicode="7" horiz-adv-x="444" 
d="M40 660h328q-100 -166 -163.5 -315.5t-96.5 -321.5l-4 -24h41l3 16q32 171 97 321.5t176 333.5l19 30h-16h-384h-20v-40h20z" />
    <glyph glyph-name="eight" unicode="8" horiz-adv-x="502" 
d="M40 208q0 -86 61.5 -147t149.5 -61t149.5 61t61.5 147q0 62 -33 113.5t-87 77.5q43 21 68 58t25 81q0 67 -53 114.5t-130 47.5q-78 0 -131.5 -47.5t-53.5 -114.5q0 -43 25.5 -80.5t68.5 -58.5q-55 -26 -88 -77.5t-33 -113.5zM107 538q0 51 43 86.5t102 35.5
q58 0 100.5 -35.5t42.5 -86.5q0 -47 -37.5 -81t-91.5 -38h-14h-14q-55 4 -93 38t-38 81zM266 378q65 -5 110.5 -54t45.5 -116q0 -70 -50 -119t-121 -49t-121 49t-50 119q0 67 45.5 116t112.5 54h14h14z" />
    <glyph glyph-name="nine" unicode="9" horiz-adv-x="502" 
d="M462 470v20h-1q-7 89 -67 149.5t-143 60.5q-87 0 -149 -67t-62 -163q0 -95 62 -161.5t150 -66.5q61 0 113 36q-42 -93 -131 -249l-18 -30h47l5 10q139 239 180 379q12 33 14 77v4v1zM422 470v-6q-2 -25 -7 -48q-16 -59 -60.5 -96.5t-102.5 -37.5q-72 0 -122 55t-50 133
t49.5 134t121.5 56t121.5 -56t49.5 -134z" />
    <glyph glyph-name="colon" unicode=":" horiz-adv-x="160" 
d="M62 80v-1v-20h40v20v1v20h-40v-20zM62 421v-1v-20h40v20v1v20h-40v-20z" />
    <glyph glyph-name="semicolon" unicode=";" horiz-adv-x="160" 
d="M80 43q-8 -93 -36 -131l-24 -32h50l6 8q36 47 44 151l2 22h-40zM61 421v-1v-20h40v20v1v20h-40v-20z" />
    <glyph glyph-name="less" unicode="&#x3c;" horiz-adv-x="540" 
d="M473 519l-420 -160l-13 -5v-28l13 -5l420 -161l27 -10v43l-13 5l-371 142l371 141l13 5v43z" />
    <glyph glyph-name="equal" unicode="=" horiz-adv-x="540" 
d="M60 190h420h20v40h-20h-420h-20v-40h20zM60 424h420h20v40h-20h-420h-20v-40h20z" />
    <glyph glyph-name="greater" unicode="&#x3e;" horiz-adv-x="540" 
d="M53 481l371 -141l-371 -142l-13 -5v-43l27 10l420 161l13 5v28l-13 5l-420 160l-27 10v-43z" />
    <glyph glyph-name="question" unicode="?" horiz-adv-x="460" 
d="M211 20v-2v-20h40v20v2v20h-40v-20zM80 501q0 65 44 102.5t106 36.5t106 -39t44 -101q0 -28 -17 -52t-42 -44t-50 -42.5t-42.5 -59t-17.5 -81.5v-19.5v-14.5v-7v-20h40v20v40v1q0 35 17.5 64t42.5 50t49.5 43t42 53t17.5 69q0 81 -55.5 130t-134.5 50t-134.5 -48
t-55.5 -131v-20h40v20z" />
    <glyph glyph-name="at" unicode="@" horiz-adv-x="1030" 
d="M481 449q50 0 80.5 -45t22.5 -111q-1 -6 -3.5 -18t-4.5 -19q-25 -83 -68 -137t-104 -55h-1q-65 -2 -96.5 51.5t-7.5 135.5v1q26 97 74.5 147t107.5 50zM481 489q-70 0 -129.5 -56t-90.5 -171q-33 -109 12.5 -174.5t130.5 -63.5q78 1 139 77q-1 -4 -3 -14
q-8 -37 7.5 -64.5t45 -39t73 -1.5t86.5 43q53 37 96.5 114.5t43.5 157.5q0 167 -120.5 285t-290.5 118q-174 0 -297.5 -130t-123.5 -313t123.5 -312.5t297.5 -129.5q143 0 241.5 45.5t153.5 112.5l12 16l-31 25l-13 -15q-49 -61 -140.5 -102.5t-222.5 -41.5
q-158 0 -269.5 118t-111.5 284t111.5 284.5t269.5 118.5q154 0 262.5 -106.5t108.5 -256.5q0 -70 -38 -138.5t-85 -101.5h-1q-48 -38 -86 -45t-54 12.5t-8 54.5q37 171 80 386l4 20l-40 8l-4 -20l-13 -65q-19 38 -53 59.5t-73 21.5z" />
    <glyph glyph-name="A" unicode="A" horiz-adv-x="640" 
d="M136 160h366h15l65 -148l5 -12h44l-13 28l-280 640l-5 12h-26l-5 -12l-280 -640l-13 -28h44l5 12l65 148h13zM500 200h-360l180 410z" />
    <glyph glyph-name="B" unicode="B" horiz-adv-x="640" 
d="M469 349q42 25 66.5 65t24.5 86q0 74 -58.5 127t-141.5 53l-239 -1h-20v-20l-1 -639v-20h20h281q82 0 140.5 53t58.5 127q0 57 -36.5 103.5t-94.5 65.5zM140 359v281h220q66 0 113 -41t47 -99t-47 -99t-113 -41zM141 320h219h41q65 0 112 -41t47 -99t-47 -99t-112 -41
l-260 -1v281z" />
    <glyph glyph-name="C" unicode="C" horiz-adv-x="640" 
d="M563 164q-30 -50 -92 -87t-131 -37q-108 0 -184 88t-76 212t76 212t184 88q69 0 131.5 -36.5t88.5 -87.5l36 18q-31 59 -103.5 102.5t-152.5 43.5q-124 0 -212 -99t-88 -241t88 -241t212 -99q80 0 152 43t105 101z" />
    <glyph glyph-name="D" unicode="D" horiz-adv-x="680" 
d="M120 0h240h1h1q117 11 193 110t65 230q11 131 -65 230t-193 110h-1h-241h-20v-20v-640v-20h20zM140 40v600h219q101 -9 166 -97t55 -201v-2q10 -115 -55 -203t-166 -97h-219z" />
    <glyph glyph-name="E" unicode="E" horiz-adv-x="640" 
d="M560 680h-440h-20v-20v-300v-40v-300v-20h20h440h20v40h-20h-420v280h302h20v40h-20h-302v280h420h20v40h-20z" />
    <glyph glyph-name="F" unicode="F" horiz-adv-x="540" 
d="M500 680h-380h-20v-20v-300v-40v-300v-20h40v20v300h255h20v40h-20h-255v280h360h20v40h-20z" />
    <glyph glyph-name="G" unicode="G" horiz-adv-x="720" 
d="M362 320h258q0 -110 -76.5 -195t-182.5 -85q-108 0 -184.5 88.5t-76.5 211.5t76.5 211.5t184.5 88.5q70 1 132.5 -36t88.5 -88l36 18q-31 60 -103.5 103.5t-153.5 42.5q-124 0 -212.5 -99t-88.5 -241t88.5 -241t212.5 -99q123 0 211 99t88 241v20h-298v-40z" />
    <glyph glyph-name="H" unicode="H" horiz-adv-x="700" 
d="M600 320v40v300v20h-40v-20v-300h-420v300v20h-40v-20v-300v-40v-300v-20h40v20v300h420v-300v-20h40v20v300z" />
    <glyph glyph-name="I" unicode="I" horiz-adv-x="240" 
d="M101 660v-640v-20h40v20v640v20h-40v-20z" />
    <glyph glyph-name="J" unicode="J" horiz-adv-x="500" 
d="M380 660v-481q-1 -56 -48 -97.5t-112 -41.5q-66 0 -112.5 40.5t-47.5 98.5v20h-40v-20q1 -74 58.5 -126.5t141.5 -52.5q82 0 140.5 53.5t59.5 125.5v481v20h-40v-20z" />
    <glyph glyph-name="K" unicode="K" horiz-adv-x="620" 
d="M222 320l324 -314l6 -6h57l-35 34l-315 306l315 306l35 34h-57l-6 -6l-324 -314h-82v300v20h-40v-20v-300v-40v-300v-20h40v20v300h82z" />
    <glyph glyph-name="L" unicode="L" 
d="M100 660v-640v-20h20h360h20v40h-20h-340v620v20h-40v-20z" />
    <glyph glyph-name="M" unicode="M" horiz-adv-x="820" 
d="M140 20v547l252 -555l5 -12h26l5 12l251 555l1 -547v-20h40v20l-1 640v20h-33l-5 -12l-271 -599l-272 599l-5 12h-33v-20v-640v-20h40v20z" />
    <glyph glyph-name="N" unicode="N" horiz-adv-x="700" 
d="M140 20v578l423 -590l6 -8h30v20l1 640v20h-40v-20l-1 -578l-423 590l-6 8h-30v-20v-640v-20h40v20z" />
    <glyph glyph-name="O" unicode="O" horiz-adv-x="720" 
d="M60 340q0 -142 88 -241t212 -99t212 99t88 241t-88 241t-212 99t-212 -99t-88 -241zM100 340q0 123 76 211.5t184 88.5t184 -88.5t76 -211.5t-76 -211.5t-184 -88.5t-184 88.5t-76 211.5z" />
    <glyph glyph-name="P" unicode="P" horiz-adv-x="640" 
d="M140 359v281h260q66 0 113 -41t47 -100q0 -58 -47 -98.5t-113 -40.5q-44 0 -130 -0.5t-130 -0.5zM140 320h260q83 0 141.5 52.5t58.5 126.5q0 75 -58.5 128t-141.5 53l-279 -1h-20v-20l-1 -639v-20h40v20v300z" />
    <glyph glyph-name="Q" unicode="Q" horiz-adv-x="720" 
d="M60 340q0 -142 88 -241t212 -99q112 0 198 84l67 -77l13 -15l30 26l-13 15l-71 81q76 97 76 226q0 142 -88 241t-212 99t-212 -99t-88 -241zM100 340q0 123 76 211.5t184 88.5t184 -88.5t76 -211.5q0 -109 -63 -195l-42 48l-13 15l-30 -26l13 -15l46 -53
q-74 -74 -171 -74q-108 0 -184 88.5t-76 211.5z" />
    <glyph glyph-name="R" unicode="R" horiz-adv-x="660" 
d="M450 326q66 15 108 63t42 110q0 75 -58.5 128t-142.5 53l-278 -1h-20v-20l-1 -639v-20h40v20v300h254q52 -38 86.5 -97t80.5 -209l4 -14h42l-8 26q-40 135 -74 199.5t-75 100.5zM335 360q-33 0 -98 -0.5t-97 -0.5v281h259q66 0 113.5 -41t47.5 -100q0 -58 -47 -98.5
t-113 -40.5h-65z" />
    <glyph glyph-name="S" unicode="S" horiz-adv-x="560" 
d="M500 500q0 74 -63.5 127t-156.5 53t-156.5 -53t-63.5 -127q0 -50 43.5 -88t105 -62.5t123.5 -46.5t105 -53t43 -70q0 -58 -60 -99t-140 -41q-81 0 -140.5 40.5t-59.5 99.5h-40q0 -73 69.5 -126.5t170.5 -53.5q100 0 170 54t70 126q0 50 -43 88.5t-105 63t-123.5 47
t-105 53t-43.5 68.5q0 59 53 99.5t127 40.5t127 -40.5t53 -99.5h40z" />
    <glyph glyph-name="T" unicode="T" horiz-adv-x="560" 
d="M301 680h-40h-221h-20v-40h20h221v-620v-20h40v20v620h219h20v40h-20h-219z" />
    <glyph glyph-name="U" unicode="U" horiz-adv-x="640" 
d="M80 660v-440q0 -90 70 -155t170 -65t170 65t70 155l1 439l1 20h-42v-19v-440q0 -75 -58.5 -127.5t-141.5 -52.5t-141.5 52.5t-58.5 127.5l1 439l1 20h-42v-19z" />
    <glyph glyph-name="V" unicode="V" horiz-adv-x="640" 
d="M22 652l281 -640l5 -12h26l5 12l279 640l13 28h-44l-5 -12l-261 -598l-263 598l-5 12h-44z" />
    <glyph glyph-name="W" unicode="W" horiz-adv-x="840" 
d="M20 656l140 -640l4 -16h30l5 13l221 590l221 -590l5 -13h30l4 16l140 640l5 24h-41l-4 -16l-125 -574l-216 577l-5 13h-28l-5 -13l-216 -577l-125 574l-4 16h-41z" />
    <glyph glyph-name="X" unicode="X" horiz-adv-x="560" 
d="M280 387l-205 285l-6 8h-49l23 -32l212 -295l-231 -321l-23 -32h49l6 8l224 311l224 -311l6 -8h49l-23 32l-231 321l212 295l23 32h-49l-6 -8z" />
    <glyph glyph-name="Y" unicode="Y" horiz-adv-x="540" 
d="M292 334l205 315l20 31h-48l-6 -9l-191 -295l-195 295l-6 9h-48l20 -31l209 -315v-314v-20h40v20v314z" />
    <glyph glyph-name="Z" unicode="Z" 
d="M58 640h367l-402 -609l-20 -31h17h20h440h20v40h-20h-403l402 609l20 31h-17h-20h-404h-20v-40h20z" />
    <glyph glyph-name="bracketleft" unicode="[" horiz-adv-x="340" 
d="M300 680h-180h-20v-20v-840v-20h20h180h20v40h-20h-160v800h160h20v40h-20z" />
    <glyph glyph-name="backslash" unicode="\" horiz-adv-x="300" 
d="M21 674l220 -680l4 -14h42l-8 26l-220 680l-4 14h-42z" />
    <glyph glyph-name="bracketright" unicode="]" horiz-adv-x="360" 
d="M60 640h160v-800h-160h-20v-40h20h180h20v20v840v20h-20h-180h-20v-40h20z" />
    <glyph glyph-name="asciicircum" unicode="^" horiz-adv-x="460" 
d="M78 331l153 286l151 -286l6 -11h45l-15 29l-169 320l-6 11h-24l-6 -11l-171 -320l-15 -29h45z" />
    <glyph glyph-name="underscore" unicode="_" 
d="M0 -200h520h20v40h-20h-520h-20v-40h20z" />
    <glyph glyph-name="grave" unicode="`" horiz-adv-x="220" 
d="M62 651l80 -159l6 -11h44l-14 29l-80 159l-6 11h-44z" />
    <glyph glyph-name="a" unicode="a" horiz-adv-x="560" 
d="M40 240q0 -100 65 -170t155 -70q55 0 102.5 27.5t77.5 74.5v-82v-20h40v20v220v220v20h-40v-20v-82q-30 47 -77.5 74.5t-102.5 27.5q-90 0 -155 -70t-65 -170zM80 240q0 83 52.5 141.5t127.5 58.5t127.5 -58.5t52.5 -141.5t-52.5 -141.5t-127.5 -58.5t-127.5 58.5
t-52.5 141.5z" />
    <glyph glyph-name="b" unicode="b" horiz-adv-x="560" 
d="M80 239v-219v-20h40v20v82q30 -47 77.5 -74.5t102.5 -27.5q90 0 155 70t65 170t-65 170t-155 70q-55 0 -102.5 -27.5t-77.5 -74.5v302v20h-40v-20v-441zM120 239q0 83 52.5 142t127.5 59t127.5 -58.5t52.5 -141.5t-52.5 -141.5t-127.5 -58.5t-127.5 58.5t-52.5 140.5z
" />
    <glyph glyph-name="c" unicode="c" horiz-adv-x="480" 
d="M404 116q-55 -76 -147 -76q-74 0 -125.5 58.5t-51.5 141.5t51.5 141.5t125.5 58.5q97 0 147 -70l32 22q-59 88 -179 88q-90 0 -153.5 -70t-63.5 -170t63.5 -170t153.5 -70q115 0 179 94z" />
    <glyph glyph-name="d" unicode="d" horiz-adv-x="560" 
d="M40 240q0 -100 65 -170t155 -70q55 0 102.5 27.5t77.5 74.5v-82v-20h40v20v220v440v20h-40v-20v-302q-30 47 -77.5 74.5t-102.5 27.5q-90 0 -155 -70t-65 -170zM80 240q0 83 52.5 141.5t127.5 58.5t127.5 -58.5t52.5 -141.5t-52.5 -141.5t-127.5 -58.5t-127.5 58.5
t-52.5 141.5z" />
    <glyph glyph-name="e" unicode="e" 
d="M418 120q-59 -81 -158 -80q-71 0 -121.5 52t-57.5 128h379h20v20q0 100 -65 170t-155 70q-91 0 -155.5 -70t-64.5 -170t64.5 -170t155.5 -70q121 -1 190 96zM81 260q7 76 57.5 128t121.5 52q73 0 126.5 -55.5t53.5 -124.5h-359z" />
    <glyph glyph-name="f" unicode="f" horiz-adv-x="300" 
d="M141 480q4 77 36 119t83 42h20v40h-20q-67 0 -111 -50t-48 -151h-61h-20v-40h20h60v-420v-20h40v20v420h120h20v40h-20h-119z" />
    <glyph glyph-name="g" unicode="g" horiz-adv-x="560" 
d="M40 240q0 -100 65 -170t155 -70q55 0 102.5 27.5t77.5 74.5v-82q0 -58 -51.5 -111.5t-127.5 -54.5h-20v-40h20q94 1 156.5 67.5t62.5 138.5l1 439l1 20h-42v-19v-82q-30 47 -77.5 74.5t-102.5 27.5q-90 0 -155 -70t-65 -170zM80 240q0 83 52.5 141.5t127.5 58.5
t127.5 -58.5t52.5 -141.5t-52.5 -141.5t-127.5 -58.5t-127.5 58.5t-52.5 141.5z" />
    <glyph glyph-name="h" unicode="h" horiz-adv-x="540" 
d="M120 402v214v20h-40v-20v-339v-20v-237v-20h40v20v237v20q0 67 43.5 115t106.5 48t106.5 -48t43.5 -115l1 -258l1 -20h39l-1 21v257q0 84 -56 143.5t-134 59.5q-92 0 -150 -78z" />
    <glyph glyph-name="i" unicode="i" horiz-adv-x="200" 
d="M100 561h1h20v40h-20h-1h-20v-40h20zM80 460v-440v-20h40v20v440v20h-40v-20z" />
    <glyph glyph-name="j" unicode="j" horiz-adv-x="262" 
d="M162 558h1h20v40h-20h-1h-20v-40h20zM142 460v-440q0 -67 -29 -116.5t-73 -49.5h-20v-40h20q57 0 99.5 59t42.5 147l1 439l1 20h-42v-19z" />
    <glyph glyph-name="k" unicode="k" horiz-adv-x="480" 
d="M171 220l235 -215l6 -5h59l-37 35l-224 205l224 205l37 35h-59l-6 -5l-235 -215h-51v420v20h-40v-20v-420v-40v-200v-20h40v20v200h51z" />
    <glyph glyph-name="l" unicode="l" horiz-adv-x="193" 
d="M80 680v-660v-20h40v20v660v20h-40v-20z" />
    <glyph glyph-name="m" unicode="m" horiz-adv-x="792" 
d="M389 394q-41 86 -141 86q-78 0 -128 -65v45v20h-40v-20v-167v-20v-253v-20h40v20v253v20q0 60 37 103.5t91 43.5t91 -43.5t37 -103.5v-20q0 -43 0.5 -127t0.5 -127l1 -20h39l-1 21v253v20q0 60 37 103.5t91 43.5t91 -43.5t37 -103.5l1 -274l1 -20h39l-1 21v273
q0 81 -50.5 139t-117.5 48q-36 -5 -63 -16.5t-42 -28t-20 -24.5t-12 -23l-4 -8t-3 -2t-4.5 4t-6.5 12z" />
    <glyph glyph-name="n" unicode="n" horiz-adv-x="540" 
d="M460 20v257q0 84 -56 143.5t-134 59.5q-92 0 -150 -78v58v20h-40v-20v-183v-20v-237v-20h40v20v237v20q0 67 43.5 115t106.5 48t106.5 -48t43.5 -115l1 -258l1 -20h39z" />
    <glyph glyph-name="o" unicode="o" 
d="M40 240q0 -100 65 -170t155 -70t155 70t65 170t-65 170t-155 70t-155 -70t-65 -170zM80 240q0 83 52.5 141.5t127.5 58.5t127.5 -58.5t52.5 -141.5t-52.5 -141.5t-127.5 -58.5t-127.5 58.5t-52.5 141.5z" />
    <glyph glyph-name="p" unicode="p" horiz-adv-x="560" 
d="M120 377v83v20h-40v-20v-220v-406v-20h40v20v268q30 -47 77.5 -74.5t102.5 -27.5q90 0 155 70t65 170t-64.5 170t-154.5 70q-55 1 -102.5 -27t-78.5 -76zM120 240q2 83 54.5 142t126.5 58q74 0 126.5 -58.5t52.5 -141.5t-52.5 -141.5t-127.5 -58.5t-127.5 58.5
t-52.5 141.5z" />
    <glyph glyph-name="q" unicode="q" horiz-adv-x="560" 
d="M40 240q0 -100 65 -170t155 -70q55 0 102.5 27.5t77.5 74.5v-268v-20h40v20v406v220v20h-40v-20v-82q-30 47 -77.5 74.5t-102.5 27.5q-90 0 -155 -70t-65 -170zM80 240q0 83 52.5 141.5t127.5 58.5t127.5 -58.5t52.5 -141.5t-52.5 -141.5t-127.5 -58.5t-127.5 58.5
t-52.5 141.5z" />
    <glyph glyph-name="r" unicode="r" horiz-adv-x="338" 
d="M120 389v71v20h-40v-20v-215v-5v-20v-200v-20h40v20v200v20v5q1 92 52.5 143.5t135.5 51.5h20v40h-20q-127 0 -188 -91z" />
    <glyph glyph-name="s" unicode="s" horiz-adv-x="452" 
d="M395 351q0 52 -49 90.5t-120 38.5t-120 -38.5t-49 -90.5q0 -39 32.5 -67t79 -44t92.5 -30t78.5 -34t32.5 -47q0 -39 -44 -64t-102 -25t-102 25t-44 64h-40q0 -52 53 -90.5t133 -38.5t133 38.5t53 90.5q0 39 -32 67t-78.5 44t-93 30t-79 34t-32.5 47q0 38 38.5 63.5
t90.5 25.5t90.5 -25.5t38.5 -63.5h40z" />
    <glyph glyph-name="t" unicode="t" horiz-adv-x="300" 
d="M141 440h119h20v40h-20h-119v105v20h-40v-20v-105h-61h-20v-40h20h61v-309q1 -63 41 -97t118 -34h20v40h-20q-56 0 -87 23t-32 68v309z" />
    <glyph glyph-name="u" unicode="u" horiz-adv-x="507" 
d="M60 460v-282q0 -73 56.5 -125.5t137.5 -52.5t137 52.5t56 125.5l1 281l1 20h-41l-1 -19v-282q0 -58 -45 -98t-108 -40t-108.5 40.5t-45.5 97.5l1 281l1 20h-41z" />
    <glyph glyph-name="v" unicode="v" horiz-adv-x="480" 
d="M42 452l181 -440l5 -12h26l6 12l179 440l11 28h-43l-6 -12l-160 -395l-163 395l-5 12h-43z" />
    <glyph glyph-name="w" unicode="w" horiz-adv-x="720" 
d="M41 455l120 -440l4 -15h28l6 12l161 395l161 -395l6 -12h28l4 15l120 440l7 25h-41l-4 -15l-105 -383l-157 386l-6 12h-26l-6 -12l-157 -386l-105 383l-4 15h-41z" />
    <glyph glyph-name="x" unicode="x" horiz-adv-x="480" 
d="M265 254l150 194l25 32h-51l-6 -8l-143 -186l-143 186l-6 8h-51l25 -32l150 -194l-171 -222l-25 -32h51l6 8l164 213l164 -213l6 -8h51l-25 32z" />
    <glyph glyph-name="y" unicode="y" horiz-adv-x="440" 
d="M211 76l-152 391l-5 13h-43l10 -27l168 -433q-36 -96 -66 -131t-83 -35h-20v-40h20q66 0 106 40.5t84 158.5l169 440l10 27h-43l-5 -13z" />
    <glyph glyph-name="z" unicode="z" horiz-adv-x="440" 
d="M80 440h242l-279 -409l-21 -31h18h20h320h20v40h-20h-282l279 409l21 31h-18h-20h-280h-20v-40h20z" />
    <glyph glyph-name="braceleft" unicode="{" horiz-adv-x="400" 
d="M360 720q-67 0 -104.5 -72t-38.5 -166q-3 -130 -90 -207l-7 -6v-18q94 -78 97 -210q1 -96 38.5 -168t104.5 -73h20v40h-20q-37 1 -61 34.5t-32.5 75.5t-9.5 91q-1 77 -26 134t-60 85q33 29 59 88.5t27 133.5q1 47 9 88.5t32.5 75.5t61.5 34h20v40h-20z" />
    <glyph glyph-name="bar" unicode="|" horiz-adv-x="200" 
d="M80 680v-872v-20h40v20v872v20h-40v-20z" />
    <glyph glyph-name="braceright" unicode="}" horiz-adv-x="400" 
d="M40 680q30 0 49 -18.5t27 -53t10 -60.5t3 -66v-1q3 -73 35.5 -135.5t63.5 -86.5q-34 -27 -65 -82.5t-34 -134.5q0 -25 -0.5 -35.5t-1.5 -34t-3.5 -35t-6.5 -30t-10.5 -28t-15.5 -20t-22 -15t-29 -4.5h-20v-40h20q38 0 64.5 18.5t40 53.5t19 74.5t5.5 93.5q6 124 104 205
l7 6v19q-44 32 -75.5 89t-35.5 124q-2 236 -129 237h-20v-40h20z" />
    <glyph glyph-name="asciitilde" unicode="~" horiz-adv-x="500" 
d="M60 214q1 29 22.5 53.5t63.5 24.5q31 0 98.5 -49t110.5 -49q58 0 91.5 36.5t33.5 82.5v20h-40v-20q0 -30 -23 -54.5t-62 -24.5q-19 0 -45 15t-48.5 33.5t-54.5 34t-61 15.5q-62 0 -93.5 -37t-32.5 -81l-1 -20h41v20z" />
    <glyph glyph-name="Non-breakingspace" unicode="&#xa0;" horiz-adv-x="20" 
 />
    <glyph glyph-name="cent" unicode="&#xa2;" horiz-adv-x="476" 
d="M424 116q-55 -76 -147 -76q-74 0 -125.5 58.5t-51.5 141.5t51.5 141.5t125.5 58.5q97 0 147 -70l32 22q-59 88 -179 88q-90 0 -153.5 -70t-63.5 -170t63.5 -170t153.5 -70q115 0 179 94zM263 490v-504v-16h40v16v504v16h-40v-16z" />
    <glyph glyph-name="sterling" unicode="&#xa3;" horiz-adv-x="20" 
 />
    <glyph glyph-name="yen" unicode="&#xa5;" horiz-adv-x="557" 
d="M312 334l205 315l20 31h-48l-6 -9l-191 -295l-195 295l-6 9h-48l20 -31l209 -315v-314v-20h40v20v314zM80 154h420h20v40h-20h-420h-20v-40h20zM80 323h420h20v40h-20h-420h-20v-40h20z" />
    <glyph glyph-name="section" unicode="&#xa7;" horiz-adv-x="20" 
 />
    <glyph glyph-name="dieresis" unicode="&#xa8;" horiz-adv-x="260" 
d="M220 660v1v20h-40v-20v-1v-20h40v20zM80 660v1v20h-40v-20v-1v-20h40v20z" />
    <glyph glyph-name="copyright" unicode="&#xa9;" horiz-adv-x="690" 
d="M88 335q0 -119 85.5 -202t205.5 -83t205.5 83t85.5 202t-85.5 202t-205.5 83t-205.5 -83t-85.5 -202zM120 337q0 103 76 177t184 74t184 -74t76 -177q0 -104 -76 -178t-184 -74t-184 74t-76 178zM499 232q-47 -63 -125 -63q-63 0 -107 48.5t-44 117.5t44 118t107 49
q80 0 125 -58l27 18q-51 73 -152 73q-77 0 -131 -58t-54 -142q0 -83 54 -141.5t131 -58.5q96 0 152 79z" />
    <glyph glyph-name="registered" unicode="&#xae;" horiz-adv-x="478" 
d="M53 520q0 -85 59.5 -144.5t142.5 -59.5q84 0 143.5 59.5t59.5 144.5t-59.5 144t-143.5 59q-83 0 -142.5 -59t-59.5 -144zM72 518q0 77 54 132t131 55t131.5 -55t54.5 -132t-54.5 -132t-131.5 -55t-131 55t-54 132zM304 523q23 5 38 23t15 41q0 28 -20.5 48t-50.5 20h-98
h-7v-8l-1 -238v-8h14v8v112h90q18 -14 30.5 -36t28.5 -78l2 -6h14l-2 10q-26 88 -53 112zM262 535q-12 0 -35 -0.5t-34 -0.5v107h91q23 0 40 -15.5t17 -37.5t-16.5 -37.5t-39.5 -15.5h-23z" />
    <glyph glyph-name="Superscripttwo" unicode="&#xb2;" horiz-adv-x="285" 
d="M79 610q0 29 24.5 50t58.5 21t58.5 -21t24.5 -50q0 -25 -19 -50t-46 -46t-54.5 -42.5t-46.5 -48.5t-19 -55v-9h195h10v19h-10h-176q0 25 29 53.5t64 51t64 57t29 70.5q0 37 -30 63.5t-73 26.5q-42 0 -72 -26.5t-30 -63.5v-10h19v10z" />
    <glyph glyph-name="Superscriptthree" unicode="&#xb3;" horiz-adv-x="283" 
d="M95 682h123l-70 -113l-9 -15h8h9q37 0 62 -25t25 -61q0 -37 -25.5 -63.5t-61.5 -26.5q-32 0 -53.5 16.5t-26.5 41.5l-1 8h-20l2 -12q6 -31 32.5 -52t66.5 -21q44 0 75.5 32t31.5 77q0 42 -28.5 73.5t-60.5 31.5l70 113l9 16h-8h-9h-141h-10v-20h10z" />
    <glyph glyph-name="cedilla" unicode="&#xb8;" horiz-adv-x="280" 
d="M121 6l-20 -60l-9 -26h8h20q80 0 80 -40q1 -18 -15.5 -29t-44.5 -11l-79 -1h-20v-39h19h80q39 -1 69.5 23.5t30.5 56.5q1 35 -31 57.5t-61 22.5l11 34l9 26h-42z" />
    <glyph glyph-name="Agrave" unicode="&#xc0;" horiz-adv-x="671" 
d="M300 758l80 -100l6 -8h52l-26 32l-80 100l-6 8h-52zM156 160h366h15l65 -148l5 -12h44l-13 28l-280 640l-5 12h-26l-5 -12l-280 -640l-13 -28h44l5 12l65 148h13zM520 200h-360l180 410z" />
    <glyph glyph-name="Aacute" unicode="&#xc1;" horiz-adv-x="671" 
d="M299 658l80 100l26 32h-52l-6 -8l-80 -100l-26 -32h52zM156 160h366h15l65 -148l5 -12h44l-13 28l-280 640l-5 12h-26l-5 -12l-280 -640l-13 -28h44l5 12l65 148h13zM520 200h-360l180 410z" />
    <glyph glyph-name="Acircumflex" unicode="&#xc2;" horiz-adv-x="671" 
d="M156 160h366h15l65 -148l5 -12h44l-13 28l-280 640l-5 12h-26l-5 -12l-280 -640l-13 -28h44l5 12l65 148h13zM520 200h-360l180 410zM276 648l64 80l64 -80l6 -8h52l-26 32l-80 100l-6 8h-20l-6 -8l-80 -100l-26 -32h52z" />
    <glyph glyph-name="Atilde" unicode="&#xc3;" horiz-adv-x="671" 
d="M156 160h366h15l65 -148l5 -12h44l-13 28l-280 640l-5 12h-26l-5 -12l-280 -640l-13 -28h44l5 12l65 148h13zM520 200h-360l180 410zM251 702q0 19 9.5 29.5t25.5 10.5q14 0 26 -15t32 -30t52 -15q29 -1 52 24t23 56h-40q0 -19 -9.5 -29.5t-25.5 -10.5q-11 0 -21 9
t-18.5 20.5t-27 21t-43.5 9.5q-29 -1 -52 -25t-23 -55h40z" />
    <glyph glyph-name="Adieresis" unicode="&#xc4;" horiz-adv-x="671" 
d="M156 160h366h15l65 -148l5 -12h44l-13 28l-280 640l-5 12h-26l-5 -12l-280 -640l-13 -28h44l5 12l65 148h13zM520 200h-360l180 410zM287 719v1v20h-40v-20v-1v-20h40v20zM429 719v1v20h-40v-20v-1v-20h40v20z" />
    <glyph glyph-name="Aring" unicode="&#xc5;" horiz-adv-x="671" 
d="M261 737q0 -31 24.5 -55.5t55.5 -24.5q31 -1 55.5 24t24.5 56q1 30 -24 55t-56 25q-31 -1 -55.5 -25t-24.5 -55zM302 739q0 40 40 40q40 -2 40 -40q1 -19 -10 -29.5t-30 -10.5q-18 -1 -29 10t-11 30zM156 160h366h15l65 -148l5 -12h44l-13 28l-280 640l-5 12h-26l-5 -12
l-280 -640l-13 -28h44l5 12l65 148h13zM520 200h-360l180 410z" />
    <glyph glyph-name="AE" unicode="&#xc6;" horiz-adv-x="1108" 
d="M156 160h366h15l65 -148l5 -12h44l-13 28l-280 640l-5 12h-26l-5 -12l-280 -640l-13 -28h44l5 12l65 148h13zM520 200h-360l180 410zM1068 680h-440h-20v-20v-300v-40v-300v-20h20h440h20v40h-20h-420v280h302h20v40h-20h-302v280h420h20v40h-20z" />
    <glyph glyph-name="Ccedilla" unicode="&#xc7;" horiz-adv-x="637" 
d="M583 164q-30 -50 -92 -87t-131 -37q-108 0 -184 88t-76 212t76 212t184 88q69 0 131.5 -36.5t88.5 -87.5l36 18q-31 59 -103.5 102.5t-152.5 43.5q-124 0 -212 -99t-88 -241t88 -241t212 -99q80 0 152 43t105 101zM257 29q-55 -59 -55 -103q1 -41 39.5 -69t90.5 1l17 9
l-19 35l-18 -10q-34 -16 -52 -4t-18 38q0 12 11.5 31t22.5 32l11 13l13 14l-29 27z" />
    <glyph glyph-name="Egrave" unicode="&#xc8;" horiz-adv-x="620" 
d="M580 680h-440h-20v-20v-300v-40v-300v-20h20h440h20v40h-20h-420v280h302h20v40h-20h-302v280h420h20v40h-20zM270 799l80 -100l6 -8h52l-26 32l-80 100l-6 8h-52z" />
    <glyph glyph-name="Eacute" unicode="&#xc9;" horiz-adv-x="620" 
d="M580 680h-440h-20v-20v-300v-40v-300v-20h20h440h20v40h-20h-420v280h302h20v40h-20h-302v280h420h20v40h-20zM302 699l80 100l26 32h-52l-6 -8l-80 -100l-26 -32h52z" />
    <glyph glyph-name="Ecircumflex" unicode="&#xca;" horiz-adv-x="620" 
d="M580 680h-440h-20v-20v-300v-40v-300v-20h20h440h20v40h-20h-420v280h302h20v40h-20h-302v280h420h20v40h-20zM287 695l64 80l64 -80l6 -8h52l-26 32l-80 100l-6 8h-20l-6 -8l-80 -100l-26 -32h52z" />
    <glyph glyph-name="Edieresis" unicode="&#xcb;" horiz-adv-x="620" 
d="M580 680h-440h-20v-20v-300v-40v-300v-20h20h440h20v40h-20h-420v280h302h20v40h-20h-302v280h420h20v40h-20zM285 719v1v20h-40v-20v-1v-20h40v20zM429 719v1v20h-40v-20v-1v-20h40v20z" />
    <glyph glyph-name="Igrave" unicode="&#xcc;" horiz-adv-x="259" 
d="M121 660v-640v-20h40v20v640v20h-40v-20zM101 767l80 -100l6 -8h52l-26 32l-80 100l-6 8h-52z" />
    <glyph glyph-name="Iacute" unicode="&#xcd;" horiz-adv-x="226" 
d="M121 660v-640v-20h40v20v640v20h-40v-20zM100 667l80 100l26 32h-52l-6 -8l-80 -100l-26 -32h52z" />
    <glyph glyph-name="Icircumflex" unicode="&#xce;" horiz-adv-x="282" 
d="M121 660v-640v-20h40v20v640v20h-40v-20zM76 638l64 80l64 -80l6 -8h52l-26 32l-80 100l-6 8h-20l-6 -8l-80 -100l-26 -32h52z" />
    <glyph glyph-name="Idieresis" unicode="&#xcf;" horiz-adv-x="244" 
d="M121 660v-640v-20h40v20v640v20h-40v-20zM96 719v1v20h-40v-20v-1v-20h40v20zM224 719v1v20h-40v-20v-1v-20h40v20z" />
    <glyph glyph-name="Eth" unicode="&#xd0;" horiz-adv-x="661" 
d="M140 0h240h1h1q117 11 193 110t65 230q11 131 -65 230t-193 110h-1h-241h-20v-20v-640v-20h20zM160 40v600h219q101 -9 166 -97t55 -201v-2q10 -115 -55 -203t-166 -97h-219zM28 326h220h20v40h-20h-220h-20v-40h20z" />
    <glyph glyph-name="Ntilde" unicode="&#xd1;" horiz-adv-x="640" 
d="M160 20v578l423 -590l6 -8h30v20l1 640v20h-40v-20l-1 -578l-423 590l-6 8h-30v-20v-640v-20h40v20zM267 654q0 19 9.5 29.5t25.5 10.5q14 0 26 -15t32 -30t52 -15q29 -1 52 24t23 56h-40q0 -19 -9.5 -29.5t-25.5 -10.5q-11 0 -21 9t-18.5 20.5t-27 21t-43.5 9.5
q-29 -1 -52 -25t-23 -55h40z" />
    <glyph glyph-name="Ograve" unicode="&#xd2;" horiz-adv-x="700" 
d="M80 340q0 -142 88 -241t212 -99t212 99t88 241t-88 241t-212 99t-212 -99t-88 -241zM120 340q0 123 76 211.5t184 88.5t184 -88.5t76 -211.5t-76 -211.5t-184 -88.5t-184 88.5t-76 211.5zM311 795l80 -100l6 -8h52l-26 32l-80 100l-6 8h-52z" />
    <glyph glyph-name="Oacute" unicode="&#xd3;" horiz-adv-x="700" 
d="M80 340q0 -142 88 -241t212 -99t212 99t88 241t-88 241t-212 99t-212 -99t-88 -241zM120 340q0 123 76 211.5t184 88.5t184 -88.5t76 -211.5t-76 -211.5t-184 -88.5t-184 88.5t-76 211.5zM343 695l80 100l26 32h-52l-6 -8l-80 -100l-26 -32h52z" />
    <glyph glyph-name="Ocircumflex" unicode="&#xd4;" horiz-adv-x="700" 
d="M80 340q0 -142 88 -241t212 -99t212 99t88 241t-88 241t-212 99t-212 -99t-88 -241zM120 340q0 123 76 211.5t184 88.5t184 -88.5t76 -211.5t-76 -211.5t-184 -88.5t-184 88.5t-76 211.5zM313 690l64 80l64 -80l6 -8h52l-26 32l-80 100l-6 8h-20l-6 -8l-80 -100l-26 -32
h52z" />
    <glyph glyph-name="Otilde" unicode="&#xd5;" horiz-adv-x="700" 
d="M80 340q0 -142 88 -241t212 -99t212 99t88 241t-88 241t-212 99t-212 -99t-88 -241zM120 340q0 123 76 211.5t184 88.5t184 -88.5t76 -211.5t-76 -211.5t-184 -88.5t-184 88.5t-76 211.5zM299 704q0 19 9.5 29.5t25.5 10.5q14 0 26 -15t32 -30t52 -15q29 -1 52 24t23 56
h-40q0 -19 -9.5 -29.5t-25.5 -10.5q-11 0 -21 9t-18.5 20.5t-27 21t-43.5 9.5q-29 -1 -52 -25t-23 -55h40z" />
    <glyph glyph-name="Odieresis" unicode="&#xd6;" horiz-adv-x="700" 
d="M80 340q0 -142 88 -241t212 -99t212 99t88 241t-88 241t-212 99t-212 -99t-88 -241zM120 340q0 123 76 211.5t184 88.5t184 -88.5t76 -211.5t-76 -211.5t-184 -88.5t-184 88.5t-76 211.5zM288 719v1v20h-40v-20v-1v-20h40v20zM494 719v1v20h-40v-20v-1v-20h40v20z" />
    <glyph glyph-name="multiply" unicode="&#xd7;" horiz-adv-x="439" 
d="M100 151l304 289l15 14l-28 29l-14 -14l-305 -289l-14 -14l27 -29zM72 439l305 -290l14 -13l28 29l-15 13l-304 290l-15 13l-27 -29z" />
    <glyph glyph-name="Oslash" unicode="&#xd8;" horiz-adv-x="700" 
d="M80 340q0 -142 88 -241t212 -99t212 99t88 241t-88 241t-212 99t-212 -99t-88 -241zM120 340q0 123 76 211.5t184 88.5t184 -88.5t76 -211.5t-76 -211.5t-184 -88.5t-184 88.5t-76 211.5zM457 666l-220 -641l-9 -26h42l5 14l220 641l9 26h-42z" />
    <glyph glyph-name="Ugrave" unicode="&#xd9;" horiz-adv-x="602" 
d="M100 660v-440q0 -90 70 -155t170 -65t170 65t70 155l1 439l1 20h-42v-19v-440q0 -75 -58.5 -127.5t-141.5 -52.5t-141.5 52.5t-58.5 127.5l1 439l1 20h-42v-19zM276 685l80 -100l6 -8h52l-26 32l-80 100l-6 8h-52z" />
    <glyph glyph-name="Uacute" unicode="&#xda;" horiz-adv-x="602" 
d="M100 660v-440q0 -90 70 -155t170 -65t170 65t70 155l1 439l1 20h-42v-19v-440q0 -75 -58.5 -127.5t-141.5 -52.5t-141.5 52.5t-58.5 127.5l1 439l1 20h-42v-19zM308 585l80 100l26 32h-52l-6 -8l-80 -100l-26 -32h52z" />
    <glyph glyph-name="Ucircumflex" unicode="&#xdb;" horiz-adv-x="602" 
d="M100 660v-440q0 -90 70 -155t170 -65t170 65t70 155l1 439l1 20h-42v-19v-440q0 -75 -58.5 -127.5t-141.5 -52.5t-141.5 52.5t-58.5 127.5l1 439l1 20h-42v-19zM260 588l64 80l64 -80l6 -8h52l-26 32l-80 100l-6 8h-20l-6 -8l-80 -100l-26 -32h52z" />
    <glyph glyph-name="Udieresis" unicode="&#xdc;" horiz-adv-x="602" 
d="M100 660v-440q0 -90 70 -155t170 -65t170 65t70 155l1 439l1 20h-42v-19v-440q0 -75 -58.5 -127.5t-141.5 -52.5t-141.5 52.5t-58.5 127.5l1 439l1 20h-42v-19zM287 719v1v20h-40v-20v-1v-20h40v20zM429 719v1v20h-40v-20v-1v-20h40v20z" />
    <glyph glyph-name="Yacute" unicode="&#xdd;" horiz-adv-x="557" 
d="M312 334l205 315l20 31h-48l-6 -9l-191 -295l-195 295l-6 9h-48l20 -31l209 -315v-314v-20h40v20v314zM316 710l-80 -100l-26 -32h52l6 8l80 100l26 32h-52z" />
    <glyph glyph-name="Thorn" unicode="&#xde;" horiz-adv-x="20" 
 />
    <glyph glyph-name="germandbls" unicode="&#xdf;" horiz-adv-x="1106" 
d="M520 500q0 74 -63.5 127t-156.5 53t-156.5 -53t-63.5 -127q0 -50 43.5 -88t105 -62.5t123.5 -46.5t105 -53t43 -70q0 -58 -60 -99t-140 -41q-81 0 -140.5 40.5t-59.5 99.5h-40q0 -73 69.5 -126.5t170.5 -53.5q100 0 170 54t70 126q0 50 -43 88.5t-105 63t-123.5 47
t-105 53t-43.5 68.5q0 59 53 99.5t127 40.5t127 -40.5t53 -99.5h40zM1066 500q0 74 -63.5 127t-156.5 53t-156.5 -53t-63.5 -127q0 -50 43.5 -88t105 -62.5t123.5 -46.5t105 -53t43 -70q0 -58 -60 -99t-140 -41q-81 0 -140.5 40.5t-59.5 99.5h-40q0 -73 69.5 -126.5
t170.5 -53.5q100 0 170 54t70 126q0 50 -43 88.5t-105 63t-123.5 47t-105 53t-43.5 68.5q0 59 53 99.5t127 40.5t127 -40.5t53 -99.5h40z" />
    <glyph glyph-name="agrave" unicode="&#xe0;" 
d="M60 240q0 -100 65 -170t155 -70q55 0 102.5 27.5t77.5 74.5v-82v-20h40v20v220v220v20h-40v-20v-82q-30 47 -77.5 74.5t-102.5 27.5q-90 0 -155 -70t-65 -170zM100 240q0 83 52.5 141.5t127.5 58.5t127.5 -58.5t52.5 -141.5t-52.5 -141.5t-127.5 -58.5t-127.5 58.5
t-52.5 141.5zM191 608l80 -100l6 -8h52l-26 32l-80 100l-6 8h-52z" />
    <glyph glyph-name="aacute" unicode="&#xe1;" 
d="M60 240q0 -100 65 -170t155 -70q55 0 102.5 27.5t77.5 74.5v-82v-20h40v20v220v220v20h-40v-20v-82q-30 47 -77.5 74.5t-102.5 27.5q-90 0 -155 -70t-65 -170zM100 240q0 83 52.5 141.5t127.5 58.5t127.5 -58.5t52.5 -141.5t-52.5 -141.5t-127.5 -58.5t-127.5 58.5
t-52.5 141.5zM263 508l80 100l26 32h-52l-6 -8l-80 -100l-26 -32h52z" />
    <glyph glyph-name="acircumflex" unicode="&#xe2;" 
d="M60 240q0 -100 65 -170t155 -70q55 0 102.5 27.5t77.5 74.5v-82v-20h40v20v220v220v20h-40v-20v-82q-30 47 -77.5 74.5t-102.5 27.5q-90 0 -155 -70t-65 -170zM100 240q0 83 52.5 141.5t127.5 58.5t127.5 -58.5t52.5 -141.5t-52.5 -141.5t-127.5 -58.5t-127.5 58.5
t-52.5 141.5zM215 501l64 80l64 -80l6 -8h52l-26 32l-80 100l-6 8h-20l-6 -8l-80 -100l-26 -32h52z" />
    <glyph glyph-name="atilde" unicode="&#xe3;" 
d="M60 240q0 -100 65 -170t155 -70q55 0 102.5 27.5t77.5 74.5v-82v-20h40v20v220v220v20h-40v-20v-82q-30 47 -77.5 74.5t-102.5 27.5q-90 0 -155 -70t-65 -170zM100 240q0 83 52.5 141.5t127.5 58.5t127.5 -58.5t52.5 -141.5t-52.5 -141.5t-127.5 -58.5t-127.5 58.5
t-52.5 141.5zM189 510q0 19 9.5 29.5t25.5 10.5q14 0 26 -15t32 -30t52 -15q29 -1 52 24t23 56h-40q0 -19 -9.5 -29.5t-25.5 -10.5q-11 0 -21 9t-18.5 20.5t-27 21t-43.5 9.5q-29 -1 -52 -25t-23 -55h40z" />
    <glyph glyph-name="adieresis" unicode="&#xe4;" 
d="M60 240q0 -100 65 -170t155 -70q55 0 102.5 27.5t77.5 74.5v-82v-20h40v20v220v220v20h-40v-20v-82q-30 47 -77.5 74.5t-102.5 27.5q-90 0 -155 -70t-65 -170zM100 240q0 83 52.5 141.5t127.5 58.5t127.5 -58.5t52.5 -141.5t-52.5 -141.5t-127.5 -58.5t-127.5 58.5
t-52.5 141.5zM230 531v1v20h-40v-20v-1v-20h40v20zM368 531v1v20h-40v-20v-1v-20h40v20z" />
    <glyph glyph-name="aring" unicode="&#xe5;" 
d="M202 570q0 -31 24.5 -55.5t55.5 -24.5q31 -1 55.5 24t24.5 56q1 30 -24 55t-56 25q-31 -1 -55.5 -25t-24.5 -55zM242 569q0 40 40 40q40 -2 40 -40q1 -19 -10 -29.5t-30 -10.5q-18 -1 -29 10t-11 30zM60 240q0 -100 65 -170t155 -70q55 0 102.5 27.5t77.5 74.5v-82v-20
h40v20v220v220v20h-40v-20v-82q-30 47 -77.5 74.5t-102.5 27.5q-90 0 -155 -70t-65 -170zM100 240q0 83 52.5 141.5t127.5 58.5t127.5 -58.5t52.5 -141.5t-52.5 -141.5t-127.5 -58.5t-127.5 58.5t-52.5 141.5z" />
    <glyph glyph-name="ae" unicode="&#xe6;" horiz-adv-x="953" 
d="M60 240q0 -100 65 -170t155 -70q55 0 102.5 27.5t77.5 74.5v-82v-20h40v20v220v220v20h-40v-20v-82q-30 47 -77.5 74.5t-102.5 27.5q-90 0 -155 -70t-65 -170zM100 240q0 83 52.5 141.5t127.5 58.5t127.5 -58.5t52.5 -141.5t-52.5 -141.5t-127.5 -58.5t-127.5 58.5
t-52.5 141.5zM871 127q-59 -81 -158 -80q-71 0 -121.5 52t-57.5 128h379h20v20q0 100 -65 170t-155 70q-91 0 -155.5 -70t-64.5 -170t64.5 -170t155.5 -70q121 -1 190 96zM536 267q7 76 58 128t121 52q73 0 126.5 -55.5t53.5 -124.5h-359z" />
    <glyph glyph-name="ccedilla" unicode="&#xe7;" horiz-adv-x="476" 
d="M424 116q-55 -76 -147 -76q-74 0 -125.5 58.5t-51.5 141.5t51.5 141.5t125.5 58.5q97 0 147 -70l32 22q-59 88 -179 88q-90 0 -153.5 -70t-63.5 -170t63.5 -170t153.5 -70q115 0 179 94zM252 22q-55 -59 -55 -103q1 -41 39.5 -69t90.5 1l17 9l-19 35l-18 -10
q-35 -16 -52.5 -4t-17.5 38q0 12 11.5 31t22.5 32l11 13l13 14l-29 27z" />
    <glyph glyph-name="egrave" unicode="&#xe8;" 
d="M438 120q-59 -81 -158 -80q-71 0 -121.5 52t-57.5 128h379h20v20q0 100 -65 170t-155 70q-91 0 -155.5 -70t-64.5 -170t64.5 -170t155.5 -70q121 -1 190 96zM101 260q7 76 57.5 128t121.5 52q73 0 126.5 -55.5t53.5 -124.5h-359zM228 589l80 -100l6 -8h52l-26 32l-80 100
l-6 8h-52z" />
    <glyph glyph-name="eacute" unicode="&#xe9;" 
d="M438 120q-59 -81 -158 -80q-71 0 -121.5 52t-57.5 128h379h20v20q0 100 -65 170t-155 70q-91 0 -155.5 -70t-64.5 -170t64.5 -170t155.5 -70q121 -1 190 96zM101 260q7 76 57.5 128t121.5 52q73 0 126.5 -55.5t53.5 -124.5h-359zM260 489l80 100l26 32h-52l-6 -8
l-80 -100l-26 -32h52z" />
    <glyph glyph-name="ecircumflex" unicode="&#xea;" 
d="M438 120q-59 -81 -158 -80q-71 0 -121.5 52t-57.5 128h379h20v20q0 100 -65 170t-155 70q-91 0 -155.5 -70t-64.5 -170t64.5 -170t155.5 -70q121 -1 190 96zM101 260q7 76 57.5 128t121.5 52q73 0 126.5 -55.5t53.5 -124.5h-359zM216 494l64 80l64 -80l6 -8h52l-26 32
l-80 100l-6 8h-20l-6 -8l-80 -100l-26 -32h52z" />
    <glyph glyph-name="edieresis" unicode="&#xeb;" 
d="M438 120q-59 -81 -158 -80q-71 0 -121.5 52t-57.5 128h379h20v20q0 100 -65 170t-155 70q-91 0 -155.5 -70t-64.5 -170t64.5 -170t155.5 -70q121 -1 190 96zM101 260q7 76 57.5 128t121.5 52q73 0 126.5 -55.5t53.5 -124.5h-359zM230 531v1v20h-40v-20v-1v-20h40v20z
M368 531v1v20h-40v-20v-1v-20h40v20z" />
    <glyph glyph-name="igrave" unicode="&#xec;" horiz-adv-x="222" 
d="M100 460v-440v-20h40v20v440v20h-40v-20zM64 648l80 -100l6 -8h52l-26 32l-80 100l-6 8h-52z" />
    <glyph glyph-name="iacute" unicode="&#xed;" horiz-adv-x="222" 
d="M100 460v-440v-20h40v20v440v20h-40v-20zM96 548l80 100l26 32h-52l-6 -8l-80 -100l-26 -32h52z" />
    <glyph glyph-name="icircumflex" unicode="&#xee;" horiz-adv-x="262" 
d="M100 460v-440v-20h40v20v440v20h-40v-20zM56 496l64 80l64 -80l6 -8h52l-26 32l-80 100l-6 8h-20l-6 -8l-80 -100l-26 -32h52z" />
    <glyph glyph-name="idieresis" unicode="&#xef;" horiz-adv-x="206" 
d="M100 460v-440v-20h40v20v440v20h-40v-20zM91 513v1v20h-40v-20v-1v-20h40v20zM186 513v1v20h-40v-20v-1v-20h40v20z" />
    <glyph glyph-name="eth" unicode="&#xf0;" horiz-adv-x="502" 
d="M482 235q1 161 -63.5 297t-139.5 167l-28 11v-43l12 -6q49 -20 94 -93.5t67 -173.5q-62 73 -153 73q-87 0 -149 -68t-62 -165q0 -98 62 -166.5t149 -68.5q83 0 143 61.5t67 153.5h1v20v1zM271 427q71 0 121 -57t50 -136q0 -80 -50 -137.5t-121 -57.5q-72 0 -121.5 57
t-49.5 138q0 80 49.5 136.5t121.5 56.5zM375 667l-80 -100l-26 -32h52l6 8l80 100l26 32h-52z" />
    <glyph glyph-name="ntilde" unicode="&#xf1;" horiz-adv-x="501" 
d="M480 20v257q0 84 -56 143.5t-134 59.5q-92 0 -150 -78v58v20h-40v-20v-183v-20v-237v-20h40v20v237v20q0 67 43.5 115t106.5 48t106.5 -48t43.5 -115l1 -258l1 -20h39zM212 520q0 19 9.5 29.5t25.5 10.5q14 0 26 -15t32 -30t52 -15q29 -1 52 24t23 56h-40
q0 -19 -9.5 -29.5t-25.5 -10.5q-11 0 -21 9t-18.5 20.5t-27 21t-43.5 9.5q-29 -1 -52 -25t-23 -55h40z" />
    <glyph glyph-name="ograve" unicode="&#xf2;" 
d="M60 240q0 -100 65 -170t155 -70t155 70t65 170t-65 170t-155 70t-155 -70t-65 -170zM100 240q0 83 52.5 141.5t127.5 58.5t127.5 -58.5t52.5 -141.5t-52.5 -141.5t-127.5 -58.5t-127.5 58.5t-52.5 141.5zM225 594l80 -100l6 -8h52l-26 32l-80 100l-6 8h-52z" />
    <glyph glyph-name="oacute" unicode="&#xf3;" 
d="M60 240q0 -100 65 -170t155 -70t155 70t65 170t-65 170t-155 70t-155 -70t-65 -170zM100 240q0 83 52.5 141.5t127.5 58.5t127.5 -58.5t52.5 -141.5t-52.5 -141.5t-127.5 -58.5t-127.5 58.5t-52.5 141.5zM257 494l80 100l26 32h-52l-6 -8l-80 -100l-26 -32h52z" />
    <glyph glyph-name="ocircumflex" unicode="&#xf4;" 
d="M60 240q0 -100 65 -170t155 -70t155 70t65 170t-65 170t-155 70t-155 -70t-65 -170zM100 240q0 83 52.5 141.5t127.5 58.5t127.5 -58.5t52.5 -141.5t-52.5 -141.5t-127.5 -58.5t-127.5 58.5t-52.5 141.5zM216 489l64 80l64 -80l6 -8h52l-26 32l-80 100l-6 8h-20l-6 -8
l-80 -100l-26 -32h52z" />
    <glyph glyph-name="otilde" unicode="&#xf5;" 
d="M60 240q0 -100 65 -170t155 -70t155 70t65 170t-65 170t-155 70t-155 -70t-65 -170zM100 240q0 83 52.5 141.5t127.5 58.5t127.5 -58.5t52.5 -141.5t-52.5 -141.5t-127.5 -58.5t-127.5 58.5t-52.5 141.5zM197 501q0 19 9.5 29.5t25.5 10.5q14 0 26 -15t32 -30t52 -15
q29 -1 52 24t23 56h-40q0 -19 -9.5 -29.5t-25.5 -10.5q-11 0 -21 9t-18.5 20.5t-27 21t-43.5 9.5q-29 -1 -52 -25t-23 -55h40z" />
    <glyph glyph-name="odieresis" unicode="&#xf6;" 
d="M60 240q0 -100 65 -170t155 -70t155 70t65 170t-65 170t-155 70t-155 -70t-65 -170zM100 240q0 83 52.5 141.5t127.5 58.5t127.5 -58.5t52.5 -141.5t-52.5 -141.5t-127.5 -58.5t-127.5 58.5t-52.5 141.5zM346 521v1v20h-40v-20v-1v-20h40v20zM250 521v1v20h-40v-20v-1
v-20h40v20z" />
    <glyph glyph-name="divide" unicode="&#xf7;" horiz-adv-x="399" 
d="M-7 317h354h32v40h-32h-354h-33v-40h33zM149 227v-1v-20h40v20v1v20h-40v-20zM149 440v-1v-20h40v20v1v20h-40v-20z" />
    <glyph glyph-name="oslash" unicode="&#xf8;" 
d="M60 240q0 -100 65 -170t155 -70t155 70t65 170t-65 170t-155 70t-155 -70t-65 -170zM100 240q0 83 52.5 141.5t127.5 58.5t127.5 -58.5t52.5 -141.5t-52.5 -141.5t-127.5 -58.5t-127.5 58.5t-52.5 141.5zM377 494l-235 -498l-10 -20h45l5 10l235 498l10 20h-45z" />
    <glyph glyph-name="ugrave" unicode="&#xf9;" horiz-adv-x="489" 
d="M80 460v-282q0 -73 56.5 -125.5t137.5 -52.5t137 52.5t56 125.5l1 281l1 20h-41l-1 -19v-282q0 -58 -45 -98t-108 -40t-108.5 40.5t-45.5 97.5l1 281l1 20h-41zM206 519l80 -100l6 -8h52l-26 32l-80 100l-6 8h-52z" />
    <glyph glyph-name="uacute" unicode="&#xfa;" horiz-adv-x="489" 
d="M80 460v-282q0 -73 56.5 -125.5t137.5 -52.5t137 52.5t56 125.5l1 281l1 20h-41l-1 -19v-282q0 -58 -45 -98t-108 -40t-108.5 40.5t-45.5 97.5l1 281l1 20h-41zM238 419l80 100l26 32h-52l-6 -8l-80 -100l-26 -32h52z" />
    <glyph glyph-name="ucircumflex" unicode="&#xfb;" horiz-adv-x="489" 
d="M80 460v-282q0 -73 56.5 -125.5t137.5 -52.5t137 52.5t56 125.5l1 281l1 20h-41l-1 -19v-282q0 -58 -45 -98t-108 -40t-108.5 40.5t-45.5 97.5l1 281l1 20h-41zM210 454l64 80l64 -80l6 -8h52l-26 32l-80 100l-6 8h-20l-6 -8l-80 -100l-26 -32h52z" />
    <glyph glyph-name="udieresis" unicode="&#xfc;" horiz-adv-x="489" 
d="M80 460v-282q0 -73 56.5 -125.5t137.5 -52.5t137 52.5t56 125.5l1 281l1 20h-41l-1 -19v-282q0 -58 -45 -98t-108 -40t-108.5 40.5t-45.5 97.5l1 281l1 20h-41zM227 494v1v20h-40v-20v-1v-20h40v20zM352 494v1v20h-40v-20v-1v-20h40v20z" />
    <glyph glyph-name="yacute" unicode="&#xfd;" horiz-adv-x="449" 
d="M231 76l-152 391l-5 13h-43l10 -27l168 -433q-36 -96 -66 -131t-83 -35h-20v-40h20q66 0 106 40.5t84 158.5l169 440l10 27h-43l-5 -13zM274 545l-80 -100l-26 -32h52l6 8l80 100l26 32h-52z" />
    <glyph glyph-name="ydieresis" unicode="&#xff;" horiz-adv-x="449" 
d="M231 76l-152 391l-5 13h-43l10 -27l168 -433q-36 -96 -66 -131t-83 -35h-20v-40h20q66 0 106 40.5t84 158.5l169 440l10 27h-43l-5 -13zM193 496v1v20h-40v-20v-1v-20h40v20zM287 496v1v20h-40v-20v-1v-20h40v20z" />
    <glyph glyph-name="Amacron" unicode="&#x100;" horiz-adv-x="20" 
 />
    <glyph glyph-name="dotlessi" unicode="&#x131;" horiz-adv-x="200" 
d="M120 20v440v20h-40v-20v-440v-20h40v20z" />
    <glyph glyph-name="circumflex" unicode="&#x2c6;" horiz-adv-x="280" 
d="M76 548l64 80l64 -80l6 -8h52l-26 32l-80 100l-6 8h-20l-6 -8l-80 -100l-26 -32h52z" />
    <glyph glyph-name="caron" unicode="&#x2c7;" horiz-adv-x="280" 
d="M44 648l80 -100l6 -8h20l6 8l80 100l26 32h-52l-6 -8l-64 -80l-64 80l-6 8h-52z" />
    <glyph glyph-name="MODIFIERLETTERMACRON" unicode="&#x2c9;" horiz-adv-x="280" 
d="M60 540h160h20v40h-20h-160h-20v-40h20z" />
    <glyph glyph-name="MODIFIERLETTERACUTEA" unicode="&#x2ca;" horiz-adv-x="200" 
d="M124 672l-80 -100l-26 -32h52l6 8l80 100l26 32h-52z" />
    <glyph glyph-name="MODIFIERLETTERGRAVEA" unicode="&#x2cb;" horiz-adv-x="200" 
d="M44 648l80 -100l6 -8h52l-26 32l-80 100l-6 8h-52z" />
    <glyph glyph-name="MODIFIERLETTERLOWMAC" unicode="&#x2cd;" horiz-adv-x="280" 
d="M60 -120h160h20v40h-20h-160h-20v-40h20z" />
    <glyph glyph-name="MODIFIERLETTERMINUSS" unicode="&#x2d7;" horiz-adv-x="320" 
d="M60 172h200h20v40h-20h-200h-20v-40h20z" />
    <glyph glyph-name="breve" unicode="&#x2d8;" horiz-adv-x="300" 
d="M40 660q0 -40 33.5 -70t76.5 -30q44 -1 77 29.5t33 70.5h-40q0 -26 -19.5 -43t-50.5 -17q-31 -1 -50.5 16.5t-19.5 43.5h-40z" />
    <glyph glyph-name="dotaccent" unicode="&#x2d9;" horiz-adv-x="280" 
d="M160 660v1v20h-40v-20v-1v-20h40v20z" />
    <glyph glyph-name="ring" unicode="&#x2da;" horiz-adv-x="240" 
d="M40 600q0 -31 24.5 -55.5t55.5 -24.5q31 -1 55.5 24t24.5 56q1 30 -24 55t-56 25q-31 -1 -55.5 -25t-24.5 -55zM80 600q0 40 40 40q40 -2 40 -40q1 -19 -10 -29.5t-30 -10.5q-18 -1 -29 10t-11 30z" />
    <glyph glyph-name="ogonek" unicode="&#x2db;" horiz-adv-x="220" 
d="M95 14q-55 -59 -55 -103q1 -41 39.5 -69t90.5 1l17 9l-19 35l-18 -10q-34 -16 -52 -4t-18 38q0 12 11.5 31t22.5 32l11 13l13 14l-29 27z" />
    <glyph glyph-name="tilde" unicode="&#x2dc;" horiz-adv-x="340" 
d="M80 600q0 19 9.5 29.5t25.5 10.5q14 0 26 -15t32 -30t52 -15q29 -1 52 24t23 56h-40q0 -19 -9.5 -29.5t-25.5 -10.5q-11 0 -21 9t-18.5 20.5t-27 21t-43.5 9.5q-29 -1 -52 -25t-23 -55h40z" />
    <glyph glyph-name="hungarumlaut" unicode="&#x2dd;" horiz-adv-x="320" 
d="M244 672l-80 -100l-26 -32h52l6 8l80 100l26 32h-52zM124 672l-80 -100l-26 -32h52l6 8l80 100l26 32h-52z" />
  </font>
</defs>
</svg>
